<svg xmlns="http://www.w3.org/2000/svg" data-name="Layer 1" viewBox="0 0 168 168" id="comfort"><path fill="#2d4356" d="M118,23H50a6.00476,6.00476,0,0,0-6,6V39a6.00476,6.00476,0,0,0,6,6h68a6.00476,6.00476,0,0,0,6-6V29A6.00476,6.00476,0,0,0,118,23Zm2,16a2.00591,2.00591,0,0,1-2,2H50a2.00591,2.00591,0,0,1-2-2V29a2.00587,2.00587,0,0,1,2-2h68a2.00587,2.00587,0,0,1,2,2Z"></path><circle cx="114" cy="33" r="2" fill="#2d4356"></circle><path fill="#2d4356" d="M158.83142 9a3 3 0 10-3-3A3.00344 3.00344 0 00158.83142 9zm0-4.5a1.5 1.5 0 11-1.5 1.5A1.50148 1.50148 0 01158.83142 4.5zM90.778 14.44469a2 2 0 102 2A2.00229 2.00229 0 0090.778 14.44469zm0 3a1 1 0 111-1A1.001 1.001 0 0190.778 17.44469zM160.33142 54.44563a2 2 0 102 2A2.00229 2.00229 0 00160.33142 54.44563zm0 3a1 1 0 111-1A1.001 1.001 0 01160.33142 57.44563zM15 51.44563a2 2 0 102 2A2.00229 2.00229 0 0015 51.44563zm0 3a1 1 0 111-1A1.001 1.001 0 0115 54.44563zM57.6069 6.06651a2 2 0 102.82816.03882A2.00229 2.00229 0 0057.6069 6.06651zm2.092 2.15024a1 1 0 11.01941-1.41408A1.001 1.001 0 0159.6989 8.21675z"></path><polygon fill="#0bceb2" points="9.361 9.457 10.848 7.501 9.909 6.969 8.955 9.159 8.923 9.159 7.953 6.985 6.998 7.533 8.469 9.442 8.469 9.473 6.169 9.175 6.169 10.239 8.485 9.942 8.485 9.974 6.998 11.882 7.89 12.446 8.908 10.239 8.938 10.239 9.877 12.43 10.863 11.867 9.361 9.989 9.361 9.958 11.723 10.239 11.723 9.175 9.361 9.488 9.361 9.457"></polygon><polygon fill="#0bceb2" points="143.963 31.153 143.107 32.252 143.62 32.577 144.207 31.306 144.224 31.306 144.765 32.568 145.333 32.243 144.468 31.162 144.468 31.144 145.828 31.306 145.828 30.694 144.468 30.874 144.468 30.856 145.324 29.73 144.783 29.423 144.234 30.684 144.215 30.684 143.657 29.432 143.107 29.747 143.954 30.847 143.954 30.865 142.629 30.694 142.629 31.306 143.963 31.135 143.963 31.153"></polygon><polygon fill="#0bceb2" points="126.556 14.521 126.556 13.478 124.239 13.785 124.239 13.754 125.697 11.836 124.776 11.314 123.84 13.462 123.809 13.462 122.858 11.329 121.921 11.867 123.364 13.739 123.364 13.77 121.107 13.478 121.107 14.521 123.379 14.23 123.379 14.261 121.921 16.133 122.795 16.686 123.794 14.521 123.824 14.521 124.745 16.67 125.712 16.118 124.239 14.276 124.239 14.245 126.556 14.521"></polygon><polygon fill="#0bceb2" points="30.642 28.471 31.9 26.817 31.105 26.367 30.298 28.22 30.271 28.22 29.451 26.38 28.642 26.843 29.887 28.458 29.887 28.485 27.941 28.233 27.941 29.133 29.9 28.882 29.9 28.908 28.642 30.523 29.397 31 30.258 29.133 30.284 29.133 31.078 30.986 31.913 30.51 30.642 28.921 30.642 28.895 32.64 29.133 32.64 28.233 30.642 28.498 30.642 28.471"></polygon><circle cx="2" cy="149" r="2" fill="#2d4356"></circle><path fill="#2d4356" d="M11 147H8a2 2 0 000 4h3a2 2 0 000-4zM160 147h-3a2 2 0 000 4h3a2 2 0 000-4z"></path><circle cx="166" cy="149" r="2" fill="#2d4356"></circle><path fill="#0bceb2" d="M118.15387 155h-8.30774a2.00641 2.00641 0 000 4h8.30774a2.00641 2.00641 0 000-4zM58.15387 155H49.84613a2.00641 2.00641 0 000 4h8.30774a2.00641 2.00641 0 000-4zM104 155H64a2 2 0 000 4H79.94v2H72a2 2 0 000 4H97a2 2 0 000-4H88.06v-2H104a2 2 0 000-4z"></path><path fill="#2d4356" d="M150.72131,147H133.65a5.96038,5.96038,0,0,0,.35-2V122.48389a10.9953,10.9953,0,0,0-6-19.43323V91a8.00917,8.00917,0,0,0-8-8H104.00732l3.901,4H120a4.00427,4.00427,0,0,1,4,4v12.42645A11.01181,11.01181,0,0,0,116,114v7H103v.72705a7.71555,7.71555,0,0,1-.07617,1.06152c.02148.18115.03809.35449.05078.52295A10.799,10.799,0,0,1,105.3421,125H116v8h-7.25555a10.83834,10.83834,0,0,1-.51984,3.21973l-.05469.16357c-.072.21063-.16.41254-.244.6167H116v8a5.96038,5.96038,0,0,0,.35,2H51.65a5.96038,5.96038,0,0,0,.35-2v-8H75.56665l-4.84106-1.58057A10.74467,10.74467,0,0,1,66.6734,133H52v-8H63.25116a10.78293,10.78293,0,0,1,.52423-3.21924l.05762-.1709c.07147-.20935.16736-.40643.25073-.60986H52v-7a11.01181,11.01181,0,0,0-8-10.57355V91a4.00427,4.00427,0,0,1,4-4H59.39264l3.30109-4H48a8.00917,8.00917,0,0,0-8,8v12.05066a10.9953,10.9953,0,0,0-6,19.43323V145a5.96038,5.96038,0,0,0,.35,2H17.27869a2.017,2.017,0,1,0,0,4H150.72131a2.017,2.017,0,1,0,0-4ZM40,147a2.00229,2.00229,0,0,1-2-2V121.48242a2.0011,2.0011,0,0,0-.88672-1.66162A6.99965,6.99965,0,1,1,48,114v31a2.00229,2.00229,0,0,1-2,2Zm90.88672-27.1792A2.0011,2.0011,0,0,0,130,121.48242V145a2.00229,2.00229,0,0,1-2,2h-6a2.00229,2.00229,0,0,1-2-2V114a7,7,0,1,1,10.88672,5.8208Z"></path><path fill="#0bceb2" d="M84,101A10.01146,10.01146,0,0,1,74,91V87a10,10,0,0,1,20,0v4A10.01146,10.01146,0,0,1,84,101Zm0-20a6.00656,6.00656,0,0,0-6,6v4a6,6,0,0,0,12,0V87A6.00656,6.00656,0,0,0,84,81Z"></path><path fill="#2d4356" d="M109.62,94.5c-.05-.06-.11-.12-.16-.18L99.51,84.11a5.74568,5.74568,0,0,0-6.42072-1.25488A9.925,9.925,0,0,1,94,87v.01031a1.7426,1.7426,0,0,1,.54-.44031,1.76092,1.76092,0,0,1,2.1.34l9.86,10.1a1.77387,1.77387,0,0,1-.04,2.49L95.72,108.46A2.0001,2.0001,0,0,0,95,110v7.68512a6.96911,6.96911,0,0,0-9.57227,3.92841l-9.21191-3.00806A6.81732,6.81732,0,0,0,73,118.35669V110a2.0001,2.0001,0,0,0-.72-1.54L61.54,99.5a1.77453,1.77453,0,0,1-.02-2.51l8.9-10.78a1.91986,1.91986,0,0,1,2.35-.48,1.91231,1.91231,0,0,1,.69,2.78l-5.1,7.35A1.998,1.998,0,0,0,70,99h7v4.6001a1.99984,1.99984,0,0,0,.67871,1.50146l5,4.3999a2.0002,2.0002,0,0,0,2.64258,0l5-4.3999A1.99984,1.99984,0,0,0,91,103.6001V99h7a1.999,1.999,0,0,0,1.51-3.31l-5.5-6.37L94,89.3056V91a9.93183,9.93183,0,0,1-.691,3.62683L93.63,95h-.47076A10.046,10.046,0,0,1,87,100.53876v2.157l-3,2.64014-3-2.64014v-2.157A10.0459,10.0459,0,0,1,74.84082,95H73.82l.6601-.94849.00006.00012A9.9541,9.9541,0,0,1,74,91V87a9.92585,9.92585,0,0,1,1.09753-4.53217l-.00012.00024A5.59249,5.59249,0,0,0,74.61,82.18a5.93988,5.93988,0,0,0-7.28,1.48L58.38,94.5a5.735,5.735,0,0,0,.45,7.94c.03.03.06.05.09.08L69,110.94v9.60376a6.81287,6.81287,0,0,0-1.40234,2.41864l-.0166.04834a6.8535,6.8535,0,0,0,4.38574,8.60645L85,135.873V144a7,7,0,0,0,14,0v-4.363a6.79435,6.79435,0,0,0,5.40234-4.59937l.0166-.04834a6.8535,6.8535,0,0,0-4.38574-8.60645L99,126.04541V110.94l10.08-8.42c.03-.03.06-.05.09-.08A5.735,5.735,0,0,0,109.62,94.5ZM92,121a3.00328,3.00328,0,0,1,3,3v.73926l-5.77057-1.88434A3.00257,3.00257,0,0,1,92,121Zm3,23a3,3,0,0,1-6,0v-6.8208l6,1.95929Zm5.62207-10.27c-.00488.01221-.00879.02441-.0127.03662a2.83737,2.83737,0,0,1-3.583,1.8252L73.209,127.81445A2.84612,2.84612,0,0,1,71.37793,124.27c.00488-.01221.00879-.02441.0127-.03662a2.83737,2.83737,0,0,1,3.583-1.8252L98.791,130.18555A2.84612,2.84612,0,0,1,100.62207,133.73Z"></path><path fill="#0bceb2" d="M106,39v2h-4V39a2.00587,2.00587,0,0,0-2-2H68a2.00587,2.00587,0,0,0-2,2v2H62V39a6.00476,6.00476,0,0,1,6-6h32A6.00476,6.00476,0,0,1,106,39Z"></path></svg>