<svg xmlns="http://www.w3.org/2000/svg" width="70" height="70" viewBox="0 0 600 600" version="1.1"><path d="M 456.250 209.722 L 448 210.081 448 212.961 C 448 215.409, 448.487 215.939, 451.250 216.495 C 461.536 218.565, 461 215.652, 461 269.516 C 461 297.612, 460.621 315.840, 460.013 316.976 C 459.432 318.061, 457.374 319.099, 455.013 319.498 C 451.394 320.109, 451 320.464, 451 323.112 L 451 326.048 467.750 325.774 L 484.500 325.500 484.500 323.064 C 484.500 321.174, 483.798 320.445, 481.376 319.818 C 475.296 318.242, 475.545 320.475, 475 262.597 L 474.500 209.500 469.500 209.432 C 466.750 209.394, 460.788 209.525, 456.250 209.722 M 312.452 214.646 C 308.733 218.659, 308.960 226.114, 312.923 230.077 C 316.445 233.599, 319.943 233.822, 323.478 230.750 C 326.276 228.319, 327.676 222.831, 326.597 218.529 C 324.919 211.845, 317.050 209.685, 312.452 214.646 M 354.360 213.460 C 351.753 215.286, 349.560 220.411, 350.423 222.661 C 350.958 224.055, 352.049 223.396, 356.537 218.963 C 359.542 215.996, 362 213.215, 362 212.784 C 362 211.443, 356.553 211.925, 354.360 213.460 M 130.739 218.594 C 130.333 219.001, 130 220.333, 130 221.555 C 130 223.290, 130.745 223.917, 133.399 224.415 C 135.268 224.766, 137.968 225.973, 139.399 227.099 L 142 229.145 142 272.418 C 142 314.675, 141.952 315.733, 139.964 317.533 C 138.844 318.546, 136.032 319.628, 133.714 319.938 C 130.036 320.428, 129.500 320.818, 129.500 323 L 129.500 325.500 153.285 325.768 C 172.462 325.984, 178.275 325.727, 183.285 324.441 C 202.170 319.592, 215.793 306.409, 220.469 288.458 C 222.217 281.747, 222.492 265.928, 221.001 257.886 C 219.750 251.141, 214.245 239.800, 209.577 234.355 C 204.978 228.990, 197.159 223.886, 189 220.923 C 182.931 218.718, 180.809 218.538, 156.989 218.208 C 142.958 218.014, 131.146 218.188, 130.739 218.594 M 158 268.944 L 158 312.888 160.403 315.682 C 162.598 318.234, 163.505 318.508, 170.839 318.841 C 177.717 319.154, 179.634 318.855, 184.185 316.763 C 191.276 313.504, 195.057 310.153, 198.212 304.333 C 202.683 296.086, 204.319 287.883, 204.360 273.500 C 204.404 258.060, 202.304 249.679, 196.043 240.303 C 188.965 229.703, 179.722 225, 165.965 225 L 158 225 158 268.944 M 250.718 250.372 C 241.639 253.768, 236 259.982, 236 266.589 C 236 272.564, 238.182 275, 243.534 275 C 249.491 275, 251.336 272.305, 250.849 264.314 C 250.528 259.037, 250.700 258.478, 253 257.305 C 256.089 255.729, 261.114 255.639, 264.327 257.103 C 268.385 258.952, 271 264.879, 271 272.226 C 271 279.671, 272.237 278.659, 255.400 284.988 C 249.845 287.077, 243.487 289.930, 241.270 291.330 C 236.819 294.140, 233.143 300.512, 232.286 306.907 C 231.250 314.631, 236.581 324.592, 242.750 326.455 C 244.457 326.971, 246.068 326.258, 249.438 323.498 L 253.876 319.861 250.840 317.148 C 248.543 315.096, 247.677 313.315, 247.285 309.836 C 246.549 303.302, 248.419 298.681, 253.673 294.057 C 257.539 290.654, 266.969 286, 269.999 286 C 270.507 286, 271.052 289.843, 271.211 294.539 L 271.500 303.079 278.384 296.648 L 285.268 290.218 284.801 276.859 C 284.256 261.322, 282.615 256.759, 275.992 252.376 C 272.646 250.162, 270.652 249.688, 263.262 249.354 C 257.280 249.083, 253.300 249.406, 250.718 250.372 M 401.018 250.892 C 397.322 252.212, 394.144 254.322, 391.268 257.367 C 387.595 261.254, 387 262.488, 387 266.219 C 387 272.558, 389.096 275, 394.534 275 C 400.686 275, 402.508 272.204, 401.597 264.156 C 400.969 258.602, 401.053 258.297, 403.517 257.174 C 406.611 255.765, 411.957 255.653, 415.311 256.928 C 418.981 258.324, 422 265.421, 422 272.655 C 422 279.601, 423.152 278.691, 406.378 284.997 C 388.403 291.754, 383.741 296.661, 383.671 308.895 C 383.600 321.186, 390.082 328.008, 401.815 327.994 C 408.927 327.986, 413.282 326.384, 418.373 321.903 C 421.767 318.916, 423 318.279, 423 319.515 C 423 320.442, 424.530 322.730, 426.400 324.600 C 429.309 327.509, 430.484 328, 434.534 328 C 437.138 328, 441.008 327.479, 443.134 326.842 C 446.443 325.850, 447 325.274, 447 322.842 C 447 320.261, 446.679 320, 443.500 320 C 439.696 320, 436.031 317.207, 435.955 314.250 C 435.931 313.288, 435.818 301.475, 435.705 288 C 435.510 264.650, 435.393 263.300, 433.230 259.251 C 429.634 252.520, 424.687 249.866, 414.787 249.358 C 408.293 249.025, 405.314 249.357, 401.018 250.892 M 303.750 251.739 C 298.195 252.088, 298 252.196, 298 254.918 C 298 257.443, 298.410 257.792, 301.940 258.265 C 304.107 258.556, 307.312 259.508, 309.061 260.381 C 310.811 261.254, 312.751 261.666, 313.371 261.297 C 315.419 260.079, 320.035 255.539, 321.554 253.250 L 323.046 251 316.273 251.189 C 312.548 251.293, 306.913 251.541, 303.750 251.739 M 359.793 264.750 L 354.148 270.500 353.258 307.500 C 352.497 339.190, 352.126 344.962, 350.674 347.720 C 349.742 349.492, 348.155 351.382, 347.147 351.921 C 345.622 352.737, 344.788 352.153, 342.166 348.433 C 338.367 343.043, 335.018 341.258, 331.210 342.591 C 327.936 343.738, 326.079 349.457, 327.578 353.778 C 329.669 359.810, 339.837 361.690, 348.500 357.647 C 357.450 353.470, 363.723 344.358, 365.953 332.295 C 367.164 325.747, 367.405 259, 366.219 259 C 365.789 259, 362.897 261.587, 359.793 264.750 M 412.460 289.347 C 401.273 294.708, 396.852 301.429, 398.344 310.806 C 399.554 318.407, 408.250 321.481, 415.633 316.918 C 421.506 313.288, 422 311.841, 422 298.277 C 422 288.978, 421.690 286, 420.722 286 C 420.019 286, 416.301 287.506, 412.460 289.347 M 319.159 305.413 L 313 311.827 313 324.277 C 313 338.445, 311.807 346.381, 309.135 350 C 306.581 353.458, 304.752 353.538, 302.809 350.279 C 299.720 345.093, 297.076 343, 293.616 343 C 289.434 343, 287 345.614, 287 350.106 C 287 354.841, 289.320 357.740, 294.149 359.040 C 309.722 363.234, 323.684 349.656, 326.067 328 C 327.160 318.063, 327.221 299, 326.159 299 C 325.696 299, 322.546 301.886, 319.159 305.413" stroke="none" fill="#070404" fill-rule="evenodd"/><path d="M 284 13.691 C 263.222 15.892, 243.649 19.769, 227.693 24.846 C 158.385 46.896, 102.813 93.397, 69.759 157 C 35.538 222.847, 30.580 300.776, 56.175 370.500 C 75.824 424.025, 111.808 469.416, 160 501.465 C 173.770 510.623, 203.434 525.393, 218 530.345 C 250.750 541.477, 273.710 545.326, 307.500 545.348 C 341.275 545.370, 363.890 541.588, 397 530.383 C 417.750 523.362, 452.653 504.542, 470.165 490.934 C 508.357 461.256, 538.169 422.186, 555.428 379.192 C 559.766 368.387, 566.139 348.863, 567.407 342.500 C 567.735 340.850, 568.928 335, 570.058 329.500 C 574.859 306.121, 576.130 277.927, 573.528 252.500 C 572.152 239.051, 571.666 236.070, 568.305 220.500 C 564.522 202.968, 555.729 178.445, 546.924 160.867 C 527.174 121.437, 496.883 86.424, 460.583 61.067 C 424.273 35.702, 381.304 19.520, 337 14.525 C 324.829 13.152, 293.706 12.663, 284 13.691 M 297.500 81.128 C 249.886 83.619, 205.204 103.211, 169.133 137.411 C 158.150 147.825, 139.677 172.018, 133.560 184 C 122.709 205.255, 118.762 215.186, 114.530 231.882 C 110.142 249.193, 108.585 262.088, 108.541 281.500 C 108.477 309.594, 112.509 330.906, 122.731 356.500 C 126.907 366.958, 133.652 380.130, 138.807 387.896 C 143.355 394.749, 152.529 404.716, 155.014 405.505 C 157.890 406.417, 162.454 403.559, 170.857 395.584 C 175.061 391.594, 181.650 385.409, 185.500 381.838 C 216.737 352.870, 223.346 346.722, 229.500 340.910 C 233.350 337.274, 238.075 332.889, 240 331.165 C 242.957 328.516, 243.267 327.862, 242 326.950 C 240.808 326.091, 240.962 325.999, 242.750 326.502 C 245.605 327.305, 254.932 320.208, 252.799 318.855 C 251.796 318.218, 251.854 318.027, 253.054 318.015 C 253.908 318.007, 256.158 316.383, 258.054 314.406 C 259.949 312.429, 266.103 307.011, 271.729 302.367 C 277.354 297.722, 283.282 292.027, 284.900 289.711 C 286.519 287.395, 293.036 280.350, 299.382 274.055 C 309.014 264.503, 310.730 262.354, 309.759 261.055 C 308.789 259.758, 308.829 259.708, 309.998 260.750 C 312.170 262.687, 312.841 262.365, 318.332 256.757 L 323.466 251.514 320.483 250.875 C 317.660 250.271, 317.639 250.230, 320.079 250.118 C 321.961 250.032, 326.384 246.361, 336.459 236.522 C 344.050 229.109, 350.591 223.247, 350.994 223.497 C 351.398 223.746, 355.284 220.249, 359.630 215.725 C 363.976 211.201, 375.603 199.850, 385.467 190.500 C 395.331 181.150, 412.291 165.001, 423.156 154.613 L 442.910 135.727 441.431 132.867 C 437.551 125.363, 412.461 107.959, 393 99.274 C 360.306 84.681, 332.082 79.318, 297.500 81.128 M 465.214 166.422 C 463.407 167.700, 460.249 170.265, 458.197 172.123 C 456.145 173.980, 449.749 179.761, 443.983 184.968 C 431.185 196.527, 418.267 208.918, 389.738 237 C 377.725 248.825, 367.357 258.665, 366.698 258.867 C 366.039 259.069, 362.913 261.755, 359.750 264.836 L 354 270.437 353.796 284.469 L 353.592 298.500 353.046 285.683 L 352.500 272.866 288.016 336.683 C 192.203 431.506, 189 434.762, 189 437.346 C 189 444.813, 221.909 462.918, 250 470.907 C 291.072 482.586, 337.663 480.428, 376.371 465.051 C 392.704 458.563, 411.794 447.909, 425.500 437.633 C 432.803 432.157, 453.040 412.777, 459.053 405.500 C 480.850 379.122, 494.994 348.654, 502.227 312.500 C 504.138 302.952, 504.427 298.265, 504.421 277 C 504.415 257.655, 504.042 250.606, 502.646 243.500 C 500.305 231.586, 495.740 215.363, 491.985 205.619 C 486.638 191.742, 471.434 163.912, 469.275 164.049 C 468.849 164.076, 467.021 165.144, 465.214 166.422 M 458.762 209.707 C 460.006 209.946, 461.806 209.937, 462.762 209.687 C 463.718 209.437, 462.700 209.241, 460.500 209.252 C 458.300 209.263, 457.518 209.468, 458.762 209.707 M 303.762 251.707 C 305.006 251.946, 306.806 251.937, 307.762 251.687 C 308.718 251.437, 307.700 251.241, 305.500 251.252 C 303.300 251.263, 302.518 251.468, 303.762 251.707 M 288.872 343.750 C 287.678 345.273, 287.695 345.349, 289 344.338 C 289.825 343.700, 291.850 342.980, 293.500 342.738 L 296.500 342.300 293.372 342.150 C 291.442 342.057, 289.720 342.670, 288.872 343.750" stroke="none" fill="#eb1c24" fill-rule="evenodd"/></svg>