<svg xmlns="http://www.w3.org/2000/svg" viewBox="0 0 66 66" id="difficulty"><path fill="#653dc5" d="M57.57 24.77c-1.02-5.37-3.99-8.01-6.68-9.3-2.02-.97-4.33-1.06-6.52-.59-1.4.3-4.04.34-8.88-.92-4.75-1.24-7.09.26-8.24 1.89-1.14 1.63-1.28 3.76-.56 5.61 2.1 5.39 9.62 3.29 9.62 3.29 7.77-3.75 11.79 2.1 11.79 2.1s1.87 3.14.85 6.72c-1.02 3.58 1.19 3.55 1.19 3.55l.01-.01c.16-.71.47-1.45.95-2.14 1.41-2.04 3.67-2.92 5.05-1.97 0 0 .93-.82 1.44-3.27.33-1.62.3-3.32-.02-4.96z"></path><path fill="#ff8d61" d="M56.08 38.42c-1.27 1.84-3.21 2.73-4.59 2.21v-.01c-.07-.03-.08-.02 0 .01v.16c0 5-4.06 9.06-9.06 9.06h-.64c-5.9 0-10.69-4.79-10.69-10.7V24.97c2.58.52 5.21-.22 5.21-.22 7.76-3.75 11.79 2.1 11.79 2.1s1.88 3.14.85 6.73c-1.03 3.58 1.19 3.55 1.19 3.55l.01-.01v-.01c.15-.71.47-1.45.95-2.14 1.41-2.03 3.67-2.92 5.05-1.97 1.37.96 1.34 3.38-.07 5.42z"></path><path fill="#ff8d61" d="M42.44 49.84h-.64c-1.26 0-2.47-.23-3.6-.63v1.61a6.23 6.23 0 0 0 12.46 0v-6.28c-1.42 3.12-4.56 5.3-8.22 5.3z"></path><linearGradient id="a" x1="44.432" x2="44.432" y1="50.833" y2="62.657" gradientUnits="userSpaceOnUse"><stop offset="0" stop-color="#ff8d61"></stop><stop offset="1" stop-color="#ffcd0a"></stop></linearGradient><path fill="url(#a)" d="M50.85 51.22h-.2c-.21 3.25-2.91 5.83-6.21 5.83-3.31 0-6-2.58-6.21-5.83h-.2c-7.01 0-12.69 5.68-12.69 12.69h38.21c-.01-7-5.69-12.69-12.7-12.69z"></path><path fill="#ffcd0a" d="M9.22 18.87s-3.79 1.85-4.65-.5c-.26-.72-.13-1.52.26-2.18.62-1.07 1.48-3.18-1.06-3.83-3.46-.88-1.76-4.22 0-4.69C5.32 7.26 7.56 6.62 9.23 4c.66-1.03 1.72-1.78 2.94-1.82 1.22-.04 2.55.53 3.02 2.97 0 0-.18 2.29 3.75 2.29 2.16 0 2.33 1.04 2.05 1.97-.22.75-.74 1.38-1.41 1.78-.93.56-2.42 1.88-1.29 4.28 1.02 2.15-.71 2.65-2.07 2.73-.8.05-1.58.38-2.15.95-.9.92-2.61 1.86-4.85-.28z"></path><ellipse cx="20.77" cy="28.51" fill="#ffcd0a" rx="1.66" ry="1.32"></ellipse><ellipse cx="16.75" cy="23.57" fill="#ffcd0a" rx="2.17" ry="1.73"></ellipse><path fill="#ff8d61" d="M55.9 15.71c-.65 0-1.16-.1-1.27-.13-.4-.09-.66-.49-.57-.89s.48-.66.89-.58c.35.07 1.22.17 1.91-.03-1.12-.38-2.48-1.35-2.99-2.38-.39-.79-.27-1.58.32-2.17.41-.41 1.54-1.22 3.2.06.48.37 1.42 1.21 1.81 2.27.66-.52 1.34-1.23 1.68-1.96.03-.06.05-.11.07-.17-1.72-.18-3.8-1.29-4.22-2.64-.2-.67.02-1.3.61-1.75.61-.45 1.29-.6 1.96-.44 1.68.41 2.8 2.67 2.92 2.92.04.06.07.12.1.19.1-.08.19-.19.25-.32.47-1.13.19-2.24-2.65-4.27a.742.742 0 0 1-.17-1.05c.24-.34.71-.42 1.05-.17 2.17 1.55 4.24 3.48 3.17 6.07-.26.63-.76 1.08-1.42 1.31-.05.33-.16.67-.33 1.01-.58 1.21-1.87 2.39-2.96 3.07a2.59 2.59 0 0 1-.95 1.36c-.74.56-1.67.69-2.41.69zm-.25-5.29a.54.54 0 0 0-.4.19c-.1.1-.15.18-.05.4.39.87 2.07 1.76 2.52 1.76h.01c.04-.01.08-.02.13-.04-.07-.68-.77-1.45-1.4-1.93-.36-.29-.62-.38-.81-.38zm3.11-4.06c-.14 0-.31.04-.52.2-.06.04-.08.08-.09.08 0 .29 1.07 1.24 2.55 1.55-.43-.75-1.13-1.66-1.77-1.81a.718.718 0 0 0-.17-.02z"></path><path fill="#653dc5" d="M36.26 33.67h-1.72c-.41 0-.75.34-.75.75s.34.75.75.75h1.72c.41 0 .75-.34.75-.75s-.34-.75-.75-.75zm4.01 1.5h1.72c.41 0 .75-.34.75-.75s-.34-.75-.75-.75h-1.72c-.41 0-.75.34-.75.75s.34.75.75.75z"></path><path fill="#fefdff" d="M37.86 42.98c.37.18.82.03 1.01-.34.49-.99 1.69-1.39 2.68-.9.37.18.82.03 1-.34.19-.37.03-.82-.34-1.01-.5-.25-1.03-.37-1.55-.37-1.29 0-2.53.71-3.14 1.94-.18.39-.03.84.34 1.02zM14.06 9.31a2.697 2.697 0 0 0-2.15-2.15c-.79-.14-1.59.07-2.2.58-.6.51-.95 1.26-.95 2.05 0 .41.34.75.75.75s.75-.34.75-.75c0-.35.15-.68.42-.9.27-.23.61-.32.97-.25.46.08.85.47.93.93.08.47-.11.93-.49 1.19-.88.6-1.41 1.63-1.41 2.75 0 .41.34.75.75.75s.75-.34.75-.75c0-.62.28-1.19.75-1.51.88-.6 1.32-1.63 1.13-2.69z"></path><circle cx="11.43" cy="16.01" r=".75" fill="#fefdff"></circle><path d="M50.67 48.14v-3.61c-1.43 3.13-4.57 5.3-8.23 5.3h-.64c-1.26 0-2.47-.23-3.6-.63v1.61c0 .17.01.34.03.5 1.13.33 2.33.52 3.57.52h.64c3.26.01 6.2-1.42 8.23-3.69z" opacity=".1"></path></svg>