<svg xmlns="http://www.w3.org/2000/svg" enable-background="new 0 0 5000 5000" viewBox="0 0 5000 5000" id="wearing-comfortable-clothes"><path fill="#44235f" d="M3611.575 532.692c-3.926 0-7.907-.938-11.612-2.914-78.608-41.942-160.468-79.728-243.304-112.306-12.703-4.996-18.95-19.343-13.954-32.045 4.994-12.702 19.342-18.951 32.044-13.954 84.601 33.272 168.201 71.861 248.481 114.696 12.042 6.425 16.596 21.396 10.171 33.438C3628.953 527.945 3620.408 532.692 3611.575 532.692zM1772.299 369.632c-10.431 0-20.127-6.656-23.51-17.118-4.2-12.987 2.925-26.919 15.912-31.118 86.54-27.981 175.628-51.225 264.791-69.085 13.379-2.677 26.406 5.995 29.086 19.379 2.681 13.383-5.995 26.406-19.378 29.086-87.311 17.49-174.549 40.25-259.292 67.651C1777.382 369.244 1774.819 369.632 1772.299 369.632zM3108.382 334.778c-2.098 0-4.229-.269-6.353-.833-85.891-22.786-174.231-40.875-262.567-53.765-13.506-1.971-22.857-14.517-20.887-28.023 1.971-13.506 14.516-22.862 28.023-20.887 90.195 13.161 180.398 31.632 268.104 54.9 13.193 3.5 21.051 17.032 17.551 30.225C3129.317 327.464 3119.317 334.778 3108.382 334.778zM2302.473 263.417c-12.725 0-23.532-9.765-24.602-22.673-1.128-13.603 8.985-25.544 22.587-26.671 65.311-5.415 131.69-8.161 197.296-8.161 25.21 0 50.868.411 76.263 1.221 13.643.436 24.349 11.848 23.913 25.49-.436 13.643-11.9 24.355-25.489 23.913-24.872-.793-50-1.196-74.687-1.196-64.248 0-129.254 2.689-193.212 7.992C2303.848 263.388 2303.157 263.417 2302.473 263.417zM2436.414 4988.233c-.234 0-.467-.003-.703-.01-60.555-1.69-121.73-5.701-181.826-11.92-30.272-3.134-60.847-6.876-90.876-11.123-13.515-1.912-22.92-14.417-21.009-27.932 1.911-13.514 14.417-22.919 27.931-21.01 29.423 4.161 59.381 7.828 89.042 10.898 58.868 6.092 118.795 10.021 178.117 11.678 13.644.381 24.396 11.75 24.015 25.394C2460.731 4977.618 2449.742 4988.233 2436.414 4988.233zM2707.073 4980.28c-12.682 0-23.474-9.704-24.593-22.573-1.183-13.599 8.882-25.58 22.479-26.763 88.741-7.718 177.964-20.676 265.191-38.515 13.372-2.736 26.43 5.889 29.165 19.261 2.735 13.373-5.889 26.431-19.261 29.165-89.077 18.218-180.191 31.45-270.812 39.331C2708.515 4980.25 2707.791 4980.28 2707.073 4980.28zM1900.87 4912.425c-2.055 0-4.141-.258-6.222-.798-88.195-22.876-175.847-51.067-260.522-83.79-12.731-4.921-19.064-19.23-14.144-31.962 4.919-12.731 19.227-19.062 31.961-14.144 82.915 32.042 168.748 59.648 255.115 82.052 13.212 3.427 21.144 16.915 17.717 30.127C1921.888 4905.041 1911.858 4912.425 1900.87 4912.425zM1396.494 4717.438c-3.881 0-7.82-.917-11.493-2.851-80.428-42.347-159.266-89.886-234.326-141.297-11.261-7.713-14.137-23.095-6.424-34.355 7.714-11.26 23.094-14.136 34.355-6.424 73.489 50.336 150.678 96.88 229.421 138.34 12.078 6.358 16.713 21.305 10.354 33.382C1413.958 4712.637 1405.375 4717.438 1396.494 4717.438zM950.456 4411.997c-5.75 0-11.525-1.995-16.206-6.065-68.398-59.476-134.291-123.718-195.849-190.94-9.218-10.066-8.53-25.699 1.536-34.917 10.067-9.219 25.7-8.529 34.917 1.536 60.298 65.847 124.839 128.771 191.829 187.022 10.3 8.956 11.389 24.566 2.433 34.866C964.229 4409.118 957.361 4411.997 950.456 4411.997zM585.19 4013.334c-7.633 0-15.16-3.523-19.998-10.166-53.692-73.721-103.598-151.092-148.329-229.964-6.733-11.873-2.567-26.956 9.306-33.689 11.871-6.734 26.956-2.569 33.689 9.306 43.812 77.25 92.693 153.034 145.289 225.248 8.035 11.033 5.605 26.491-5.428 34.527C595.329 4011.793 590.236 4013.334 585.19 4013.334zM318.524 3542.873c-9.625 0-18.775-5.658-22.767-15.08-35.498-83.784-66.448-170.499-91.991-257.737-3.835-13.099 3.674-26.827 16.774-30.663 13.096-3.838 26.827 3.674 30.663 16.774 25.008 85.411 55.311 170.312 90.066 252.345 5.324 12.567-.547 27.072-13.115 32.396C325.008 3542.241 321.739 3542.873 318.524 3542.873zM166.552 3023.987c-11.824 0-22.277-8.513-24.333-20.562-15.262-89.472-25.49-180.954-30.4-271.908-.735-13.629 9.717-25.274 23.346-26.01 13.64-.76 25.275 9.716 26.011 23.346 4.808 89.067 14.824 178.65 29.769 266.261 2.295 13.454-6.751 26.222-20.207 28.518C169.331 3023.872 167.932 3023.987 166.552 3023.987zM137.314 2484.087c-.495 0-.991-.015-1.492-.044-13.625-.811-24.013-12.514-23.202-26.139 2.105-35.362 5.027-71.212 8.685-106.554 5.705-55.127 13.411-110.718 22.904-165.23 2.341-13.446 15.138-22.445 28.588-20.107 13.446 2.342 22.449 15.141 20.107 28.587-9.298 53.392-16.846 107.842-22.434 161.839-3.584 34.63-6.447 69.756-8.509 104.403C161.18 2473.965 150.291 2484.087 137.314 2484.087zM230.185 1951.361c-2.315 0-4.667-.328-7.001-1.016-13.092-3.86-20.575-17.603-16.715-30.694 25.731-87.263 56.792-173.936 92.318-257.609 5.334-12.564 19.846-18.422 32.407-13.09 12.563 5.334 18.424 19.844 13.09 32.407-34.79 81.939-65.207 166.815-90.405 252.271C250.707 1944.389 240.859 1951.361 230.185 1951.361zM3795.829 4602.954c-8.056 0-15.952-3.932-20.695-11.173-7.48-11.417-4.289-26.736 7.128-34.216 61.04-39.992 120.957-83.385 178.086-128.973 10.668-8.514 26.218-6.768 34.732 3.902 8.514 10.669 6.767 26.219-3.902 34.732-58.329 46.545-119.505 90.85-181.828 131.682C3805.174 4601.646 3800.475 4602.954 3795.829 4602.954zM4177.518 4291.97c-6.312 0-12.621-2.401-17.445-7.208-9.668-9.635-9.695-25.282-.061-34.95 62.903-63.125 122.781-130.505 177.97-200.27 8.468-10.705 24.009-12.52 34.716-4.05 10.704 8.469 12.518 24.011 4.05 34.716-56.354 71.236-117.494 140.038-181.724 204.493C4190.196 4289.546 4183.856 4291.97 4177.518 4291.97zM4512.874 3867.954c-4.44 0-8.936-1.196-12.988-3.706-11.604-7.187-15.186-22.42-8-34.023 46.884-75.706 89.868-154.95 127.759-235.532 5.809-12.352 20.53-17.656 32.882-11.849 12.352 5.809 17.656 20.529 11.849 32.882-38.694 82.289-82.589 163.213-130.466 240.522C4529.232 3863.8 4521.147 3867.954 4512.874 3867.954zM4742.989 3378.649c-2.614 0-5.272-.418-7.887-1.298-12.937-4.354-19.894-18.371-15.539-31.307 28.392-84.35 52.216-171.314 70.811-258.479 2.848-13.348 15.972-21.863 29.326-19.014 13.349 2.848 21.861 15.978 19.014 29.326-18.986 89.003-43.313 177.804-72.305 263.935C4762.936 3372.134 4753.309 3378.649 4742.989 3378.649zM4855.899 2849.763c-.796 0-1.599-.038-2.408-.116-13.586-1.314-23.534-13.393-22.221-26.979 7.281-75.298 10.974-151.644 10.974-226.915 0-13.549-.12-27.303-.357-40.881-.238-13.647 10.631-24.903 24.278-25.142 13.641-.271 24.903 10.63 25.142 24.278.242 13.864.365 27.909.365 41.744 0 76.854-3.769 154.8-11.202 231.673C4879.234 2840.202 4868.477 2849.763 4855.899 2849.763zM4846.271 2309.117c-12.196 0-22.808-9.027-24.466-21.448-11.777-88.248-28.841-176.77-50.718-263.108-3.353-13.231 4.655-26.675 17.887-30.027 13.225-3.353 26.674 4.655 30.027 17.887 22.343 88.176 39.77 178.584 51.798 268.711 1.806 13.529-7.699 25.96-21.228 27.766C4848.463 2309.045 4847.36 2309.117 4846.271 2309.117z"></path><circle cx="2500.065" cy="2597.534" r="1739.698" fill="#c2f0cf" transform="rotate(-45.001 2500.047 2597.576)"></circle><path fill="#fff" d="M2470.836,3742.328l-425.469-14.756c-52.434,44.656-121.904,69.311-195.982,63.377
					l-469.078-37.574l58.195,4.751l-370.026-29.64c-48.201-3.861-84.145-46.065-80.284-94.266v0
					c3.861-48.201,46.066-84.145,94.266-80.284l370.026,29.64l-0.005,0.056l-519.688-41.629
					c-48.201-3.861-84.145-46.065-80.284-94.266v0c3.861-48.2,46.065-84.145,94.266-80.284l519.688,41.628l-0.004,0.056
					l-644.407-51.619c-48.201-3.861-84.145-46.065-80.284-94.266v0c3.861-48.201,46.065-84.145,94.266-80.284l644.407,51.619
					l-0.004,0.056l-519.689-41.629c-48.201-3.861-84.145-46.065-80.284-94.266v0c3.861-48.2,46.065-84.145,94.266-80.284
					l519.688,41.629l-58.164-5.142l238.854,19.099c99.769,7.992-90.047-96.615-227.447-152.33
					c-40.752-16.525-63.973-61.83-49.703-103.424c14.871-43.346,62.081-65.845,104.826-50.517
					c73.572,26.382,189.932,66.91,295.841,98.633c125.372,37.553,265.367,138.117,327.975,268.676l331.473,36.726"></path><path fill="#44235f" d="M1871.354,3816.543c-7.951,0.001-15.931-0.317-23.943-0.96l-408.767-32.743
					c-0.703,0.005-1.405-0.022-2.115-0.08l-370.026-29.641c-29.892-2.394-57.063-16.285-76.507-39.116
					c-19.444-22.83-28.834-51.865-26.439-81.758c1.813-22.637,10.221-43.713,24.109-61.055l-56.848-4.554
					c-61.707-4.943-107.888-59.167-102.946-120.874c1.813-22.636,10.22-43.713,24.109-61.055l-31.904-2.556
					c-61.708-4.943-107.889-59.167-102.946-120.875c2.395-29.892,16.286-57.062,39.116-76.506
					c22.83-19.444,51.871-28.842,81.758-26.439l31.904,2.555c-10.951-19.331-15.896-41.477-14.082-64.113
					c2.395-29.893,16.286-57.062,39.117-76.507c22.83-19.443,51.866-28.842,81.758-26.438l456.627,36.577
					c1.595-0.188,3.232-0.222,4.894-0.091l205.373,16.422c-12.599-7.992-28.958-17.63-49.853-28.93
					c-47.144-25.493-105.226-52.852-155.37-73.186c-25.553-10.361-46.289-29.657-58.388-54.333
					c-12.465-25.423-14.385-53.839-5.404-80.014c9.341-27.227,28.735-49.07,54.611-61.506c25.846-12.422,54.944-13.934,81.933-4.255
					c77.112,27.652,190.815,67.139,294.591,98.223c66.807,20.011,136.322,56.851,195.741,103.733
					c61.176,48.27,109.755,105.267,141.218,165.533l318.119,35.247c13.566,1.503,23.345,13.719,21.842,27.285
					c-1.502,13.566-13.719,23.344-27.285,21.842l-331.474-36.727c-8.479-0.939-15.874-6.186-19.562-13.877
					c-62.665-130.679-202.247-222.579-312.782-255.688c-104.819-31.396-219.416-71.19-297.092-99.045
					c-14.438-5.178-30.008-4.369-43.838,2.277c-13.859,6.661-24.254,18.379-29.269,32.996c-9.643,28.105,6.333,60.629,35.613,72.502
					c57.948,23.497,123.213,54.658,174.583,83.355c27.462,15.341,49.13,28.966,64.404,40.497
					c18.087,13.653,35.908,30.435,30.949,51.368c-1.347,5.688-6.611,19.386-26.333,23.692c-7.202,1.572-15.914,1.877-27.416,0.954
					l-175.747-14.052c-1.61,0.192-3.265,0.229-4.943,0.095l-519.689-41.629c-16.725-1.333-32.983,3.915-45.763,14.799
					c-12.779,10.884-20.554,26.092-21.895,42.823c-1.34,16.732,3.915,32.985,14.798,45.764
					c10.302,12.096,24.481,19.709,40.158,21.625l522.359,41.843c13.595,1.089,23.738,12.984,22.664,26.58
					c-0.516,6.539-3.613,12.632-8.604,16.889c-4.991,4.256-11.474,6.381-18.01,5.856l-519.689-41.628
					c-1.195-0.097-2.387-0.211-3.573-0.343l-121.141-9.704c-16.736-1.334-32.984,3.915-45.763,14.799
					c-12.779,10.884-20.554,26.093-21.895,42.824c-2.767,34.54,23.082,64.891,57.622,67.658l121.146,9.704
					c1.192,0.058,2.382,0.135,3.578,0.23l519.688,41.628c13.594,1.089,23.737,12.984,22.664,26.58
					c-0.516,6.539-3.613,12.632-8.604,16.889c-4.992,4.256-11.474,6.376-18.01,5.857l-522.359-41.843
					c-15.788-0.602-30.991,4.653-43.088,14.957c-12.779,10.884-20.555,26.092-21.895,42.823
					c-2.767,34.539,23.083,64.891,57.623,67.658l146.076,11.701c1.195,0.058,2.392,0.135,3.591,0.231l370.026,29.64
					c13.582,1.087,23.721,12.962,22.667,26.547c-0.508,6.545-3.602,12.648-8.594,16.911c-4.994,4.264-11.486,6.396-18.023,5.868
					l-372.708-29.854c-15.783-0.61-30.983,4.657-43.077,14.957c-12.779,10.884-20.555,26.092-21.895,42.824
					c-1.34,16.731,3.916,32.983,14.799,45.763c10.883,12.778,26.092,20.554,42.823,21.894l309.718,24.811
					c0.689-0.004,1.403,0.021,2.113,0.08l469.078,37.574c65.074,5.212,128.283-15.228,177.984-57.557
					c4.696-3.999,10.728-6.082,16.881-5.884l425.47,14.756c13.641,0.474,24.316,11.915,23.843,25.556
					c-0.473,13.641-11.908,24.29-25.556,23.843l-416.122-14.432C2001.573,3794.278,1937.805,3816.541,1871.354,3816.543z"></path><polyline fill="#ff916b" points="3455.853 3790.666 2549.157 4011.622 2376.882 3423.403 2334.549 3277.393 2298.218 3153.342 3341.631 3265.604"></polyline><path fill="#44235f" d="M2549.142 4036.34c-10.732 0-20.558-7.034-23.702-17.772l-172.275-588.219-42.351-146.074-36.313-123.985c-2.319-7.919-.533-16.473 4.76-22.802 5.294-6.329 13.396-9.593 21.601-8.717l1043.413 112.261c13.571 1.46 23.389 13.646 21.929 27.216s-13.654 23.384-27.216 21.929l-1006.663-108.307 25.942 88.577 42.351 146.074 165.622 565.5 883.762-215.366c13.266-3.229 26.632 4.899 29.863 18.16 3.231 13.262-4.899 26.632-18.16 29.863l-906.696 220.955C2553.047 4036.11 2551.078 4036.34 2549.142 4036.34zM1992.673 3380.517c-.37 0-.739-.009-1.111-.025-71.601-3.169-136.704-37.394-193.501-101.723-44.075-49.921-84.212-119.546-119.297-206.941-5.085-12.667 1.062-27.057 13.728-32.142 12.665-5.086 27.057 1.061 32.142 13.728 32.977 82.146 70.148 146.96 110.48 192.641 48.247 54.646 100.137 82.469 158.633 85.059 13.636.604 24.201 12.146 23.597 25.782C2016.757 3370.157 2005.818 3380.517 1992.673 3380.517z"></path><g><path fill="#fff" d="M3230.278,4161.829l-9.336-18.852c-18.873-60.483-54.078-110.303-97.799-173.36
				c-47.271-68.281-171.167-233.219-279.024-183.118c-100.288,46.595-172.485,82.24-243.517,114.741
				c-41.299,18.951-59.427,68.085-39.77,109.53c18.85,39.66,67.134,55.849,107.878,39.209
				c46.301-18.943,100.569-38.003,149.507-52.649c96.051-28.639,83.379,88.201-57.054,75.789l-238.861-19.136l56.433,4.197
				l-183.964-15.698c-10.206-0.794-19.962,0.127-29.301,2.604c-34.873,9.249-61.788,39.716-64.88,77.696
				c-3.883,48.189,31.999,90.494,80.188,94.377l183.923,15.544l11.829,5.028l-265.461-21.413c-10.21-0.791-20.121,0.17-29.46,2.647
				c-34.873,9.249-61.788,39.716-64.724,77.656c-3.884,48.187,32.002,90.493,80.146,94.221l98.056,7.822
				c-7.304,0.102-14.359,1.142-21.212,2.959c-34.873,9.249-61.784,39.715-64.876,77.695c-3.883,48.189,31.999,90.494,80.188,94.377
				l55.855,4.517c3.008,0.036,5.86,0.112,8.909,0.304l108.225,8.457l-13.561-0.236l-103.573-8.525
				c-7.11,0.22-14.01,1.216-20.548,2.95c-34.873,9.249-61.632,39.675-64.724,77.656c-3.884,48.186,32.113,90.297,80.302,94.18
				l102.806,9.394l392.602,27.686c84.248,6.651,162.546-26.112,216.624-82.948l0.715,0.812l278.489,17.123l2.641-50.357
				l8.969-162.849l18.437-336.994L3230.278,4161.829z M2395.597,4398.696c2.499,0.004,5.043,0.162,7.583,0.32l159.473,13.197
				L2395.597,4398.696z"></path><path fill="#44235f" d="M2562.184 4611.687c-.146 0-.292-.001-.438-.004l-13.561-.236c-.533-.009-1.065-.035-1.597-.079l-103.573-8.524c-13.267-1.092-23.286-12.496-22.659-25.794.622-13.195 11.506-23.551 24.681-23.551.101 0 .201 0 .302.002 3.915.047 7.048.155 10.16.351.125.008.251.017.377.026l108.225 8.457c13.316 1.04 23.397 12.475 22.76 25.817C2586.231 4601.348 2575.344 4611.687 2562.184 4611.687zM2562.68 4436.929c-.669 0-1.342-.027-2.021-.082l-167.055-13.518c-13.228-1.07-23.249-12.396-22.7-25.655.548-13.242 11.444-23.692 24.692-23.692.017 0 .032 0 .049 0 3.265.006 6.349.198 9.071.368.167.01.334.022.501.036l159.473 13.197c13.594 1.125 23.706 13.051 22.594 26.646C2586.227 4427.145 2575.416 4436.929 2562.68 4436.929z"></path><polyline fill="#ff916b" points="3461.358 4174.864 3584.679 4181.814 3733.694 4743.683 3431.31 4725.063"></polyline><path fill="#44235f" d="M3431.332,4749.778c-0.437,0-0.875-0.012-1.315-0.035c-13.631-0.714-24.101-12.344-23.386-25.974
				l2.641-50.357l8.972-162.914l18.438-336.984c0.745-13.627,12.403-24.088,26.027-23.326c13.628,0.745,24.072,12.398,23.326,26.027
				l-18.438,336.993l-8.969,162.857l-2.638,50.292C3455.299,4739.547,3444.387,4749.778,3431.332,4749.778z"></path></g><g><path fill="#44235f" d="M2957.308,4815.599c-7.859,0-15.755-0.312-23.672-0.944l-392.439-27.633
				c-0.165-0.012-0.331-0.025-0.496-0.04l-102.776-9.322c-61.645-5.006-107.763-59.199-102.824-120.865
				c1.906-23.798,11.1-45.871,26.29-63.694c-48.186-15.72-81.294-62.985-77.07-115.714c1.805-22.528,10.14-43.512,23.911-60.806
				l-13.116-1.055c-29.885-2.394-57.056-16.285-76.5-39.116c-19.443-22.83-28.833-51.865-26.438-81.758s16.286-57.062,39.116-76.507
				c17.999-15.33,39.856-24.409,62.949-26.393c-13.409-20.218-20.404-44.892-18.321-70.895
				c2.395-29.893,16.286-57.063,39.116-76.507c22.83-19.444,51.867-28.848,81.759-26.438c0.037,0.003,0.073,0.006,0.11,0.009
				l146.494,12.395c-1.747-2.901-3.359-5.902-4.828-8.994c-12.348-26.003-13.741-55.181-3.926-82.159
				c9.806-26.947,29.561-48.363,55.628-60.303c35.764-16.383,72.711-33.999,111.827-52.65
				c38.399-18.309,81.922-39.061,131.605-62.119c31.059-14.416,65.019-15.447,100.933-3.07
				c28.067,9.674,57.633,27.829,87.876,53.962c38.926,33.636,79.626,80.95,120.971,140.628l3.749,5.41
				c41.353,59.663,77.123,111.274,96.773,172.71l2.053,4.197l339.943,19.168c13.627,0.769,24.052,12.438,23.283,26.066
				c-0.77,13.627-12.415,24.038-26.066,23.283l-354.396-19.983c-8.925-0.503-16.883-5.787-20.811-13.818l-9.215-18.845
				c-0.546-1.117-1.007-2.273-1.379-3.46c-17.271-55.06-49.724-101.882-90.812-161.162l-3.755-5.418
				c-38.975-56.259-76.878-100.46-112.657-131.376c-53.17-45.945-98.821-60.566-135.683-43.458
				c-49.451,22.951-92.851,43.645-131.141,61.901c-39.293,18.735-76.406,36.432-112.517,52.972
				c-13.946,6.389-24.517,17.848-29.763,32.266c-5.258,14.45-4.502,30.096,2.127,44.056c12.745,26.841,46.903,38.936,76.142,26.967
				c46.621-19.089,101.925-38.567,151.73-53.44c51.624-15.416,75.302,4.959,83.087,14.435c12.83,15.617,14.293,37.655,3.815,57.515
				c-14.114,26.751-51.741,53.157-116.297,53.161c-7.184,0-14.691-0.327-22.547-1.017l-238.753-19.091
				c-2.011-0.161-3.945-0.559-5.78-1.162l-121.831-10.309c-16.706-1.315-32.939,3.934-45.703,14.804
				c-12.779,10.884-20.555,26.092-21.895,42.824c-2.767,34.54,23.082,64.891,57.622,67.658c0.037,0.003,0.073,0.006,0.11,0.009
				l183.932,15.562c2.619,0.222,5.186,0.859,7.604,1.89l11.8,5.027c11.148,4.749,17.208,16.881,14.311,28.646
				c-2.898,11.767-13.897,19.693-25.978,18.725l-265.494-21.346c-16.721-1.348-32.976,3.916-45.755,14.799
				c-12.779,10.884-20.554,26.092-21.895,42.823c-1.341,16.732,3.915,32.984,14.798,45.764
				c10.884,12.778,26.092,20.554,42.823,21.895l97.241,7.817c2.952,0.007,5.912,0.129,8.886,0.367l159.427,13.166
				c13.593,1.122,23.706,13.043,22.598,26.637c-1.108,13.595-13.03,23.7-26.612,22.628l-0.067-0.006l-165.984-13.345
				c-14.307,0.35-27.994,5.555-39.07,14.988c-12.779,10.884-20.555,26.092-21.895,42.824c-2.767,34.54,23.083,64.891,57.622,67.658
				l54.45,4.496c3.424-0.037,6.86,0.085,10.312,0.361l108.124,8.511c13.305,1.047,23.375,12.469,22.747,25.799
				c-0.621,13.201-11.51,23.553-24.68,23.553c-0.13,0-0.259-0.001-0.39-0.003l-13.553-0.21c-0.551-0.009-1.102-0.035-1.651-0.081
				l-102.289-8.447c-13.962,0.58-27.228,5.757-38.018,14.947c-12.779,10.884-20.554,26.092-21.895,42.824
				c-2.767,34.539,23.083,64.891,57.623,67.658c0.086,0.007,0.172,0.014,0.259,0.021l102.665,9.312l392.319,27.625
				c0.079,0.006,0.158,0.012,0.237,0.019c73.846,5.916,145.527-21.506,196.665-75.233c4.52-4.75,10.742-7.508,17.296-7.668
				c2.656-0.079,5.258,0.295,7.744,1.045l575.98,35.497c13.623,0.839,23.986,12.563,23.146,26.188
				c-0.84,13.623-12.547,23.982-26.188,23.146l-571.05-35.192C3106.041,4786.306,3033.382,4815.598,2957.308,4815.599z
				 M2745.715,4047.078l17.477,1.397c0.066,0.006,0.133,0.012,0.2,0.017c57.146,5.045,80.529-13.979,86.334-19.927
				c4.336-4.445,5.56-7.935,5.792-9.404c-2.494-1.392-11.707-3.702-30.282,1.845
				C2799.541,4028.679,2772.345,4037.612,2745.715,4047.078z"></path></g><g><path fill="#fff" d="M2710.156,2737.32l-1.072-681.809c-0.331-210.743,169.285-381.762,378.633-381.762h859.257
				c29.777-5.022,59.249-10.626,88.147-17.013c53.986-12.06,106.019-26.776,153.979-44.293
				c47.604-17.412,91.607-38.485,125.587-60.053c18.44-10.346,39.444-30.575,59.102-63.992
				c19.592-33.061,36.446-77.184,48.805-125.953c12.447-48.872,20.755-102.513,25.364-157.613
				c2.306-27.557,3.704-55.535,4.222-83.463c0.255-13.954,0.273-27.902,0.077-41.622l-1.059-36.873l-0.516-17.571
				c-2.562-101.123,72.388-189.603,174.985-200.563c106.945-11.425,201.806,70.448,215.415,177.84l3.115,24.582l2.946,28.028
				c1.762,18.484,3.2,36.774,4.337,55.073c2.261,36.576,3.377,73.162,3.267,110.089c-0.292,73.829-5.271,148.987-18.248,226.643
				c-13.231,77.541-33.989,158.053-72.268,240.326c-19.318,41.016-42.974,82.391-73.184,122.226
				c-29.888,39.823-66.64,77.897-108.91,110.726c-70.013,54.118-140.245,93.333-210.588,126.326
				c-70.233,32.566-140.206,58.373-209.928,80.127c-12.507,3.869-25,7.474-37.496,11.102v599.492"></path><path fill="#44235f" d="M2710.155,2761.341c-13.25,0-24-10.729-24.021-23.983l-1.072-681.809
				c-0.086-54.966,10.584-108.296,31.714-158.51c20.406-48.495,49.642-92.002,86.894-129.312
				c36.938-36.997,79.914-66.042,127.732-86.329c49.533-21.015,102.125-31.67,156.314-31.67h857.238
				c30.569-5.184,58.388-10.568,84.981-16.447c54.81-12.244,105.604-26.85,150.922-43.402
				c45.558-16.663,88.517-37.181,120.955-57.771c0.367-0.233,0.74-0.456,1.119-0.668c9.849-5.525,29.46-20.046,50.151-55.221
				c18.185-30.686,34.154-72.045,46.225-119.674c11.715-45.995,20.026-97.702,24.711-153.714c2.238-26.73,3.632-54.287,4.144-81.906
				c0.245-13.385,0.271-27.072,0.078-40.678l-1.569-54.237c-1.4-55.279,17.742-108.697,53.898-150.511
				c36.503-42.215,87.127-68.724,142.546-74.644c57.842-6.18,114.908,11.518,160.679,49.829
				c44.908,37.589,73.717,90.461,81.119,148.876l3.115,24.582c0.021,0.169,0.041,0.339,0.059,0.509l2.945,28.028
				c0.009,0.077,0.017,0.153,0.023,0.23c1.768,18.533,3.248,37.328,4.4,55.864c2.308,37.343,3.422,74.905,3.312,111.65
				c-0.325,82.277-6.401,157.677-18.575,230.53c-16.01,93.82-39.577,172.122-74.183,246.5c-0.016,0.034-0.031,0.068-0.048,0.102
				c-22.229,47.199-47.009,88.571-75.758,126.484c-32.483,43.268-70.612,82.027-113.332,115.205
				c-63.317,48.943-131.66,89.956-215.123,129.103c-0.031,0.015-0.063,0.03-0.096,0.045
				c-65.856,30.537-135.489,57.119-212.878,81.265c-6.894,2.133-13.799,4.192-20.629,6.197v581.466
				c0,13.267-10.755,24.021-24.021,24.021s-24.021-10.755-24.021-24.021v-599.492c0-10.687,7.061-20.089,17.324-23.069l2.933-0.851
				c11.226-3.258,22.833-6.626,34.161-10.131c75.292-23.492,142.993-49.328,206.912-78.966
				c80.152-37.601,145.619-76.86,206.013-123.544c39.323-30.541,74.459-66.262,104.389-106.14c0.023-0.032,0.048-0.064,0.071-0.096
				c26.698-35.204,49.78-73.766,70.562-117.884c32.742-70.384,55.098-144.802,70.351-234.194
				c11.729-70.189,17.591-143.061,17.905-222.697c0.106-35.69-0.977-72.207-3.221-108.512c-1.117-17.962-2.552-36.186-4.264-54.156
				l-2.906-27.659l-3.084-24.33c-12.215-96.386-97.001-166.799-189.032-156.975c-88.35,9.438-155.785,86.777-153.523,176.069
				l1.573,54.363c0.003,0.115,0.006,0.23,0.007,0.346c0.203,14.176,0.177,28.443-0.078,42.404
				c-0.531,28.662-1.979,57.267-4.303,85.028c-4.905,58.652-13.661,113.002-26.023,161.538c-13.177,52-30.96,97.748-51.418,132.27
				c-19.665,33.431-42.98,58.458-67.423,72.361c-35.686,22.583-80.509,44.013-129.681,61.998
				c-47.282,17.27-100.099,32.468-156.992,45.177c-28.015,6.192-57.237,11.833-89.39,17.257c-1.319,0.223-2.656,0.334-3.995,0.334
				h-859.257c-94.351,0-183.152,36.899-250.049,103.9c-67.579,67.686-104.713,157.821-104.562,253.802l1.072,681.808
				c0.021,13.268-10.717,24.039-23.983,24.06C2710.182,2761.341,2710.167,2761.341,2710.155,2761.341z"></path><ellipse cx="3591.351" cy="1110.148" fill="#fff" rx="442.475" ry="445.427"></ellipse><path fill="#44235f" d="M3591.351,1579.596c-62.986,0-124.099-12.423-181.642-36.924
				c-55.557-23.656-105.444-57.513-148.277-100.631c-42.821-43.107-76.443-93.309-99.93-149.208
				c-24.317-57.876-36.647-119.341-36.647-182.686s12.33-124.809,36.647-182.685c23.486-55.9,57.108-106.101,99.93-149.208
				c42.833-43.118,92.721-76.975,148.277-100.631c57.543-24.501,118.655-36.924,181.642-36.924
				c62.985,0,124.099,12.423,181.642,36.924c55.558,23.656,105.445,57.513,148.278,100.631
				c42.821,43.107,76.442,93.309,99.93,149.208c24.317,57.876,36.647,119.34,36.647,182.685s-12.33,124.809-36.647,182.686
				c-23.487,55.9-57.108,106.101-99.93,149.208c-42.833,43.118-92.721,76.975-148.278,100.631
				C3715.449,1567.173,3654.336,1579.596,3591.351,1579.596z M3591.351,688.742c-230.736,0-418.453,189.042-418.453,421.405
				s187.717,421.406,418.453,421.406s418.454-189.042,418.454-421.406S3822.087,688.742,3591.351,688.742z"></path><line x1="3058.575" x2="3058.575" y1="2737.32" y2="2137.827" fill="#fff"></line><path fill="#44235f" d="M3058.574,2761.341c-13.267,0-24.021-10.755-24.021-24.021v-599.492
				c0-13.267,10.755-24.021,24.021-24.021s24.021,10.755,24.021,24.021v599.492
				C3082.596,2750.586,3071.841,2761.341,3058.574,2761.341z"></path><g><path fill="#ffd27a" d="M3054.052,2753.74v-370.916h-338.08l-6.393-0.001l-0.554-327.345
				c-0.326-210.729,169.375-381.749,378.624-381.749h859.391c29.657-4.94,59.15-10.539,88.144-16.967
				c53.877-12.027,105.944-26.862,153.888-44.32c30.153-11.038,58.986-23.564,84.686-36.91l164.27,437.605
				c-22.08,12.027-44.324,23.065-66.399,33.443c-70.353,32.63-140.211,58.326-210.07,80.08c-12.522,3.95-24.879,7.578-37.401,11.198
				v615.882"></path><path fill="#44235f" d="M4124.157,2778.454c-13.649,0-24.714-11.064-24.714-24.714v-615.882
				c0-11.005,7.277-20.685,17.85-23.742c11.675-3.375,24.217-7.047,36.829-11.026c75.62-23.548,143.316-49.348,207.039-78.899
				c16.574-7.792,31.811-15.291,46.099-22.695l-147.059-391.753c-19.663,9.178-40.633,17.854-62.634,25.907
				c-47.98,17.471-100.789,32.684-156.999,45.232c-27.968,6.2-58.057,11.992-89.469,17.225c-1.342,0.223-2.7,0.336-4.061,0.336
				h-859.391c-94.136,0-182.755,36.833-249.533,103.714c-67.456,67.561-104.524,157.512-104.376,253.283l0.512,302.669h319.802
				c13.649,0,24.714,11.065,24.714,24.714v370.917c0,13.649-11.064,24.714-24.714,24.714s-24.714-11.064-24.714-24.714v-346.202
				l-319.762-0.001c-13.632-0.001-24.688-11.04-24.712-24.672l-0.554-327.345c-0.086-55.054,10.606-108.469,31.778-158.765
				c20.444-48.57,49.731-92.147,87.048-129.521c37.006-37.063,80.057-66.162,127.956-86.488
				c49.617-21.055,102.29-31.731,156.555-31.731h857.34c29.823-5,58.36-10.509,84.847-16.381
				c54.098-12.076,104.84-26.686,150.781-43.414c29.576-10.827,57.095-22.816,81.75-35.62c6.273-3.258,13.642-3.674,20.243-1.142
				c6.601,2.533,11.801,7.77,14.285,14.389l164.271,437.605c4.33,11.534-0.497,24.496-11.316,30.389
				c-20.533,11.185-42.681,22.341-67.706,34.105c-0.039,0.018-0.077,0.036-0.116,0.054
				c-65.743,30.493-135.456,57.072-213.121,81.256c-6.751,2.13-13.465,4.169-20.034,6.122v597.362
				C4148.871,2767.39,4137.807,2778.454,4124.157,2778.454z"></path></g><path fill="#44235f" d="M4438.029,2037.166c-9.724,0-18.874-5.946-22.493-15.586l-164.267-437.604
			c-4.662-12.42,1.627-26.269,14.048-30.931c12.418-4.664,26.269,1.627,30.931,14.047l164.267,437.604
			c4.662,12.42-1.627,26.269-14.047,30.931C4443.687,2036.671,4440.834,2037.166,4438.029,2037.166z"></path><g><line x1="3041.131" x2="2709.046" y1="2382.824" y2="2382.824" fill="#fff"></line><path fill="#44235f" d="M3041.131,2406.845h-332.085c-13.267,0-24.021-10.755-24.021-24.021s10.755-24.021,24.021-24.021
				h332.085c13.267,0,24.021,10.755,24.021,24.021S3054.397,2406.845,3041.131,2406.845z"></path></g></g><g><path fill="#44235f" d="M1832.992,542.302c-3.356,0-6.767-0.688-10.032-2.14l-317.872-141.411
			c-4.711-2.111-10.067-2.105-14.748-0.015L1187.114,533.65c-12.47,5.548-27.077-0.063-32.626-12.534
			c-5.548-12.471,0.063-27.078,12.534-32.626l303.194-134.899c17.476-7.806,37.541-7.803,55.02,0.024l317.816,141.386
			c12.471,5.548,18.083,20.155,12.535,32.626C1851.491,536.833,1842.458,542.301,1832.992,542.302z"></path><line x1="1497.713" x2="1497.713" y1="362.378" y2="260.243" fill="#fff"></line><path fill="#44235f" d="M1497.713,387.091c-13.649,0-24.714-11.064-24.714-24.714V260.243
				c0-13.649,11.064-24.714,24.714-24.714s24.714,11.065,24.714,24.714v102.134C1522.427,376.027,1511.363,387.091,1497.713,387.091
				z"></path><path fill="#fff" d="M1400.977,192.491c-7.384-14.619-11.527-31.162-11.527-48.674
				c0-59.788,48.47-108.262,108.262-108.262c59.793,0,108.263,48.474,108.263,108.262c0,59.794-48.47,108.268-108.263,108.268"></path><path fill="#44235f" d="M1497.712,276.8c-13.649,0-24.714-11.064-24.714-24.714s11.064-24.714,24.714-24.714
				c46.069,0,83.55-37.482,83.55-83.555c0-46.068-37.48-83.548-83.55-83.548c-46.068,0-83.548,37.479-83.548,83.548
				c0,13.247,2.985,25.874,8.874,37.531c6.153,12.184,1.265,27.048-10.918,33.202c-12.184,6.154-27.048,1.265-33.202-10.918
				c-9.277-18.369-14.181-39.053-14.181-59.815c0-73.323,59.653-132.976,132.976-132.976c73.324,0,132.978,59.652,132.978,132.976
				C1630.69,217.144,1571.037,276.8,1497.712,276.8z"></path><g><path fill="#50e4ee" d="M1949.242,508.911l101.405,42.831c252.529,88.444,357.131,212.074,429.298,331.382l202.52,378.046
				l-347.257,183.844l-136.773-245.127h-6.21v1143.906H823.622V1179.455l-7.062,20.426l-136.773,245.127L332.53,1261.164
				l249.442-465.619c36.856-68.807,96.181-122.909,168.113-153.287l315.683-133.332l99.888-36.448
				c42.197,172.231,179.436,298.439,342.21,298.439c165.283,0,304.244-130.091,344.106-306.404l95.131,40.851"></path><path fill="#44235f" d="M2192.226,2368.508H823.622c-13.649,0-24.714-11.065-24.714-24.714V1282.238l-97.54,174.812
				c-6.546,11.734-21.27,16.087-33.145,9.8l-347.257-183.844c-5.812-3.077-10.157-8.342-12.076-14.632
				c-1.918-6.29-1.251-13.084,1.854-18.88l249.441-465.619c39.393-73.543,103.419-131.923,180.284-164.384l315.682-133.332
				c0.377-0.16,0.759-0.31,1.145-0.45l99.887-36.448c6.6-2.407,13.912-1.894,20.11,1.415c6.197,3.309,10.694,9.098,12.366,15.921
				c40.333,164.627,171.185,279.605,318.206,279.605c150.188,0,281.777-118.076,320-287.139c1.619-7.162,6.339-13.233,12.881-16.568
				c6.542-3.335,14.229-3.589,20.976-0.691l95.131,40.851c3.479,1.494,6.439,3.692,8.786,6.355l93.913,39.667
				c118.471,41.569,213.146,93.379,289.409,158.373c75.489,64.335,120.954,131.745,152.129,183.284
				c0.222,0.368,0.435,0.742,0.638,1.121L2704.25,1249.5c3.104,5.796,3.772,12.591,1.854,18.881
				c-1.918,6.289-6.264,11.555-12.075,14.632l-347.257,183.843c-11.875,6.289-26.598,1.935-33.146-9.8l-96.687-173.284v1060.021
				C2216.939,2357.442,2205.875,2368.508,2192.226,2368.508z M848.336,2319.08h1319.176V1199.887
				c0-13.649,11.064-24.714,24.714-24.714h6.21c8.959,0,17.216,4.848,21.582,12.672l124.993,224.016l303.942-160.912
				l-190.486-355.583c-69.754-115.176-168.559-233.641-415.988-320.299c-0.488-0.171-0.971-0.357-1.447-0.558l-101.406-42.832
				c-3.568-1.507-6.599-3.755-8.987-6.488l-61.959-26.606c-10.321,35.393-24.601,69.084-42.61,100.483
				c-22.525,39.273-50.298,73.961-82.548,103.102c-32.767,29.607-69.265,52.678-108.483,68.571
				c-40.756,16.516-83.543,24.891-127.172,24.891c-42.971,0-85.148-8.131-125.361-24.169
				c-38.704-15.436-74.82-37.869-107.346-66.677c-31.993-28.336-59.712-62.124-82.387-100.425
				c-18.356-31.006-33.043-64.369-43.813-99.481l-74.14,27.053L759.701,665.024c-66.487,28.079-121.869,78.576-155.943,142.189
				l-237.715,443.728l303.942,160.912l123.931-222.112l6.349-18.363c3.944-11.407,15.547-18.296,27.452-16.297
				c11.902,2,20.619,12.303,20.619,24.373V2319.08z"></path></g></g></svg>