<svg xmlns="http://www.w3.org/2000/svg" data-name="Layer 1" viewBox="0 0 64 64" id="eating-noodles"><path d="M30.82 16.79V19a.43.43 0 01-.43.43A.43.43 0 0130 19V16.79a.43.43 0 01.43-.43A.43.43 0 0130.82 16.79zM39.28 16.79V19a.43.43 0 01-.43.43.43.43 0 01-.43-.43V16.79a.43.43 0 01.43-.43A.43.43 0 0139.28 16.79zM36.88 21.42a2.37 2.37 0 01-4.73 0 .44.44 0 01.87 0 1.5 1.5 0 103 0 .44.44 0 01.87 0zM38.43 49.68L38 49H34.7l.07.34a.44.44 0 01-.35.51h4.37A.47.47 0 0138.43 49.68zm3.46-.24a.43.43 0 00-.43-.43H27.33a.44.44 0 00-.43.43c0 3.49 1.47 6 4.19 7.05v1.88a.43.43 0 00.43.43h5.76a.44.44 0 00.31-.13.43.43 0 00.13-.3V56.46A7.19 7.19 0 0041.89 49.44zM32 57.93V56.81a8.46 8.46 0 004.89 0v1.12zM37.1 55.8a7.55 7.55 0 01-5.39 0l-.06 0c-2.42-.84-3.78-2.94-3.88-5.91H41A6.3 6.3 0 0137.1 55.8z"></path><path fill="#82e4f1" d="M36.85,57.93H32V56.81a8.46,8.46,0,0,0,4.89,0Z"></path><path fill="#e03d44" d="M41,49.87A6.3,6.3,0,0,1,37.1,55.8a7.55,7.55,0,0,1-5.39,0l-.06,0c-2.42-.84-3.78-2.94-3.88-5.91Z"></path><path d="M45.3,21.37a11.92,11.92,0,0,1-4.89,7.17,10,10,0,0,1-1.08.7c-.35.2-.73.39-1.12.58a14.09,14.09,0,0,1-2.29,1l-.6.21a.34.34,0,0,1-.14,0,.45.45,0,0,1-.27-.1l-.07-.07a.37.37,0,0,1-.07-.12.44.44,0,0,1,.28-.55,2,2,0,0,0,.26-.09,14.58,14.58,0,0,0,2.5-1.07c.42-.2.82-.41,1.2-.64l.1-.05a11.34,11.34,0,0,0,5.42-7.46.43.43,0,0,1,.33-.32,2.81,2.81,0,0,0,2.34-3,1.59,1.59,0,0,0-1.34-1.52h-.19a1.56,1.56,0,0,0-1.49,1.35.42.42,0,0,1-.53.31.42.42,0,0,1-.31-.51,2.93,2.93,0,0,1,.74-1.36,2.14,2.14,0,0,1,.79-.51,2.38,2.38,0,0,1,.49-.13,2.42,2.42,0,0,1,.6,0,1.36,1.36,0,0,1,.29.06,2.48,2.48,0,0,1,1.8,2.25A3.63,3.63,0,0,1,45.3,21.37Z"></path><path d="M46.25,15.27c0,.17-.09.33-.14.49a.44.44,0,0,1-.42.31h0l-.1,0a.43.43,0,0,1-.29-.54c0-.09.06-.2.08-.29C47,9.34,45.29,5.07,40,2.18a9.79,9.79,0,0,0-3-1.07c-1.68-.32-5.83-.75-8.16,2a.46.46,0,0,1-.33.15,4.93,4.93,0,0,0-3.93,1.58C23.16,6.64,22.75,10,23.43,15c0,.11,0,.22.05.33a.43.43,0,0,1-.86.12c0-.11,0-.22,0-.34-.73-5.4-.27-8.84,1.42-10.82a5.79,5.79,0,0,1,4.38-1.87C30.26.34,33.47-.46,37.24.25a11.17,11.17,0,0,1,3.21,1.17C46,4.48,47.92,9.13,46.25,15.27Z"></path><path d="M25.61 24.4a.44.44 0 01-.31.14h0l-.13 0a.51.51 0 01-.13-.09 4.63 4.63 0 01-.81-.88h0a3.26 3.26 0 01-.49-1.8c-2.05-1.18-2.93-2.73-2.63-4.6A2.58 2.58 0 0121.47 16a2.31 2.31 0 011.11-.88 2.19 2.19 0 01.85-.11l.23 0a2.1 2.1 0 01.63.2 2.5 2.5 0 011 .86 2.84 2.84 0 01.44.93.42.42 0 01-.31.53.43.43 0 01-.52-.3 2.06 2.06 0 00-.35-.73l-.05-.07a1.63 1.63 0 00-1-.57 1.28 1.28 0 00-1.32.6 1.67 1.67 0 00-.28.78c-.25 1.57.55 2.82 2.41 3.83a.45.45 0 01.23.38 2.43 2.43 0 00.92 2.21h0a.43.43 0 00.1.09A.44.44 0 0125.61 24.4zM33.51 34v.41a3.06 3.06 0 01-.61 1.84l-.75 1a2.22 2.22 0 00-.43 1.32v1.14a2.27 2.27 0 00.34 1.18l.32.5A3.2 3.2 0 0132.84 43 3.11 3.11 0 0132.18 45l-1.09 1.38a2.26 2.26 0 00-.49 1.39v1.7a.43.43 0 01-.86 0v-1.7a3.05 3.05 0 01.67-1.92l1.08-1.38A2.23 2.23 0 0032 43a2.18 2.18 0 00-.34-1.18l-.31-.51a3 3 0 01-.48-1.63V38.58a3 3 0 01.61-1.83l.75-1a2.27 2.27 0 00.43-1.33V34a2.17 2.17 0 00-.24-1l-.18-.37A3 3 0 0131.9 31l.15-.82 0-.21h0l0-.17a.43.43 0 01.5-.36l.13 0a.2.2 0 01.09.07l0 .06h0a.59.59 0 000 .08.33.33 0 010 .24l-.2 1.18A2.24 2.24 0 0033 32.23l.19.37A3.12 3.12 0 0133.51 34z"></path><path d="M35.53,45.29a8.05,8.05,0,0,1-.5.91,2.93,2.93,0,0,0-.46,2.15l.13.66.07.34a.44.44,0,0,1-.35.51h-.07a.44.44,0,0,1-.43-.35l-.1-.51-.1-.5a3.81,3.81,0,0,1,.59-2.79,5,5,0,0,0,.43-.78,2.84,2.84,0,0,0,0-2.4l-.94-2A3.8,3.8,0,0,1,33.43,39a3.71,3.71,0,0,1,.6-2l.42-.68A2.81,2.81,0,0,0,34.9,35l0-.36a3,3,0,0,0-.26-1.53l-1.15-2.42-.12-.24a.44.44,0,0,1,.2-.58l.1,0h.08a.43.43,0,0,1,.39.25l0,0,.07.16.14.29,1,2.17a3.68,3.68,0,0,1,.35,2l0,.36a3.7,3.7,0,0,1-.57,1.67l-.43.68A2.91,2.91,0,0,0,34.29,39a3,3,0,0,0,.28,1.23l.93,2A3.7,3.7,0,0,1,35.53,45.29Z"></path><path d="M39,49.79a.41.41,0,0,1-.25.08.47.47,0,0,1-.36-.19L38,49h0a2.78,2.78,0,0,1-.49-1.58v-.26a2.85,2.85,0,0,1,.35-1.37l.14-.26a2,2,0,0,0,.25-.91v-1a1.91,1.91,0,0,0-.34-1.14L36.3,40.21a2.85,2.85,0,0,1-.49-1.6v-.25a2.77,2.77,0,0,1,.77-1.93,2,2,0,0,0,.53-1.35v-.81A2,2,0,0,0,36.64,33l-1.73-2-.07-.07-.35-.4-.22-.26-.07-.16a.39.39,0,0,1,.12-.45.44.44,0,0,1,.61.05l.24.27.14.19.61.7,1.37,1.6A2.84,2.84,0,0,1,38,34.27v.81A2.84,2.84,0,0,1,37.21,37a2,2,0,0,0-.54,1.35v.25A2,2,0,0,0,37,39.73L38.61,42a2.94,2.94,0,0,1,.49,1.64v1A2.9,2.9,0,0,1,38.74,46l-.14.26a1.92,1.92,0,0,0-.24,1v.26a2,2,0,0,0,.33,1.1L39,49l.13.19A.43.43,0,0,1,39,49.79Z"></path><path d="M33.6,29.82l.1,0h-.08a1.48,1.48,0,0,1-.73-.17.59.59,0,0,0,0,.08.33.33,0,0,1,0,.24l-.1.59a1.94,1.94,0,0,0,.66.11l-.12-.24A.44.44,0,0,1,33.6,29.82Zm0,0,.1,0h-.08a1.48,1.48,0,0,1-.73-.17.59.59,0,0,0,0,.08.33.33,0,0,1,0,.24l-.1.59a1.94,1.94,0,0,0,.66.11l-.12-.24A.44.44,0,0,1,33.6,29.82Zm.15-1.34h-.13a2.08,2.08,0,0,0-1.2.33.89.89,0,0,0-.4.5.67.67,0,0,0-.05.26.78.78,0,0,0,.12.41h0a1.1,1.1,0,0,0,.25.28,1.43,1.43,0,0,0,.52.27,1.94,1.94,0,0,0,.66.11h.1a2.22,2.22,0,0,0,.79-.13s.06,0,.08,0a1.23,1.23,0,0,0,.68-.55.75.75,0,0,0,.1-.38C35.27,29,34.62,28.51,33.75,28.48Zm0,1.31h-.08a1.48,1.48,0,0,1-.73-.17h0s-.05,0-.05,0v0a1.42,1.42,0,0,1,1.55,0l-.07.06a1.19,1.19,0,0,1-.54.16Zm-.1,0,.1,0h-.08a1.48,1.48,0,0,1-.73-.17.59.59,0,0,0,0,.08.33.33,0,0,1,0,.24l-.1.59a1.94,1.94,0,0,0,.66.11l-.12-.24A.44.44,0,0,1,33.6,29.82Zm0,0,.1,0h-.08a1.48,1.48,0,0,1-.73-.17.59.59,0,0,0,0,.08.33.33,0,0,1,0,.24l-.1.59a1.94,1.94,0,0,0,.66.11l-.12-.24A.44.44,0,0,1,33.6,29.82Z"></path><path fill="#edae8e" d="M34.39,29.56l-.07.06a1.19,1.19,0,0,1-.54.16h-.16a1.48,1.48,0,0,1-.73-.17h0l0-.06a1.42,1.42,0,0,1,1.55,0Z"></path><path fill="#e8b740" d="M34.74,44.94a5,5,0,0,1-.43.78,3.81,3.81,0,0,0-.59,2.79l.1.5H30.6V47.74a2.26,2.26,0,0,1,.49-1.39L32.18,45A3.11,3.11,0,0,0,32.84,43a3.2,3.2,0,0,0-.46-1.64l-.32-.5a2.27,2.27,0,0,1-.34-1.18V38.58a2.22,2.22,0,0,1,.43-1.32l.75-1a3.06,3.06,0,0,0,.61-1.84V34a3.12,3.12,0,0,0-.33-1.38L33,32.23a2.24,2.24,0,0,1-.23-1.11l.1-.59a1.94,1.94,0,0,0,.66.11l1.15,2.42a3,3,0,0,1,.26,1.53l0,.36a2.81,2.81,0,0,1-.45,1.29l-.42.68a3.71,3.71,0,0,0-.6,2,3.8,3.8,0,0,0,.35,1.59l.94,2A2.84,2.84,0,0,1,34.74,44.94Z"></path><path fill="#e8b740" d="M38.23,43.68v1a2,2,0,0,1-.25.91l-.14.26a2.85,2.85,0,0,0-.35,1.37v.26A2.78,2.78,0,0,0,38,49H34.7l-.13-.66A2.93,2.93,0,0,1,35,46.2a8.05,8.05,0,0,0,.5-.91,3.7,3.7,0,0,0,0-3.12l-.93-2A3,3,0,0,1,34.29,39a2.91,2.91,0,0,1,.46-1.57l.43-.68A3.7,3.7,0,0,0,35.75,35l0-.36a3.68,3.68,0,0,0-.35-2l-1-2.17s.06,0,.08,0l.35.4.07.07,1.73,2a2,2,0,0,1,.47,1.27v.81a2,2,0,0,1-.53,1.35,2.77,2.77,0,0,0-.77,1.93v.25a2.85,2.85,0,0,0,.49,1.6l1.59,2.33A1.91,1.91,0,0,1,38.23,43.68Z"></path><path d="M27.76,30.87a.43.43,0,0,1-.24.43l-3.87,1.83a.6.6,0,0,0-.33.46l-.09,1a1.41,1.41,0,0,1-.23.67l-1.41,2.12L17.5,43.59a.44.44,0,0,1-.36.19.51.51,0,0,1-.24-.07.43.43,0,0,1-.12-.6l3.49-5.29L21,36.76l1.31-2a.52.52,0,0,0,.1-.26l.09-1a1.43,1.43,0,0,1,.82-1.15l3.59-1.72-.09-1.14-.06-.66h0v-.24l0-.42-.07-.88-.08-1-.07-.88-.07-.78-1.07-.12h0l-.13,0L20.77,24h-.12a.33.33,0,0,1-.13,0l-.83-.38L9.61,19a.43.43,0,0,1-.22-.57.42.42,0,0,1,.57-.21l10.86,5,3.36.38h0l1.28.15h0l1.34.15a.43.43,0,0,1,.38.39l.12,1.38h0l.08.95.09,1.15s0,0,0,.06l.05.55.05.66a.31.31,0,0,1,0,.1v.14Z"></path><path d="M59.39,57.76v5.81A.43.43,0,0,1,59,64H20.34a.43.43,0,0,1-.43-.43V47.88l-2.6,1.69-2.77,1.81a6.22,6.22,0,0,1-1.64.76,8.69,8.69,0,0,1-4.44.18A4.49,4.49,0,0,1,7,51.66a5.1,5.1,0,0,1-2.11-3A9.68,9.68,0,0,1,5,43.45a8.5,8.5,0,0,1,1-2.12,69.1,69.1,0,0,1,5.26-6.81c.83-1,1.71-1.94,2.66-2.92L15,26.48h0l.08-.39a.45.45,0,0,1,.24-.31l.14-.07,4.28-2.1.82-.4a.43.43,0,0,1,.58.2.42.42,0,0,1-.2.57l-.12.06-4.93,2.42-1,5.43a.56.56,0,0,1-.09.17l0,.05c-.21.23-.43.45-.65.68-.79.85-1.55,1.7-2.28,2.54a67.53,67.53,0,0,0-5,6.5,7.25,7.25,0,0,0-.94,1.89,8.89,8.89,0,0,0-.13,4.7,4.13,4.13,0,0,0,2.86,3l.07,0a7.76,7.76,0,0,0,4-.17,5.22,5.22,0,0,0,1.4-.65l3.25-2.12,2.8-1.82a.41.41,0,0,1,.44,0,.44.44,0,0,1,.22.38V63.14H58.52V57.76c0-1.33,0-2.65-.11-3.93l-.65-12.27A9.18,9.18,0,0,0,55,35.34c-3-2.84-8.24-4.89-15.62-6.1l-.14,0a.43.43,0,0,1-.35-.5.54.54,0,0,1,.17-.29l.1-.05a.53.53,0,0,1,.22,0l1.08.19c7.06,1.27,12.14,3.34,15.13,6.17a10.08,10.08,0,0,1,3.08,6.8l.66,12.28C59.35,55.07,59.39,56.41,59.39,57.76Z"></path><path d="M21.59,37.38a.47.47,0,0,1-.21.16,6.23,6.23,0,0,1-1.11.28,5.15,5.15,0,0,1-.86.07,4.45,4.45,0,0,1-2-.47c-1.41-.73-2.5-2.25-3.33-4.64-.07-.23-.15-.46-.22-.7a.43.43,0,1,1,.83-.25c0,.08,0,.15.07.22.75,2.4,1.79,3.94,3,4.6a4,4,0,0,0,3.17.11l.15,0a.43.43,0,0,1,.54.28A.4.4,0,0,1,21.59,37.38Z"></path><path fill="#7c71d3" d="M58.52,57.76v5.38H55.07V57.76c0-1.33,0-2.65-.11-3.93L54.3,41.56a9.14,9.14,0,0,0-2.81-6.22c-2.63-2.5-7-4.39-13.05-5.63.31-.15.61-.31.89-.47C46.71,30.45,52,32.5,55,35.34a9.18,9.18,0,0,1,2.81,6.22l.65,12.27C58.48,55.11,58.52,56.43,58.52,57.76Z"></path><path fill="#8c7ae5" d="M55.07,57.76v5.38H20.77V47.08a.44.44,0,0,0-.22-.38.41.41,0,0,0-.44,0l-2.8,1.82-3.25,2.12a5.22,5.22,0,0,1-1.4.65,7.76,7.76,0,0,1-4,.17l-.07,0a4.13,4.13,0,0,1-2.86-3,8.89,8.89,0,0,1,.13-4.7,7.25,7.25,0,0,1,.94-1.89,67.53,67.53,0,0,1,5-6.5c.73-.84,1.49-1.69,2.28-2.54.83,2.39,1.92,3.91,3.33,4.64a3.88,3.88,0,0,0,.56.23,4.18,4.18,0,0,0,1.46.24,5.15,5.15,0,0,0,.86-.07l-3.49,5.29a.43.43,0,0,0,.12.6.51.51,0,0,0,.24.07.44.44,0,0,0,.36-.19l4.09-6.21L23,35.26a1.41,1.41,0,0,0,.23-.67l.09-1a.6.6,0,0,1,.33-.46l3.87-1.83a.43.43,0,0,0,.24-.43L27.68,30l-.06-.76,4.43,1L31.9,31a3,3,0,0,0,.32,1.6l.18.37a2.17,2.17,0,0,1,.24,1v.41a2.27,2.27,0,0,1-.43,1.33l-.75,1a3,3,0,0,0-.61,1.83v1.14a3,3,0,0,0,.48,1.63l.31.51A2.18,2.18,0,0,1,32,43a2.23,2.23,0,0,1-.49,1.4l-1.08,1.38a3.05,3.05,0,0,0-.67,1.92V49H27.33a.44.44,0,0,0-.43.43c0,3.49,1.47,6,4.19,7.05v1.88a.43.43,0,0,0,.43.43h5.76a.44.44,0,0,0,.31-.13.43.43,0,0,0,.13-.3V56.46a7.19,7.19,0,0,0,4.18-7,.43.43,0,0,0-.43-.43H39l-.33-.48a2,2,0,0,1-.33-1.1v-.26a1.92,1.92,0,0,1,.24-1l.14-.26a2.9,2.9,0,0,0,.35-1.33v-1A2.94,2.94,0,0,0,38.61,42L37,39.73a2,2,0,0,1-.35-1.12v-.25A2,2,0,0,1,37.21,37,2.84,2.84,0,0,0,38,35.08v-.81a2.84,2.84,0,0,0-.69-1.84l-1.37-1.6a14.09,14.09,0,0,0,2.29-1l.23-.11c6,1.24,10.42,3.13,13.05,5.63a9.14,9.14,0,0,1,2.81,6.22L55,53.83C55,55.11,55.07,56.43,55.07,57.76Z"></path><path d="M33 29.94a.45.45 0 01-.43.34h-.18l-.29-.07-4.43-1h0L27 29.1a.41.41 0 01-.31-.26h0a.32.32 0 010-.19.09.09 0 010-.05.42.42 0 01.51-.33l.34.07 4.47 1 .59.13a.28.28 0 01.14.06.2.2 0 01.09.07l0 .06h0a.59.59 0 000 .08A.67.67 0 0133 29.94zM15.46 26.59h-.11l-8-2A.44.44 0 017.06 24a.42.42 0 01.52-.31l8 2a.43.43 0 01-.1.85z"></path><path d="M33.8,28.5l0,0h0c-2.42-1.16-4.52-2.1-6.42-2.86h0l-.08,0-.08,0a.37.37,0,0,1-.14,0l-.24,0-.34,0c-3.54-.36-5.86,0-7.3,1.24l-.24.21.29.32.3.32a1.21,1.21,0,0,1,.2-.19c1.25-1.05,3.49-1.39,6.82-1l.17,0,.12,0,.12,0,.48.19c1.52.63,3.17,1.36,5,2.23l1,.48a.39.39,0,0,0,.18,0,.41.41,0,0,0,.39-.24A.43.43,0,0,0,33.8,28.5Z"></path><path fill="#edae8e" d="M32.42,28.8a.89.89,0,0,0-.4.5l-4.47-1-.05-.55s0-.05,0-.06l-.09-1.15C28.92,27.2,30.57,27.93,32.42,28.8Z"></path><path d="M27.5,27.78s0,0,0,.06a.42.42,0,0,1-.48.37l-.35,0a11.21,11.21,0,0,0-3.41.08,5.64,5.64,0,0,0-3.05,1.61.48.48,0,0,1-.32.13.46.46,0,0,1-.29-.11.44.44,0,0,1,0-.62,6.54,6.54,0,0,1,3.51-1.86,12.18,12.18,0,0,1,3.51-.11l.53.06a.45.45,0,0,1,.37.37S27.5,27.76,27.5,27.78Z"></path><path fill="#edae8e" d="M26.87,30.64l-3.59,1.72a1.43,1.43,0,0,0-.82,1.15l-.09,1a.52.52,0,0,1-.1.26l-1.31,2a4,4,0,0,1-3.17-.11c-1.26-.66-2.3-2.2-3-4.6a.56.56,0,0,0,.09-.17l1-5.43L20.77,24l4.36.49.13,0h0l1.07.12.07.78c-3.54-.36-5.86,0-7.3,1.24l-.24.21.29.32.3.32a1.21,1.21,0,0,1,.2-.19c1.25-1.05,3.49-1.39,6.82-1l.08,1a12.18,12.18,0,0,0-3.51.11,6.54,6.54,0,0,0-3.51,1.86.44.44,0,0,0,0,.62.46.46,0,0,0,.29.11.48.48,0,0,0,.32-.13,5.64,5.64,0,0,1,3.05-1.61,11.21,11.21,0,0,1,3.41-.08l0,.42a.09.09,0,0,0,0,.05A11.93,11.93,0,0,0,20.46,31a.42.42,0,0,0-.11.6.39.39,0,0,0,.35.19.48.48,0,0,0,.24-.07,10.83,10.83,0,0,1,5.84-2.25Z"></path><path d="M27.61,29.09a.31.31,0,0,1,0,.13.39.39,0,0,1-.42.28h-.38a10.83,10.83,0,0,0-5.84,2.25.48.48,0,0,1-.24.07.39.39,0,0,1-.35-.19.42.42,0,0,1,.11-.6,11.93,11.93,0,0,1,6.23-2.39s0,0,0,0a3.84,3.84,0,0,1,.48,0,.46.46,0,0,1,.41.35A.31.31,0,0,1,27.61,29.09Z"></path><path fill="#edae8e" d="M47.2,17.6a1.59,1.59,0,0,0-1.34-1.52h-.19a1.56,1.56,0,0,0-1.49,1.35.42.42,0,0,1-.53.31.42.42,0,0,1-.31-.51,2.93,2.93,0,0,1,.74-1.36c-.27-2-1.2-2.82-3.11-2.76a28.56,28.56,0,0,0-5.2.47,28.39,28.39,0,0,1-4.28.43,4.74,4.74,0,0,1-2.25-.59,3.8,3.8,0,0,1-2-3.48c-1.78,1.15-2.42,3.18-2,6.18a2.84,2.84,0,0,1,.44.93.42.42,0,0,1-.31.53.43.43,0,0,1-.52-.3,2.06,2.06,0,0,0-.35-.73l-.05-.07a1.63,1.63,0,0,0-1-.57,1.28,1.28,0,0,0-1.32.6,1.67,1.67,0,0,0-.28.78c-.25,1.57.55,2.82,2.41,3.83a.45.45,0,0,1,.23.38,2.43,2.43,0,0,0,.92,2.21h0l1.34.15a.43.43,0,0,1,.38.39l.12,1.38h0c1.9.76,4,1.7,6.42,2.86h0c.87,0,1.52.48,1.52,1.08a.75.75,0,0,1-.1.38l.14.19a14.58,14.58,0,0,0,2.5-1.07c.42-.2.82-.41,1.2-.64l.1-.05a11.34,11.34,0,0,0,5.42-7.46.43.43,0,0,1,.33-.32A2.81,2.81,0,0,0,47.2,17.6ZM30.82,19a.43.43,0,0,1-.43.43A.43.43,0,0,1,30,19V16.79a.43.43,0,0,1,.43-.43.43.43,0,0,1,.43.43Zm3.7,4.76a2.36,2.36,0,0,1-2.37-2.36.44.44,0,0,1,.87,0,1.5,1.5,0,1,0,3,0,.44.44,0,0,1,.87,0A2.36,2.36,0,0,1,34.52,23.78ZM39.28,19a.43.43,0,0,1-.43.43.43.43,0,0,1-.43-.43V16.79a.43.43,0,0,1,.43-.43.43.43,0,0,1,.43.43Z"></path><path fill="#2c1828" d="M45.36,15.22a2.38,2.38,0,0,0-.49.13A3.4,3.4,0,0,0,41,12.24a30,30,0,0,0-5.33.47,25.66,25.66,0,0,1-4.14.43,4,4,0,0,1-1.85-.48C28.47,12,28,11,28.09,9.21a.48.48,0,0,0-.2-.38.45.45,0,0,0-.42,0c-2.35,1.12-3.42,3.28-3.18,6.44a2.1,2.1,0,0,0-.63-.2l-.23,0c-.68-5.07-.27-8.38,1.23-10.14A4.93,4.93,0,0,1,28.59,3.3a.46.46,0,0,0,.33-.15c2.33-2.79,6.48-2.36,8.16-2a9.79,9.79,0,0,1,3,1.07C45.29,5.07,47,9.34,45.36,15.22Z"></path><path d="M45,16a.43.43,0,0,1-.38.48.43.43,0,0,1-.48-.38l0-.21c-.27-2-1.2-2.82-3.11-2.76a28.56,28.56,0,0,0-5.2.47,28.39,28.39,0,0,1-4.28.43,4.74,4.74,0,0,1-2.25-.59,3.8,3.8,0,0,1-2-3.48c-1.78,1.15-2.42,3.18-2,6.18,0,0,0,.05,0,.08a.42.42,0,0,1-.36.49h-.06a.43.43,0,0,1-.33-.15l-.05-.07a.34.34,0,0,1,0-.14c-.05-.38-.11-.73-.13-1.08-.24-3.16.83-5.32,3.18-6.44a.45.45,0,0,1,.42,0,.48.48,0,0,1,.2.38C28,11,28.47,12,29.65,12.66a4,4,0,0,0,1.85.48,25.66,25.66,0,0,0,4.14-.43A30,30,0,0,1,41,12.24a3.4,3.4,0,0,1,3.9,3.11A6.17,6.17,0,0,1,45,16Z"></path></svg>