<svg xmlns="http://www.w3.org/2000/svg" viewBox="0 0 60 60" id="emotions-cycle"><circle cx="13" cy="13" r="7" fill="#fde36e"></circle><circle cx="13" cy="47" r="7" fill="#fde36e"></circle><circle cx="47" cy="47" r="7" fill="#fde36e"></circle><circle cx="47" cy="13" r="7" fill="#fde36e"></circle><circle cx="30" cy="52" r="7" fill="#fde36e"></circle><circle cx="30" cy="8" r="7" fill="#fde36e"></circle><circle cx="8" cy="30" r="7" fill="#fde36e"></circle><circle cx="52" cy="30" r="7" fill="#fde36e"></circle><circle cx="30" cy="30" r="11" fill="#cd596b"></circle><path fill="#373737" d="M7.343 18.657a8 8 0 1 0 0-11.314 7.972 7.972 0 0 0 0 11.314zM13 7a6 6 0 1 1-4.243 1.757A5.984 5.984 0 0 1 13 7zM7.343 41.343a8 8 0 1 0 11.314 0 8.012 8.012 0 0 0-11.314 0zm9.9 9.9a6 6 0 1 1 0-8.486 6.011 6.011 0 0 1 0 8.486zm24.1 1.414a8 8 0 1 0 0-11.314 7.972 7.972 0 0 0 0 11.314zm1.414-9.9a6 6 0 1 1 0 8.486 6.009 6.009 0 0 1 0-8.486zM41.343 7.343a8 8 0 1 0 11.314 0 8.012 8.012 0 0 0-11.314 0zm9.9 9.9a6 6 0 1 1 0-8.486 6.011 6.011 0 0 1 0 8.486zM22 52a8 8 0 1 0 8-8 8.009 8.009 0 0 0-8 8zm14 0a6 6 0 1 1-6-6 6.006 6.006 0 0 1 6 6zm-6-36a8 8 0 1 0-8-8 8.009 8.009 0 0 0 8 8zm0-14a6 6 0 1 1-6 6 6.006 6.006 0 0 1 6-6zM8 38a8 8 0 1 0-8-8 8.009 8.009 0 0 0 8 8zm0-14a6 6 0 1 1-6 6 6.006 6.006 0 0 1 6-6zm44-2a8 8 0 1 0 8 8 8.009 8.009 0 0 0-8-8zm0 14a6 6 0 1 1 6-6 6.006 6.006 0 0 1-6 6zM30 18a11.964 11.964 0 0 0-6.546 1.941 1 1 0 1 0 1.092 1.676 10 10 0 1 1-2.729 2.634 1 1 0 1 0-1.634-1.151A12 12 0 1 0 30 18z"></path><path fill="#373737" d="M28 7a1 1 0 0 0 1-1V5a1 1 0 0 0-2 0v1a1 1 0 0 0 1 1zm4 0a1 1 0 0 0 1-1V5a1 1 0 0 0-2 0v1a1 1 0 0 0 1 1zm-4 4h4a1 1 0 0 0 0-2h-4a1 1 0 0 0 0 2zM6 29a1 1 0 0 0 1-1v-1a1 1 0 0 0-2 0v1a1 1 0 0 0 1 1zm4 0a1 1 0 0 0 1-1v-1a1 1 0 0 0-2 0v1a1 1 0 0 0 1 1zm-4.638 3.771a1 1 0 0 0 1.409-.133 1.532 1.532 0 0 1 2.458 0 1 1 0 0 0 1.542-1.276 3.5 3.5 0 0 0-5.542 0 1 1 0 0 0 .133 1.409zM11 12a1 1 0 0 0 1-1v-1a1 1 0 0 0-2 0v1a1 1 0 0 0 1 1zm4 0a1 1 0 0 0 1-1v-1a1 1 0 0 0-2 0v1a1 1 0 0 0 1 1zm-3.627 3.261a5.2 5.2 0 0 1 3.254 0 1 1 0 0 0 .746-1.856 7.093 7.093 0 0 0-4.746 0 1 1 0 1 0 .746 1.856zM50 29a1 1 0 0 0 1-1v-1a1 1 0 0 0-2 0v1a1 1 0 0 0 1 1zm4-3a1 1 0 0 0-1 1v1a1 1 0 0 0 2 0v-1a1 1 0 0 0-1-1zm-.771 5.362a1.532 1.532 0 0 1-2.458 0 1 1 0 1 0-1.542 1.276 3.5 3.5 0 0 0 5.542 0 1 1 0 0 0-1.542-1.276zM45 12a1 1 0 0 0 1-1v-1a1 1 0 0 0-2 0v1a1 1 0 0 0 1 1zm4 0a1 1 0 0 0 1-1v-1a1 1 0 0 0-2 0v1a1 1 0 0 0 1 1zm-.517 2.144a3.247 3.247 0 0 1-2.966 0 1 1 0 0 0-1.034 1.712 5.277 5.277 0 0 0 5.034 0 1 1 0 1 0-1.034-1.712zM28 51a1 1 0 0 0 1-1v-1a1 1 0 0 0-2 0v1a1 1 0 0 0 1 1zm4 0a1 1 0 0 0 1-1v-1a1 1 0 0 0-2 0v1a1 1 0 0 0 1 1zm0 2h-4a1 1 0 0 0 0 2h4a1 1 0 0 0 0-2zm-21-7a1 1 0 0 0 1-1v-1a1 1 0 0 0-2 0v1a1 1 0 0 0 1 1zm4 0a1 1 0 0 0 1-1v-1a1 1 0 0 0-2 0v1a1 1 0 0 0 1 1zm-4.928 2.706a1 1 0 0 0 1.3.555 5.2 5.2 0 0 1 3.254 0 1 1 0 0 0 .746-1.856 7.093 7.093 0 0 0-4.746 0 1 1 0 0 0-.554 1.301zM45 46a1 1 0 0 0 1-1v-1a1 1 0 0 0-2 0v1a1 1 0 0 0 1 1zm4 0a1 1 0 0 0 1-1v-1a1 1 0 0 0-2 0v1a1 1 0 0 0 1 1zm-4.856 2.483a1 1 0 0 0 .339 1.373 5.277 5.277 0 0 0 5.034 0 1 1 0 1 0-1.034-1.712 3.247 3.247 0 0 1-2.966 0 1 1 0 0 0-1.373.339zM22.293 30.707a1 1 0 0 0 1.414 0l.313-.313a5.991 5.991 0 1 0 4.78-6.273 1 1 0 0 0 .4 1.959 4 4 0 1 1-3.154 4.381l.246.246a1 1 0 0 0 1.414-1.414l-2-2a1 1 0 0 0-1.414 0l-2 2a1 1 0 0 0 .001 1.414z"></path></svg>