<svg xmlns="http://www.w3.org/2000/svg" enable-background="new 0 0 100 100" viewBox="0 0 100 100" id="funeral"><path fill="#fdad57" d="M81.117,30.858H18.883c-0.226,0-0.409,0.183-0.409,0.409v3.685c0,0.226,0.183,0.409,0.409,0.409
				h62.234c0.226,0,0.409-0.183,0.409-0.409v-3.685C81.526,31.042,81.343,30.858,81.117,30.858z"></path><path d="M80.87,36.488H19.13c-0.983,0-1.783-0.799-1.783-1.782v-3.191c0-0.983,0.8-1.783,1.783-1.783H80.87
				c0.983,0,1.783,0.799,1.783,1.783v3.191C82.653,35.689,81.853,36.488,80.87,36.488z M19.599,34.236h60.801v-2.252H19.599V34.236z
				 M80.87,31.984h0.011H80.87z"></path><rect width="60.801" height="15.764" x="19.599" y="35.362" fill="#895430"></rect><path d="M81.527,52.252H18.473V34.236h63.053V52.252z M20.725,50h58.55V36.488h-58.55V50z"></path><polygon fill="#895430" points="77.023 21.851 22.977 21.851 19.599 26.354 19.599 30.858 80.401 30.858 80.401 26.354"></polygon><path d="M81.527,31.984H18.473V25.98l3.941-5.255h55.172l3.941,5.255V31.984z M20.725,29.733h58.55v-3.003l-2.815-3.753H23.54
				l-2.815,3.753V29.733z"></path><path fill="#b3b3b3" d="M84.905,59.007v-5.63c0-1.244-1.008-2.252-2.252-2.252H17.347c-1.243,0-2.252,1.008-2.252,2.252
					v5.63H84.905z"></path><path d="M86.031,60.133h-2.252v-6.756c0-0.622-0.505-1.126-1.126-1.126H17.347c-0.621,0-1.126,0.504-1.126,1.126v6.756h-2.252
					v-6.756c0-1.863,1.515-3.378,3.378-3.378h65.306c1.862,0,3.378,1.515,3.378,3.378V60.133z"></path><g><rect width="11.26" height="2.252" x="69.141" y="25.229"></rect></g><g><rect width="11.26" height="2.252" x="19.599" y="25.229"></rect></g><g><rect width="63.053" height="2.252" x="18.473" y="44.37"></rect></g><g><path d="M53.378,27.481v-2.252h2.252v2.252C53.378,27.481,55.63,27.481,53.378,27.481z M48.874,27.481v-2.252h2.252v2.252
				C48.874,27.481,51.126,27.481,48.874,27.481z M44.37,27.481v-2.252h2.252v2.252C44.37,27.481,46.622,27.481,44.37,27.481z"></path></g><g><path fill="#b3b3b3" d="M60.134,78.148l0-7.885c0-2.882-2.519-3.469-5.629-4.787l-4.636-1.965l-4.7,1.965
					c-3.078,1.265-5.152,2.106-5.302,4.787c0.007,0.112,0,7.885,0,7.885H60.134z"></path><path d="M40.991,79.275l-2.252-0.002l0.001-1.126c0.002-3.028,0.004-7.618,0-7.853c0.19-3.473,2.864-4.571,5.961-5.843
					l5.171-2.162l5.071,2.149c0.395,0.168,0.781,0.324,1.154,0.474c2.654,1.07,5.162,2.081,5.162,5.35v9.011h-2.252v-9.011
					c0-1.607-0.973-2.142-3.753-3.263c-0.383-0.155-0.781-0.316-1.19-0.488l-4.199-1.78l-4.263,1.782
					c-3.2,1.316-4.494,1.919-4.611,3.783c0.002,0.312,0.006,1.655,0,7.852L40.991,79.275z"></path><path fill="#fff" d="M53.913,60.415c0,2.441-1.752,4.419-3.913,4.419s-3.913-1.978-3.913-4.419
							c0-2.44,1.752-4.419,3.913-4.419S53.913,57.975,53.913,60.415z"></path><path d="M50,65.961c-2.779,0-5.039-2.487-5.039-5.545c0-3.058,2.261-5.545,5.039-5.545s5.039,2.487,5.039,5.545
							C55.039,63.474,52.779,65.961,50,65.961z M50,57.123c-1.537,0-2.787,1.478-2.787,3.293c0,1.815,1.25,3.293,2.787,3.293
							s2.787-1.477,2.787-3.293C52.787,58.6,51.537,57.123,50,57.123z"></path><g><rect width="2.252" height="7.881" x="43.244" y="71.393"></rect></g><g><rect width="2.252" height="7.881" x="54.504" y="71.393"></rect></g></g><g><path fill="#7f7f7f" d="M39.866,78.148v-7.885c0-2.882-2.52-3.469-5.629-4.787l-4.635-1.965l-4.7,1.965
					c-3.078,1.265-5.152,2.106-5.302,4.787c0.007,0.112,0,7.885,0,7.885H39.866z"></path><path d="M20.724,79.275l-2.252-0.002l0.001-1.126c0.002-3.028,0.004-7.618,0-7.853c0.19-3.473,2.865-4.571,5.96-5.843
					l5.172-2.162l5.071,2.149c0.395,0.168,0.781,0.324,1.153,0.474c2.654,1.07,5.162,2.081,5.162,5.35v9.011H38.74v-9.011
					c0-1.607-0.973-2.142-3.753-3.263c-0.384-0.155-0.782-0.316-1.19-0.488l-4.199-1.78l-4.263,1.782
					c-3.2,1.316-4.494,1.919-4.611,3.783c0.002,0.312,0.006,1.655,0,7.852L20.724,79.275z"></path><path fill="#fff" d="M33.646,60.415c0,2.441-1.752,4.419-3.913,4.419c-2.161,0-3.913-1.978-3.913-4.419
							c0-2.44,1.752-4.419,3.913-4.419C31.894,55.996,33.646,57.975,33.646,60.415z"></path><path d="M29.733,65.961c-2.778,0-5.04-2.487-5.04-5.545c0-3.058,2.261-5.545,5.04-5.545c2.779,0,5.039,2.487,5.039,5.545
							C34.772,63.474,32.512,65.961,29.733,65.961z M29.733,57.123c-1.537,0-2.787,1.478-2.787,3.293
							c0,1.815,1.25,3.293,2.787,3.293c1.537,0,2.787-1.477,2.787-3.293C32.52,58.6,31.27,57.123,29.733,57.123z"></path><g><rect width="2.252" height="7.881" x="22.977" y="71.393"></rect></g><g><rect width="2.252" height="7.881" x="34.236" y="71.393"></rect></g></g><g><path fill="#7f7f7f" d="M80.401,78.148v-7.885c0-2.882-2.52-3.469-5.629-4.787l-4.635-1.965l-4.7,1.965
					c-3.078,1.265-5.152,2.106-5.302,4.787c0.007,0.112,0,7.885,0,7.885H80.401z"></path><path d="M61.258,79.275l-2.252-0.002l0.001-1.126c0.002-3.028,0.004-7.618,0-7.853c0.19-3.473,2.864-4.571,5.96-5.843
					l5.172-2.162l5.071,2.149c0.395,0.168,0.78,0.324,1.153,0.474c2.654,1.07,5.162,2.081,5.162,5.35v9.011h-2.252v-9.011
					c0-1.607-0.973-2.142-3.753-3.263c-0.384-0.155-0.782-0.316-1.19-0.488l-4.199-1.78l-4.263,1.782
					c-3.2,1.316-4.494,1.919-4.611,3.783c0.002,0.312,0.005,1.655,0,7.852L61.258,79.275z"></path><path fill="#fff" d="M74.18,60.415c0,2.441-1.752,4.419-3.913,4.419c-2.161,0-3.913-1.978-3.913-4.419
							c0-2.44,1.752-4.419,3.913-4.419C72.428,55.996,74.18,57.975,74.18,60.415z"></path><path d="M70.267,65.961c-2.779,0-5.039-2.487-5.039-5.545c0-3.058,2.261-5.545,5.039-5.545c2.779,0,5.04,2.487,5.04,5.545
							C75.307,63.474,73.046,65.961,70.267,65.961z M70.267,57.123c-1.537,0-2.787,1.478-2.787,3.293
							c0,1.815,1.251,3.293,2.787,3.293c1.537,0,2.787-1.477,2.787-3.293C73.054,58.6,71.804,57.123,70.267,57.123z"></path><g><rect width="2.252" height="7.881" x="63.511" y="71.393"></rect></g><g><rect width="2.252" height="7.881" x="74.771" y="71.393"></rect></g></g></svg>