<svg xmlns="http://www.w3.org/2000/svg" viewBox="0 0 66 66" id="greeting"><path d="M22.8 21c4.2 1 8.1-.3 11.5-2.9 0-1 .3-1.9.8-2.7 0-.1-.1-.2-.2-.2-.7-.8-1.9-.9-2.7-.3-4.9 4-8.7 2.7-10.6 1.5.9 1.3 1.4 2.9 1.2 4.6zM57 1c-5.4 0-8.7 5.2-6 9.2l-.3 4.2 3.8-1.5c.8.3 1.6.4 2.5.4 9.2 0 9.2-12.3 0-12.3zM8.7 8.7l2.5 1L11 7c1.7-2.6-.4-6-3.9-6-2.5 0-4.5 1.8-4.5 4 0 2.8 3.3 4.7 6.1 3.7zm30.5 32.7-1.4 20.5c-.1 1.6 1.1 3 2.7 3.1 1.2.2 2.9-.9 3.1-2.7l1.3-18.8c-2.3.3-4.3-.6-5.7-2.1zm-10-14.6c.6.5 1 1.2 1 2 .1.7-.2 1.4-.5 1.9.8-.1 3.7-1.5 5.8-4l-.9-5.5c-.7 1.5-2.3 4.1-5.4 5.6z"></path><path d="M49.7 38.2c.2-.7.2-1.5.1-2.3l-2.6-15.2c2.3 2.3 4.5 5.7 5.6 10 .1.3.2.6.5.8.3-.2.1 0 3-1 .1 0 .2 0 .3-.1v-.8C53.6 19.3 44.5 12 40 12.8c-3.1.5-5.2 3.5-4.7 6.6 4.3 25.2 2.8 16.5 3.1 18.4.5 3.1 3.5 5.2 6.4 4.7 6.7 27.3 4.4 17.9 4.9 19.9.3 1.4 1.8 2.5 3.5 2.1 1.5-.4 2.5-1.9 2.1-3.5-.6-2.2 2 8.6-5.6-22.8z"></path><path d="M60.4 32.6c-.1-.4-.5-.6-.9-.5l-.3.1.9 2.7c0 .2.2.6-2.1 1.5 0 .4-.4.8-1 1-.6.2-1.2.1-1.4-.3-2.2.5-2.3.1-2.3 0l-.9-2.7-.5.2c-.4.1-.6.5-.5.9l1.5 4.6c.1.4.5.6.9.5l7.6-2.4c.4-.1.6-.5.5-.9-.1-.1-1.6-5-1.5-4.7z"></path><path d="M53.6 37c.1.1.5.2 1.9-.2 0-.4.4-.8 1-.9.6-.2 1.1-.1 1.4.2 1.5-.6 1.9-.9 1.9-1l-.9-2.7-1.2.4-.4-1.1c-.1-.4-.5-.5-.9-.4-.1 0-2.8.9-2.7.9-.4.1-.6.5-.5.9l.4 1.1-1 .3 1 2.5zm3.1-5.2.3 1-2.7.9-.3-1 2.7-.9zM12.2 42.5l1.6 17.2c.1 1.6 1.6 2.8 3.1 2.6 1.6-.2 2.7-1.6 2.6-3.1l-1.7-18.7c-1.4 1.4-3.5 2.3-5.6 2z"></path><ellipse cx="36" cy="6.6" rx="5.4" ry="5.6"></ellipse><ellipse cx="18.8" cy="8" rx="5.6" ry="5.8"></ellipse><path d="M13.1 22.5c0-1.6 1.3-2.9 2.9-2.8 1.6 0 2.8 1.3 2.8 2.9.1 1 .7 2.1 2.1 2.8.7-3.6.9-4 .9-4.6.2-2.9-1.8-5.5-4.6-6.1-3.1-.6-6.2 1.4-6.8 4.5L7.3 34.7c-.1.7-.2 1.4 0 2.1-.2.2-.3.5-.4.8-1.3 5.1-3.7 17.5-4.8 22.7-.3 1.6.7 3.1 2.3 3.4 1.5.3 3.1-.7 3.4-2.3.9-4.7 3.1-15.5 4.1-19.9 2.4.7 6-1.1 6.7-4.5l1.2-6c-4.4-1.4-6.7-5.1-6.7-8.5z"></path><path d="M27.2 27.1c-4.1.3-9.4-.7-9.4-4.5 0-1-.8-1.9-1.9-1.9-1 0-1.9.8-1.9 1.9 0 4.5 4.2 9 13.5 8.4 1-.1 1.9-1 1.8-2.1-.1-1.1-1-1.9-2.1-1.8z"></path></svg>