<svg xmlns="http://www.w3.org/2000/svg" data-name="Layer 1" viewBox="0 0 32 32" id="hajj"><path fill="#323f49" d="M16 2v28L4 28V6l12-4zM16 2l12 4v22l-12 2V2z"></path><path fill="#1b2b3a" d="M16 2v.667L26 6v22l-10 1.667V30l12-2V6L16 2z"></path><path fill="#ffa10b" d="m4 10 12-4v4L4 14v-4zM28 10 16 6v4l12 4v-4z"></path><path fill="#f77208" d="M28 10 16 6v.667L26 10v3.333L28 14v-4z"></path><path fill="#595f63" d="M16 2v.667L6 6v22l10 1.667V30L4 28V6l12-4z"></path><path fill="#f7c889" d="m4 10 12-4v.667L6 10v3.333L4 14v-4z"></path><path fill="#f9f9f9" d="M12.04 29.34 8 28.67V22h4l.04 7.34z"></path><path fill="#cfdedd" d="M12.04 29.34 12 22h-2l.038 7.008 2.002.332z"></path><path fill="#f9f9f9" d="M30 30v-6l-1.657-1.657A8 8 0 0 1 26 16.686V14a4 4 0 0 0-4-4 4 4 0 0 0-4 4v2.686a8 8 0 0 1-2.343 5.657L14 24v6Z"></path><path fill="#cfdedd" d="M28.343 22.343A8 8 0 0 1 26 16.686V14a3.953 3.953 0 0 0-5-3.859A3.991 3.991 0 0 1 24 14v2.686a8 8 0 0 0 2.343 5.657L28 24v6h2v-6Z"></path><path fill="#e5e5e5" d="M30 24v6H14v-6l4 2 4-2 4 2 4-2z"></path><path fill="#c4cecd" d="M28 25v5h2v-6l-2 1z"></path><path fill="#f7d7b5" d="M20 14h4v2a2 2 0 0 1-2 2 2 2 0 0 1-2-2v-2Z"></path><path fill="#c1a081" d="M22 14v2a1.994 1.994 0 0 1-1 1.723A1.988 1.988 0 0 0 24 16v-2Z"></path><path fill="#f7d7b5" d="M2 30v-5.528a4 4 0 0 1 2.211-3.578L10 18l5.789 2.894A4 4 0 0 1 18 24.472V30Z"></path><path fill="#fcf1e8" d="M6.211 20.894 11 18.5l-1-.5-5.789 2.894A4 4 0 0 0 2 24.472V30h2v-5.528a4 4 0 0 1 2.211-3.578Z"></path><circle cx="10" cy="14" r="4" fill="#f7d7b5"></circle><path fill="#c1a081" d="M10 10a3.977 3.977 0 0 0-1 .141 3.982 3.982 0 0 1 0 7.718A3.994 3.994 0 1 0 10 10Z"></path><path fill="#fcf1e8" d="M10 10a3.977 3.977 0 0 1 1 .141 3.982 3.982 0 0 0 0 7.718A3.994 3.994 0 1 1 10 10Z"></path><path fill="#f9f9f9" d="M18 24.47V30H6v-4l8-6 1.79.89A4.02 4.02 0 0 1 18 24.47Z"></path><path fill="#cfdedd" d="M15.79 20.89 14 20l-.8.6.587.292A4.02 4.02 0 0 1 16 24.47V30h2v-5.53a4.02 4.02 0 0 0-2.21-3.58ZM13.5 25h1v5h-1z"></path></svg>