<svg xmlns="http://www.w3.org/2000/svg" viewBox="0 0 24 24" id="entry"><path d="M8.327 8.429C8.17 7.044 7.073 6 5.777 6H3.224C1.928 6 .831 7.044.674 8.429l-.663 5.808a1.7 1.7 0 0 0 .411 1.323c.272.306.635.483 1.027.505l.552 7.472a.502.502 0 0 0 .5.463h4A.5.5 0 0 0 7 23.537l.552-7.472c.393-.022.755-.2 1.027-.505a1.7 1.7 0 0 0 .411-1.323l-.663-5.808zM4.501 5a2.5 2.5 0 1 0 0-5 2.5 2.5 0 0 0 0 5zm17.341-5c-.295 0-.581.059-.852.175L15.309 2.61a2.156 2.156 0 0 0-1.308 1.984v17.247a2.162 2.162 0 0 0 3.011 1.984l5.681-2.435a2.156 2.156 0 0 0 1.308-1.984V2.159C24.001.969 23.032 0 21.842 0zm-4.841 13.5a.5.5 0 0 1-1 0v-2a.5.5 0 0 1 1 0v2zM16.62.959A.501.501 0 0 0 16.423 0h-4.922c-.827 0-1.5.673-1.5 1.5v18c0 .827.673 1.5 1.5 1.5h1a.5.5 0 0 0 .5-.5V4.594c0-1.265.752-2.405 1.915-2.904L16.62.959z"></path></svg>