<svg xmlns="http://www.w3.org/2000/svg" viewBox="0 0 64 64" id="knowledge"><g><circle cx="32" cy="14.1" r="3" fill="#40c4ff"></circle><circle cx="12" cy="35.5" r="6" fill="#ffd740" stroke="#263238" stroke-linecap="round" stroke-linejoin="round" stroke-miterlimit="10"></circle><path fill="none" stroke="#263238" stroke-linecap="round" stroke-linejoin="round" stroke-miterlimit="10" d="M4.5 58.5H2V47c0-2.5 2-4.5 4.5-4.5M17.5 42.5c2.5 0 4.5 2 4.5 4.5v11.5h-2.5M8.5 42.5l3.5 3M15.5 42.5l-3.5 3v6M17.5 51.5v7h-11v-7"></path><circle cx="32" cy="40.5" r="6" fill="#ffd740" stroke="#263238" stroke-linecap="round" stroke-linejoin="round" stroke-miterlimit="10"></circle><path fill="none" stroke="#263238" stroke-linecap="round" stroke-linejoin="round" stroke-miterlimit="10" d="M24.5 63.5H22V52c0-2.5 2-4.5 4.5-4.5M37.5 47.5c2.5 0 4.5 2 4.5 4.5v11.5h-2.5M28.5 47.5l3.5 3M35.5 47.5l-3.5 3v6M37.5 56.5v7h-11v-7"></path><circle cx="52" cy="35.5" r="6" fill="#ffd740" stroke="#263238" stroke-linecap="round" stroke-linejoin="round" stroke-miterlimit="10"></circle><path fill="none" stroke="#263238" stroke-linecap="round" stroke-linejoin="round" stroke-miterlimit="10" d="M44.5 58.5H42V47c0-2.5 2-4.5 4.5-4.5M57.5 42.5c2.5 0 4.5 2 4.5 4.5v11.5h-2.5M48.5 42.5l3.5 3M55.5 42.5l-3.5 3v6M57.5 51.5v7h-11v-7"></path><ellipse cx="32" cy="14.1" fill="none" stroke="#263238" stroke-linecap="round" stroke-linejoin="round" stroke-miterlimit="10" rx="6" ry="15" transform="rotate(-27.498 32.004 14.094)"></ellipse><ellipse cx="32" cy="14.1" fill="none" stroke="#263238" stroke-linecap="round" stroke-linejoin="round" stroke-miterlimit="10" rx="15" ry="6" transform="rotate(-62.502 32 14.094)"></ellipse><ellipse cx="32" cy="14.1" fill="none" stroke="#263238" stroke-linecap="round" stroke-linejoin="round" stroke-miterlimit="10" rx="15" ry="6"></ellipse><circle cx="53" cy="6.1" r="2" fill="none" stroke="#263238" stroke-linecap="round" stroke-linejoin="round" stroke-miterlimit="10"></circle><circle cx="11" cy="22.1" r="2" fill="none" stroke="#263238" stroke-linecap="round" stroke-linejoin="round" stroke-miterlimit="10"></circle><path fill="none" stroke="#263238" stroke-linecap="round" stroke-linejoin="round" stroke-miterlimit="10" d="M5 63.5H4M19 63.5H7M59 63.5h1M45 63.5h12"></path></g></svg>