<svg xmlns="http://www.w3.org/2000/svg" viewBox="0 0 5000 5000" id="manners-of-courtesy"><path fill="#2c2584" d="M202.106 2973.368c-11.074 0-20.907-7.904-22.959-19.186-15.353-84.396-25.979-170.781-31.583-256.754-.839-12.875 8.918-23.994 21.793-24.833 12.875-.852 23.994 8.918 24.833 21.794 5.489 84.194 15.895 168.787 30.928 251.43 2.31 12.695-6.11 24.858-18.805 27.167-1.412.258-2.82.382-4.207.382zm-33.37-510.122c-.379 0-.76-.009-1.143-.028-12.888-.621-22.833-11.572-22.212-24.46 4.148-86.1 13.301-172.677 27.203-257.327 2.092-12.733 14.106-21.359 26.84-19.268 12.733 2.091 21.359 14.108 19.268 26.84-13.614 82.895-22.577 167.681-26.64 252.002-.601 12.506-10.929 22.241-23.316 22.241zm82.946-504.513c-2.127 0-4.288-.292-6.435-.906-12.406-3.548-19.587-16.48-16.04-28.886 23.635-82.654 52.378-164.827 85.431-244.235 4.958-11.913 18.635-17.549 30.547-12.591 11.912 4.958 17.55 18.635 12.591 30.547-32.361 77.747-60.503 158.201-83.645 239.126-2.932 10.259-12.285 16.945-22.449 16.945zm196.381-471.972a23.25 23.25 0 0 1-11.383-2.977c-11.261-6.298-15.285-20.533-8.986-31.795 41.931-74.974 88.714-148.372 139.048-218.156 7.548-10.465 22.15-12.83 32.616-5.281 10.464 7.548 12.829 22.15 5.281 32.616-49.291 68.337-95.103 140.213-136.164 213.63-4.28 7.652-12.226 11.963-20.412 11.963zm1991.656 3311.933c-12.681 0-23.087-10.146-23.349-22.883-.265-12.9 9.978-23.573 22.878-23.839 84.417-1.735 169.398-8.332 252.583-19.606 12.787-1.744 24.556 7.228 26.289 20.014s-7.228 24.556-20.014 26.289c-84.94 11.512-171.71 18.248-257.898 20.021-.163.002-.327.004-.489.004zm-255.811-9.215a23.5 23.5 0 0 1-2.194-.102c-85.758-7.989-171.818-21.029-255.789-38.759-12.625-2.666-20.698-15.061-18.033-27.686 2.665-12.626 15.061-20.697 27.686-18.033 82.222 17.36 166.492 30.129 250.47 37.952 12.848 1.197 22.292 12.582 21.095 25.43-1.128 12.112-11.31 21.198-23.235 21.198zm2358.656-2801.561c-10.288 0-19.712-6.848-22.534-17.254-22.012-81.173-49.022-161.94-80.28-240.057-4.794-11.979 1.031-25.577 13.011-30.371 11.98-4.792 25.577 1.032 30.371 13.011 31.926 79.786 59.514 162.279 81.996 245.187 3.377 12.453-3.981 25.286-16.435 28.664-2.047.555-4.104.82-6.129.82zm-189.733-474.306c-8.301 0-16.338-4.434-20.566-12.246-40.028-73.948-84.83-146.422-133.161-215.409-7.403-10.568-4.838-25.136 5.729-32.54 10.568-7.403 25.137-4.837 32.54 5.729 49.354 70.448 95.105 144.458 135.983 219.976 6.143 11.347 1.923 25.525-9.424 31.667a23.244 23.244 0 0 1-11.101 2.823zm-293.209-418.581c-6.451 0-12.87-2.655-17.487-7.86-55.857-62.975-115.964-123.399-178.647-179.596-9.607-8.613-10.413-23.383-1.8-32.991 8.613-9.607 23.383-10.414 32.991-1.8 64.005 57.381 125.377 119.08 182.413 183.381 8.562 9.653 7.678 24.419-1.976 32.981a23.275 23.275 0 0 1-15.494 5.885zm-380.638-341.2a23.253 23.253 0 0 1-13.486-4.301c-68.753-48.71-141.018-93.912-214.786-134.347-11.315-6.202-15.46-20.402-9.258-31.717 6.203-11.314 20.402-15.458 31.717-9.257 75.334 41.293 149.131 87.453 219.339 137.195 10.529 7.459 13.017 22.042 5.558 32.57-4.554 6.426-11.764 9.857-19.084 9.857zm-448.309-245.679c-2.929 0-5.905-.554-8.785-1.724-78.026-31.696-158.732-59.15-239.875-81.6-12.436-3.441-19.728-16.311-16.286-28.747 3.44-12.436 16.308-19.729 28.747-16.287 82.876 22.93 165.306 50.971 245 83.344 11.954 4.856 17.709 18.484 12.853 30.438-3.687 9.074-12.428 14.576-21.654 14.576z"></path><circle cx="2393.06" cy="2548.848" r="1635.07" fill="#c5f3ff"></circle><path fill="#fff" d="M2127.364 4077.744c-42.068 58.653-118.75 69.82-171.271 24.893 52.521 44.927 60.992 128.899 18.925 187.553-42.067 58.653-118.75 69.777-171.271 24.85l-54.06-46.231c28.964 24.798 44.56 61.438 45.633 99.173.873 30.694-7.859 62.073-26.707 88.38-42.068 58.652-118.751 69.777-171.272 24.851l-98.098-83.923c28.965 24.798 44.56 61.438 45.633 99.173.873 30.695-4.828 50.311-23.594 75.911-25.421 34.68-84.883 78.535-150.376 29.504L304.444 3727.375c10.104-4.81 19.284-12.353 26.617-22.534l394.453-550.083c23.07-32.169 46.859-55.3 46.859-55.3 17.968-3.113 47.64 14.541 96.714 14.057 139.33-1.373 448.903-.522 558.609 69.212 36.855 23.411 605.719 644.248 605.719 644.248l75.024 63.216c52.52 44.927 60.991 128.9 18.925 187.553z"></path><path fill="#2c2584" d="M1430.786 4647.146c-25.501.001-50.282-8.898-73.882-26.566a23.706 23.706 0 0 1-.812-.638L289.629 3745.44a23.362 23.362 0 0 1 4.773-39.161c6.896-3.283 12.852-8.361 17.703-15.096l394.423-550.042c24.005-33.473 48.526-57.432 49.558-58.435a23.371 23.371 0 0 1 12.298-6.271c12.745-2.205 25.6 1.088 40.482 4.904 15.73 4.034 35.303 9.016 59.99 8.812 16.792-.166 33.276-.249 49.357-.249 273.763 0 444.735 23.983 522.015 73.105 7.648 4.858 25.573 16.244 321.269 334.724 138.727 149.415 275.014 298.044 288.124 312.346l73.872 62.246.132.112c29.992 25.655 48.811 62.603 52.992 104.037 4.146 41.09-6.604 81.891-30.268 114.886-24.841 34.636-60.558 56.379-100.571 61.224a135.551 135.551 0 0 1-29.143.393c3.804 11.453 6.381 23.496 7.637 35.943 4.146 41.09-6.604 81.891-30.268 114.886-24.83 34.62-60.534 56.354-100.534 61.197-26.434 3.203-52.513-1.362-75.924-12.981.603 5.046.981 10.15 1.127 15.297 1.046 36.771-9.988 73.227-31.069 102.65-24.837 34.629-60.541 56.362-100.541 61.206-37.986 4.601-75.25-6.838-104.909-32.208l-14.434-12.349c.251 3.042.422 6.104.509 9.181 1.039 36.523-6.579 61.021-28.105 90.388-8.862 12.089-41.743 52.124-92.771 59.721-5.55.827-11.078 1.24-16.567 1.24zm-45.486-63.678c18.202 13.507 36.764 18.962 55.172 16.223 26.332-3.92 49.275-23.816 61.966-41.129 15.367-20.964 19.826-35.318 19.083-61.435-.926-32.573-14.585-62.493-37.474-82.09-9.8-8.391-10.944-23.136-2.556-32.938 8.389-9.801 23.135-10.949 32.938-2.562l98.098 83.923c19.595 16.761 44.07 24.331 68.918 21.327 26.855-3.251 51.069-18.182 68.181-42.041 15.16-21.159 23.095-47.479 22.338-74.1-.925-32.53-14.55-62.415-37.383-82.013l-.081-.069-.01-.009c-9.8-8.39-10.944-23.135-2.557-32.937 8.388-9.801 23.132-10.951 32.936-2.566l.01.009.013.011 54.037 46.212c19.599 16.765 44.078 24.338 68.922 21.331 26.854-3.252 51.068-18.183 68.18-42.042 35.108-48.952 28.323-119.016-15.127-156.183-5.401-4.62-8.175-11.169-8.177-17.759a23.278 23.278 0 0 1 5.609-15.182c8.388-9.806 23.136-10.954 32.94-2.567 19.583 16.751 44.043 24.321 68.881 21.313 26.868-3.253 51.095-18.193 68.218-42.068 35.094-48.931 28.332-118.953-15.069-156.133l-74.95-63.154a23.34 23.34 0 0 1-2.171-2.083c-1.405-1.533-142.163-155.128-286.336-310.434-260.936-281.083-307.143-324.467-314.842-329.978-30.435-19.283-99.781-44.885-257.389-57.604-105.985-8.553-215.299-8.586-288.304-7.866-30.802.276-54.65-5.81-72.058-10.273-4.811-1.233-10.759-2.76-15.23-3.581-8.286 8.765-23.132 25.275-37.529 45.35l-394.452 550.083a98.04 98.04 0 0 1-7.902 9.622L1385.3 4583.468z"></path><path fill="#2c2584" d="M1956.079 4126.001c-5.184 0-10.4-1.717-14.734-5.244l-209.572-170.562c-10.007-8.145-11.518-22.86-3.373-32.867 8.146-10.008 22.86-11.518 32.868-3.373l209.572 170.562c10.007 8.145 11.518 22.86 3.373 32.867-4.618 5.674-11.348 8.617-18.134 8.617zm-206.404 166.171a23.268 23.268 0 0 1-15.152-5.59l-160.919-137.288c-9.816-8.374-10.984-23.121-2.61-32.937 8.374-9.818 23.121-10.986 32.937-2.61l160.919 137.288c9.816 8.374 10.984 23.121 2.61 32.937-4.621 5.416-11.183 8.2-17.785 8.2zm-250.434 128.481a23.289 23.289 0 0 1-16.333-6.659l-36.117-35.317c-9.226-9.021-9.391-23.812-.37-33.038 9.021-9.227 23.813-9.391 33.038-.37l36.117 35.317c9.226 9.021 9.391 23.812.37 33.038a23.29 23.29 0 0 1-16.705 7.029z"></path><path fill="#88b9ff" d="m570.768 2882.979 290.958 190.559c34.016 25.839 41.506 76.008 16.731 112.056l-423.849 616.677c-24.776 36.048-72.437 44.323-106.452 18.485l-278.907-211.86 501.519-725.917z"></path><path fill="#2c2584" d="M392.234 3859.176c-20.86 0-41.094-6.814-58.21-19.815l-278.907-211.86c-9.949-7.558-12.191-21.605-5.09-31.885l501.52-725.917c7.207-10.43 21.416-13.212 32.022-6.264l290.958 190.559c.455.297.899.611 1.332.939 21.334 16.205 35.322 40.126 39.387 67.354 4.036 27.032-2.191 54.215-17.535 76.539l-423.849 616.677c-15.838 23.043-39.349 38.112-66.201 42.433a97.016 97.016 0 0 1-15.427 1.24zm-291.068-255.374 261.122 198.35c11.04 8.386 24.516 11.814 37.951 9.652 14.115-2.271 26.586-10.356 35.116-22.767l423.849-616.677c17.632-25.654 12.653-61.265-11.02-79.765l-271.148-177.584-475.87 688.791z"></path><path fill="#fff" d="M1844.853 3146.341c-21.008-5.083-112.273-20.37-170.708-25.617-153.517-13.851-264.972 11.594-390.526 66.954l-373.162 178.215c-69.122 40.916-91.986 130.114-51.069 199.235l.076.147c40.917 69.121 130.114 91.985 199.282 51.073l443.721-219.983 682.14 549.14 147.49-74.341"></path><path fill="#2c2584" d="M2184.61 3968.87a23.357 23.357 0 0 1-14.654-5.164l-670.5-539.771-429.587 212.976c-26.707 15.612-56.004 23.037-84.941 23.038-57.761.004-114.087-29.589-145.569-82.771a25.307 25.307 0 0 1-.354-.619c-22.743-38.696-29.129-83.926-17.979-127.425 11.195-43.676 38.729-80.377 77.529-103.345a23.152 23.152 0 0 1 1.833-.978l373.162-178.215c.212-.102.427-.2.643-.295 69.226-30.523 129.591-49.917 189.974-61.031 66.111-12.169 135.483-14.726 212.078-7.814 57.337 5.147 150.677 20.51 174.102 26.177 12.541 3.034 20.248 15.66 17.214 28.201-3.034 12.542-15.662 20.247-28.201 17.215-19.127-4.627-109.821-19.895-167.304-25.055-138.165-12.468-244.361 5.735-378.688 64.919l-371.864 177.595c-27.612 16.64-47.202 42.963-55.216 74.228-8.096 31.585-3.407 64.433 13.204 92.492.11.187.218.375.323.564 34.396 57.596 109.218 76.646 167.036 42.449a23.35 23.35 0 0 1 1.517-.823l443.721-219.983a23.366 23.366 0 0 1 25.028 2.732l670.415 539.702 134.048-67.565c11.522-5.81 25.571-1.175 31.378 10.347 5.808 11.522 1.175 25.57-10.347 31.378l-147.489 74.341a23.34 23.34 0 0 1-10.512 2.5z"></path><path fill="#fff" d="M1177.852 4294.678c47.916-41.994 119.655-35.742 160.262 13.957 40.572 49.661 34.61 123.939-13.305 165.933l-111.795 88.872c-46.231 25.503-104.933 15.073-140.164-28.055-17.669-21.619-26.546-47.908-26.951-74.179-.525-34.037 13.164-68.07 40.257-91.754l91.696-74.774z"></path><path fill="#2c2584" d="M1159.686 4600.51c-8.456 0-16.935-.802-25.318-2.424-30.994-5.998-59.268-23.018-79.612-47.922-20.276-24.809-31.719-56.275-32.218-88.599-.653-42.348 16.93-82.333 48.241-109.705.201-.176.405-.348.612-.517l91.388-74.521c27.81-24.224 63.115-35.9 99.459-32.87 36.807 3.063 70.179 20.784 93.968 49.898 23.458 28.714 34.725 65.112 31.727 102.492-3.002 37.433-19.951 71.452-47.725 95.794-.281.246-.568.485-.861.718l-111.795 88.871a23.385 23.385 0 0 1-3.253 2.169c-19.863 10.959-42.153 16.616-64.613 16.616zm-58.437-213.222c-20.774 18.31-32.43 45.097-31.991 73.557.337 21.839 8.037 43.061 21.681 59.754 26.85 32.869 72.483 42.487 109.164 23.258l109.705-87.209c38.108-33.786 42.726-93.436 10.214-133.232-15.697-19.211-37.595-30.894-61.659-32.897-23.745-1.971-46.869 5.741-65.112 21.73-.208.183-.42.361-.634.536l-91.368 74.503zm76.603-92.61h.01-.01z"></path><path fill="#fff" d="M790.233 4018.62c27.093-23.685 40.782-57.718 40.257-91.755-.405-26.271-9.282-52.559-26.952-74.179-35.231-43.165-93.968-53.521-140.2-28.017l-156.952 126.672c-47.917 41.995-53.878 116.272-13.306 165.971 40.572 49.662 112.346 55.913 160.263 13.956l136.89-112.648z"></path><path fill="#2c2584" d="M580.223 4182.436c-3.756 0-7.529-.156-11.315-.473-36.803-3.073-70.157-20.784-93.919-49.87-23.458-28.735-34.724-65.143-31.726-102.522 3.002-37.436 19.952-71.458 47.726-95.8.238-.208.48-.412.726-.61l156.952-126.672a23.461 23.461 0 0 1 3.388-2.276c27.346-15.086 59.285-20.137 89.936-14.226 31.021 5.983 59.308 23.005 79.649 47.928 20.271 24.801 31.714 56.268 32.212 88.591.653 42.347-16.93 82.332-48.24 109.704a22.59 22.59 0 0 1-.531.451l-136.627 112.433c-24.934 21.715-55.892 33.342-88.231 33.342zm-58.776-213.227c-38.163 33.772-42.797 93.482-10.268 133.328 15.669 19.18 37.553 30.853 61.617 32.861 23.762 1.989 46.905-5.724 65.157-21.707.18-.157.361-.312.545-.463l136.606-112.416c20.795-18.311 32.464-45.112 32.025-73.587-.336-21.839-8.036-43.06-21.681-59.754-26.812-32.852-72.415-42.459-109.127-23.259l-154.874 124.997zm268.786 49.411h.01-.01z"></path><path fill="#fff" d="m1026.718 4120.119 49.333-43.206c47.952-41.958 119.691-35.705 160.299 13.955 40.572 49.698 34.611 123.976-13.305 165.97l-136.889 112.611-89.565 78.392c-47.916 41.958-119.656 35.742-160.263-13.956-17.67-21.62-26.51-47.908-26.914-74.143-.525-34.074 13.163-68.107 40.22-91.791l177.084-147.832z"></path><path fill="#2c2584" d="M923.459 4499.021c-3.752 0-7.521-.156-11.303-.473-36.792-3.07-70.146-20.785-93.92-49.881-20.254-24.78-31.684-56.234-32.183-88.564-.653-42.355 16.912-82.351 48.192-109.73.137-.12.276-.239.416-.355l176.872-147.655 49.125-43.024c27.892-24.405 63.349-36.165 99.842-33.12 36.794 3.07 70.155 20.778 93.936 49.861 23.465 28.743 34.73 65.151 31.732 102.531-3.002 37.436-19.951 71.457-47.725 95.799-.183.16-.369.317-.556.472l-136.613 112.385-89.296 78.156c-24.985 21.877-56.062 33.598-88.519 33.598zm-58.631-213.32c-20.815 18.321-32.494 45.16-32.054 73.682.337 21.846 8.023 43.054 21.644 59.718 15.687 19.199 37.572 30.877 61.625 32.884 23.751 1.99 46.896-5.73 65.157-21.72l89.569-78.395c.179-.157.361-.312.545-.462l136.591-112.367c38.234-33.76 42.897-93.524 10.347-133.398-15.681-19.177-37.576-30.853-61.638-32.86-23.764-1.985-46.909 5.729-65.178 21.714l-49.325 43.198c-.139.122-.279.241-.42.359l-176.863 147.647zm161.89-165.582h.01-.01z"></path><path fill="#fff" d="m790.233 4018.62 89.529-78.391c47.952-41.958 119.691-35.706 160.263 13.956 17.669 21.619 26.546 47.907 26.951 74.179.525 34.037-13.164 68.07-40.257 91.755l-177.085 147.833-49.332 43.206c-47.917 41.958-119.655 35.705-160.262-13.957-40.572-49.698-34.611-123.976 13.305-165.933l136.888-112.648z"></path><path fill="#2c2584" d="M727.189 4362.325c-3.745 0-7.506-.156-11.28-.471-36.802-3.064-70.169-20.773-93.957-49.864-23.465-28.743-34.73-65.149-31.732-102.526 3.003-37.436 19.955-71.448 47.733-95.772.18-.157.361-.312.545-.463l136.613-112.422 89.259-78.155c27.899-24.411 63.364-36.173 99.863-33.116 36.785 3.078 70.126 20.788 93.884 49.868 20.277 24.811 31.72 56.277 32.218 88.601.653 42.347-16.93 82.332-48.241 109.705-.134.116-.269.231-.405.345l-176.875 147.658-49.121 43.021c-24.98 21.873-56.05 33.59-88.504 33.591zm-58.709-213.256c-38.24 33.729-42.901 93.477-10.343 133.357 15.686 19.183 37.584 30.858 61.65 32.863 23.747 1.971 46.877-5.731 65.123-21.709l49.33-43.204c.139-.122.279-.241.421-.359l176.871-147.655c20.831-18.312 32.522-45.137 32.083-73.638-.336-21.839-8.036-43.061-21.68-59.755-15.674-19.186-37.549-30.858-61.597-32.871-23.768-1.984-46.917 5.723-65.192 21.713l-89.522 78.386c-.179.157-.361.312-.545.463L668.48 4149.069zm121.753-130.449h.01-.01z"></path><path fill="#fff" d="m790.233 4018.62-136.889 112.648"></path><path fill="#2c2584" d="M653.357 4154.632c-6.744 0-13.433-2.903-18.053-8.518-8.199-9.964-6.769-24.687 3.194-32.886l136.89-112.648c9.962-8.199 24.686-6.77 32.885 3.194 8.199 9.964 6.769 24.687-3.194 32.886L668.19 4149.308a23.268 23.268 0 0 1-14.833 5.324z"></path><path fill="#ffc23f" d="M2674.419 3720.578 2361.86 3901.78c-38.12 22.1-87.682 7.831-110.698-31.872l-393.751-679.189c-23.017-39.702-10.773-89.802 27.348-111.902l314.193-196.297 475.467 838.058z"></path><path fill="#2c2584" d="M2323.21 3935.509c-36.386 0-72.278-19.416-92.26-53.883l-393.751-679.188c-29.369-50.66-13.437-114.993 35.485-143.625l313.888-196.105a23.36 23.36 0 0 1 32.699 8.285l475.467 838.058c6.325 11.148 2.486 25.312-8.603 31.74l-312.559 181.202c-15.807 9.164-33.142 13.516-50.366 13.516zm-132.551-1020.26-293.521 183.382c-.218.137-.438.27-.661.398-26.915 15.604-35.372 51.479-18.854 79.973l393.751 679.188c16.519 28.493 51.853 38.98 78.769 23.378l292.534-169.594-452.018-796.725z"></path><path fill="#88b9ff" d="M2819.123 2240.233h-88.999c-10.116 0-18.844 6.698-21.907 16.339a467.186 467.186 0 0 1-30.495 73.578c-4.659 8.987-3.221 19.9 3.937 27.057l62.942 62.942c16.835 16.836 16.836 44.132 0 60.968l-117.45 117.45c-16.836 16.836-44.132 16.836-60.968 0l-62.941-62.941c-7.158-7.158-18.071-8.596-27.058-3.938a466.996 466.996 0 0 1-73.578 30.495c-9.641 3.062-16.34 11.791-16.34 21.907v89c0 23.809-19.301 43.11-43.111 43.11h-166.099c-23.809 0-43.11-19.302-43.111-43.111v-89c0-10.116-6.698-18.845-16.34-21.907a467.087 467.087 0 0 1-73.578-30.494c-8.987-4.659-19.9-3.22-27.057 3.938l-62.941 62.941c-16.836 16.836-44.132 16.836-60.968 0l-117.45-117.45c-16.836-16.836-16.836-44.132 0-60.968l62.942-62.942c7.158-7.158 8.596-18.071 3.937-27.058a466.985 466.985 0 0 1-30.495-73.577c-3.062-9.641-11.791-16.339-21.907-16.339h-88.999c-23.809 0-43.11-19.301-43.11-43.11v-166.099c0-23.809 19.301-43.11 43.111-43.11h88.999c10.116 0 18.845-6.698 21.907-16.339a467.04 467.04 0 0 1 30.495-73.577c4.659-8.987 3.221-19.9-3.937-27.058l-62.942-62.942c-16.836-16.836-16.836-44.132 0-60.967l117.45-117.45c16.836-16.836 44.132-16.836 60.967 0l62.942 62.942c7.158 7.158 18.071 8.596 27.058 3.937a467.076 467.076 0 0 1 73.577-30.494c9.642-3.062 16.34-11.791 16.34-21.907v-89c0-23.809 19.301-43.11 43.111-43.11h166.099c23.809 0 43.111 19.301 43.111 43.11v89c0 10.116 6.698 18.845 16.34 21.907a467.116 467.116 0 0 1 73.577 30.494c8.987 4.659 19.9 3.221 27.058-3.937l62.942-62.942c16.836-16.835 44.132-16.835 60.967 0l117.45 117.45c16.836 16.836 16.836 44.131 0 60.967l-62.942 62.942c-7.158 7.158-8.596 18.071-3.937 27.058a467.025 467.025 0 0 1 30.495 73.577c3.062 9.641 11.791 16.339 21.907 16.339h88.999c23.809 0 43.111 19.301 43.111 43.111v166.099c-.001 23.807-19.302 43.109-43.111 43.109z"></path><path fill="#2c2584" d="M2343.156 2739.562h-166.099c-36.654 0-66.474-29.82-66.474-66.474v-88.623a491.828 491.828 0 0 1-77.306-32.037c-.017-.009-.032-.017-.047-.022l-62.679 62.68c-25.919 25.918-68.09 25.918-94.008 0l-117.45-117.45c-25.918-25.918-25.918-68.09 0-94.008l62.68-62.68c-.007-.015-.014-.031-.023-.047a492.02 492.02 0 0 1-32.021-77.256l-.017-.05h-88.623c-36.653 0-66.474-29.82-66.474-66.473v-166.099c0-36.653 29.82-66.474 66.474-66.474h88.623l.017-.049a491.865 491.865 0 0 1 32.02-77.257l.022-.047-62.68-62.68c-12.555-12.556-19.47-29.249-19.47-47.004s6.915-34.449 19.47-47.003l117.45-117.45c12.555-12.555 29.248-19.47 47.004-19.47 17.755 0 34.449 6.915 47.003 19.47l62.68 62.68.047-.023a491.877 491.877 0 0 1 77.257-32.019l.049-.017v-88.624c0-36.653 29.82-66.473 66.474-66.473l166.099-.001c36.654 0 66.474 29.82 66.474 66.474v88.623a491.916 491.916 0 0 1 77.352 32.059l62.68-62.68c12.555-12.555 29.248-19.47 47.004-19.47s34.449 6.915 47.004 19.47l117.45 117.449c12.555 12.556 19.47 29.249 19.47 47.004s-6.915 34.449-19.471 47.004l-62.68 62.681.022.046a491.909 491.909 0 0 1 32.039 77.306h88.622c36.653 0 66.474 29.82 66.474 66.474v166.099c0 36.654-29.82 66.474-66.474 66.474h-88.623l-.017.049a491.76 491.76 0 0 1-32.021 77.257l-.022.046 62.681 62.681c12.555 12.555 19.47 29.248 19.47 47.003 0 17.756-6.915 34.449-19.471 47.004l-117.448 117.45c-12.958 12.957-29.983 19.436-47.004 19.438-17.024.001-34.044-6.479-47.005-19.438l-62.678-62.68-.046.022a491.893 491.893 0 0 1-77.308 32.038v88.623c.001 36.654-29.818 66.474-66.472 66.474zm-310.108-233.953c7.363 0 14.811 1.748 21.734 5.337a445.059 445.059 0 0 0 69.896 28.969c19.518 6.199 32.631 23.951 32.631 44.174v89c0 10.889 8.859 19.747 19.748 19.747h166.099c10.889 0 19.747-8.858 19.747-19.747v-89c0-20.223 13.113-37.975 32.63-44.174a444.961 444.961 0 0 0 69.899-28.97c18.185-9.428 40.02-6.149 54.329 8.157l62.941 62.943c7.699 7.699 20.227 7.699 27.928 0l117.448-117.45a19.618 19.618 0 0 0 5.784-13.964 19.621 19.621 0 0 0-5.783-13.963l-62.942-62.942c-14.308-14.308-17.587-36.141-8.159-54.329a444.968 444.968 0 0 0 28.971-69.899c6.199-19.517 23.951-32.629 44.174-32.629h88.999c10.889 0 19.747-8.858 19.747-19.748v-166.099c0-10.889-8.858-19.748-19.747-19.748h-88.999c-20.223 0-37.975-13.112-44.174-32.629a444.977 444.977 0 0 0-28.971-69.897c-9.429-18.188-6.149-40.022 8.16-54.331l62.94-62.941a19.618 19.618 0 0 0 5.784-13.963 19.618 19.618 0 0 0-5.784-13.964l-117.45-117.45c-3.729-3.729-8.688-5.784-13.963-5.784s-10.233 2.054-13.963 5.784l-62.942 62.942c-14.309 14.309-36.142 17.586-54.33 8.159a444.9 444.9 0 0 0-69.896-28.969c-19.518-6.2-32.631-23.952-32.631-44.174v-89c0-10.889-8.859-19.748-19.748-19.748h-166.099c-10.889 0-19.748 8.858-19.748 19.747v89c0 20.223-13.113 37.975-32.63 44.174a445.023 445.023 0 0 0-69.897 28.969c-18.19 9.431-40.023 6.15-54.331-8.159l-62.941-62.941a19.622 19.622 0 0 0-13.963-5.784 19.618 19.618 0 0 0-13.964 5.784l-117.45 117.45a19.622 19.622 0 0 0-5.784 13.963 19.618 19.618 0 0 0 5.784 13.964l62.942 62.942c14.309 14.31 17.587 36.144 8.158 54.331a445.107 445.107 0 0 0-28.97 69.897c-6.199 19.517-23.952 32.63-44.174 32.63h-88.999c-10.889 0-19.747 8.858-19.747 19.747v166.099c0 10.889 8.858 19.747 19.747 19.747h89c20.222 0 37.974 13.113 44.173 32.629a444.946 444.946 0 0 0 28.971 69.897c9.428 18.188 6.15 40.022-8.158 54.331l-62.942 62.942a19.616 19.616 0 0 0-5.784 13.963 19.618 19.618 0 0 0 5.784 13.964l117.45 117.449c3.73 3.73 8.689 5.784 13.964 5.784s10.234-2.054 13.964-5.784l62.941-62.941c8.861-8.861 20.614-13.494 32.596-13.494zm376.433 78.938c0 .001-.001.001 0 0zm-619.851-321.1c.001 0 .001 0 0 0 .001 0 .001 0 0 0z"></path><circle cx="2260.106" cy="2114.073" r="256.263" fill="#fff" transform="rotate(-45.001 2260.093 2114.11)"></circle><path fill="#2c2584" d="M2260.106 2393.7c-74.691 0-144.912-29.086-197.726-81.901-52.814-52.814-81.9-123.035-81.9-197.726s29.086-144.911 81.9-197.726c52.815-52.814 123.035-81.901 197.726-81.901s144.911 29.086 197.726 81.901c52.814 52.815 81.901 123.035 81.901 197.726s-29.087 144.912-81.901 197.726c-52.814 52.814-123.035 81.901-197.726 81.901zm0-512.527c-128.421 0-232.9 104.479-232.9 232.9 0 128.422 104.479 232.9 232.9 232.9 128.422 0 232.9-104.479 232.9-232.9.001-128.422-104.478-232.9-232.9-232.9z"></path><circle cx="3233.053" cy="1330.023" r="478.831" fill="#ff9494"></circle><path fill="#2c2584" d="M3233.053 1832.216c-67.785 0-133.556-13.281-195.483-39.475-59.804-25.295-113.508-61.502-159.62-107.615-46.113-46.113-82.32-99.817-107.615-159.621-26.193-61.928-39.475-127.698-39.475-195.483s13.281-133.556 39.475-195.484c25.295-59.804 61.502-113.508 107.615-159.621 46.112-46.113 99.816-82.32 159.62-107.615 61.928-26.193 127.698-39.475 195.483-39.475s133.556 13.281 195.483 39.475c59.804 25.295 113.509 61.501 159.621 107.615 46.113 46.113 82.32 99.817 107.615 159.621 26.193 61.928 39.475 127.698 39.475 195.484s-13.281 133.556-39.475 195.483c-25.295 59.804-61.502 113.508-107.615 159.621-46.112 46.113-99.817 82.32-159.621 107.615-61.928 26.194-127.698 39.475-195.483 39.475zm0-957.661c-251.146 0-455.467 204.322-455.467 455.467s204.321 455.467 455.467 455.467 455.468-204.322 455.468-455.467-204.323-455.467-455.468-455.467z"></path><path fill="#2c2584" d="M3364.055 1238.968c-12.903 0-23.363-10.46-23.363-23.363v-67.506c0-12.903 10.46-23.363 23.363-23.363s23.363 10.46 23.363 23.363v67.506c0 12.902-10.46 23.363-23.363 23.363zm-262.004 0c-12.903 0-23.363-10.46-23.363-23.363v-67.506c0-12.903 10.46-23.363 23.363-23.363s23.363 10.46 23.363 23.363v67.506c0 12.902-10.46 23.363-23.363 23.363zm-48.447 296.347c-2.822 0-5.692-.515-8.48-1.602-12.022-4.687-17.968-18.232-13.281-30.254 15.618-40.058 42.594-74.26 78.009-98.91 36.267-25.241 78.869-38.583 123.201-38.583s86.935 13.342 123.201 38.583c35.416 24.649 62.391 58.852 78.009 98.91 4.688 12.021-1.258 25.567-13.279 30.254-12.027 4.688-25.568-1.26-30.254-13.28-25.52-65.45-87.411-107.741-157.677-107.741-70.267 0-132.157 42.291-157.675 107.741-3.601 9.234-12.426 14.882-21.774 14.882z"></path><circle cx="2260.106" cy="703.021" r="478.831" fill="#ffc23f"></circle><path fill="#2c2584" d="M2260.106 1205.215c-67.786 0-133.556-13.281-195.484-39.475-59.804-25.295-113.508-61.502-159.621-107.615-46.113-46.113-82.32-99.817-107.615-159.621-26.193-61.928-39.475-127.698-39.475-195.484s13.281-133.556 39.475-195.483c25.295-59.804 61.501-113.508 107.615-159.621 46.113-46.113 99.817-82.32 159.621-107.615 61.928-26.193 127.698-39.475 195.484-39.475s133.556 13.281 195.484 39.475c59.803 25.295 113.508 61.502 159.621 107.615 46.113 46.113 82.32 99.817 107.615 159.621 26.193 61.928 39.475 127.698 39.475 195.483s-13.281 133.556-39.475 195.484c-25.295 59.804-61.502 113.508-107.615 159.621-46.112 46.113-99.817 82.32-159.621 107.615-61.928 26.194-127.698 39.475-195.484 39.475zm0-957.662c-251.146 0-455.467 204.322-455.467 455.467 0 251.146 204.322 455.468 455.467 455.468s455.468-204.322 455.468-455.468c0-251.145-204.322-455.467-455.468-455.467z"></path><path fill="#2c2584" d="M2391.108 632.437c-12.903 0-23.363-10.46-23.363-23.363v-67.506c0-12.903 10.46-23.363 23.363-23.363s23.363 10.46 23.363 23.363v67.506c.001 12.902-10.46 23.363-23.363 23.363zm-262.004 0c-12.903 0-23.363-10.46-23.363-23.363v-67.506c0-12.903 10.46-23.363 23.363-23.363s23.363 10.46 23.363 23.363v67.506c.001 12.902-10.46 23.363-23.363 23.363zm131.002 296.341c-44.332 0-86.935-13.342-123.201-38.583-35.416-24.649-62.391-58.852-78.009-98.91-4.687-12.022 1.259-25.567 13.28-30.254 12.022-4.688 25.567 1.259 30.254 13.28 25.518 65.451 87.41 107.741 157.676 107.741s132.158-42.291 157.676-107.741c4.688-12.022 18.234-17.967 30.254-13.28 12.021 4.687 17.967 18.232 13.28 30.254-15.618 40.058-42.593 74.261-78.009 98.91-36.266 25.241-78.869 38.583-123.201 38.583z"></path><circle cx="1287.16" cy="1330.023" r="478.831" fill="#fff"></circle><path fill="#2c2584" d="M1287.16 1832.216c-67.785 0-133.556-13.281-195.483-39.475-59.804-25.295-113.508-61.502-159.621-107.615-46.113-46.113-82.32-99.817-107.615-159.621-26.193-61.928-39.475-127.698-39.475-195.483s13.281-133.556 39.475-195.484c25.295-59.804 61.502-113.508 107.615-159.621 46.113-46.113 99.817-82.32 159.621-107.615 61.928-26.193 127.698-39.475 195.483-39.475 67.786 0 133.556 13.281 195.484 39.475 59.804 25.295 113.508 61.501 159.621 107.615 46.113 46.113 82.32 99.817 107.615 159.621 26.193 61.928 39.475 127.698 39.475 195.484s-13.281 133.556-39.475 195.483c-25.295 59.804-61.502 113.508-107.615 159.621-46.113 46.113-99.817 82.32-159.621 107.615-61.929 26.194-127.699 39.475-195.484 39.475zm0-957.661c-251.146 0-455.467 204.322-455.467 455.467s204.322 455.467 455.467 455.467c251.146 0 455.468-204.322 455.468-455.467s-204.322-455.467-455.468-455.467z"></path><path fill="#2c2584" d="M1418.162 1260.37c-12.903 0-23.363-10.46-23.363-23.363V1169.5c0-12.903 10.46-23.363 23.363-23.363s23.363 10.46 23.363 23.363v67.506c0 12.904-10.46 23.364-23.363 23.364zm-262.004 0c-12.903 0-23.363-10.46-23.363-23.363V1169.5c0-12.903 10.46-23.363 23.363-23.363s23.363 10.46 23.363 23.363v67.506c0 12.904-10.46 23.364-23.363 23.364zm310.445 221.612h-358.886c-12.903 0-23.363-10.46-23.363-23.363s10.46-23.363 23.363-23.363h358.886c12.903 0 23.363 10.459 23.363 23.363s-10.46 23.363-23.363 23.363z"></path><circle cx="3172.021" cy="4342.099" r="333.124" fill="#fff" transform="rotate(-45.001 3171.986 4342.156)"></circle><path fill="#2c2584" d="M3172.021 4698.586c-48.115 0-94.804-9.429-138.769-28.024-42.452-17.956-80.574-43.657-113.306-76.389s-58.433-70.854-76.389-113.306c-18.596-43.965-28.024-90.653-28.024-138.769s9.429-94.804 28.024-138.769c17.956-42.452 43.657-80.574 76.389-113.306s70.854-58.433 113.306-76.389c43.965-18.596 90.653-28.024 138.769-28.024s94.804 9.429 138.769 28.024c42.452 17.956 80.574 43.657 113.306 76.389s58.433 70.854 76.389 113.306c18.596 43.965 28.024 90.653 28.024 138.769s-9.429 94.804-28.024 138.769c-17.956 42.452-43.657 80.574-76.389 113.306s-70.854 58.433-113.306 76.389c-43.966 18.595-90.654 28.024-138.769 28.024zm0-666.248c-170.803 0-309.761 138.958-309.761 309.761s138.958 309.761 309.761 309.761 309.761-138.958 309.761-309.761-138.959-309.761-309.761-309.761z"></path><path fill="#ffc23f" d="M3532.95 4090.8c-30.705-30.704-80.487-30.704-111.191 0l-250.523 250.525-91.075-91.074c-30.704-30.705-80.485-30.705-111.19 0-30.704 30.704-30.704 80.485 0 111.189l139.997 139.997c17.057 17.057 39.977 24.283 62.268 22.388 22.291 1.895 45.21-5.331 62.268-22.388l299.446-299.446c30.703-30.706 30.704-80.488 0-111.191z"></path><path fill="#2c2584" d="M3178.153 4547.48c-2.298 0-4.604-.076-6.917-.229-29.538 1.945-58.156-8.663-78.789-29.296l-139.996-139.996c-19.263-19.264-29.871-44.875-29.871-72.116s10.608-52.853 29.872-72.115c39.762-39.765 104.464-39.763 144.229 0l74.555 74.555 234.003-234.005c39.766-39.762 104.466-39.764 144.229 0l.002.001c19.262 19.263 29.87 44.873 29.87 72.115 0 27.241-10.609 52.853-29.871 72.115l-299.445 299.446c-19.018 19.019-44.82 29.525-71.871 29.525zm-153.587-296.871c-14.15 0-28.302 5.387-39.074 16.16-10.438 10.438-16.187 24.313-16.187 39.074s5.749 28.638 16.187 39.075l139.996 139.996c11.333 11.333 27.283 17.025 43.769 15.629a23.576 23.576 0 0 1 3.959 0c16.482 1.401 32.435-4.294 43.769-15.629l299.444-299.446c21.545-21.544 21.543-56.603.001-78.148-21.546-21.548-56.604-21.546-78.15-.001l-250.522 250.524c-9.125 9.123-23.916 9.123-33.041 0l-91.075-91.074c-10.774-10.773-24.925-16.16-39.076-16.16z"></path><path fill="#fff" d="M3697.168 4285.508v-390.8l524.658-1.466v392.266"></path><path fill="#2c2584" d="M4221.826 4308.872c-12.903 0-23.363-10.46-23.363-23.363v-368.838l-477.932 1.336v367.502c0 12.903-10.46 23.363-23.363 23.363s-23.363-10.46-23.363-23.363v-390.8c0-12.878 10.421-23.327 23.298-23.363l524.658-1.467h.065a23.36 23.36 0 0 1 23.363 23.363v392.267c0 12.903-10.46 23.363-23.363 23.363z"></path><path fill="#fff" d="M3959.498 2298.905c-383.092 0-700.299 287.872-734.794 652.26-1.095-.015-2.157-.161-3.256-.161h-.001c-128.261 0-233.203 102.112-233.203 226.918 0 124.804 104.941 226.917 233.203 226.917h.001c1.099 0 2.161-.146 3.256-.161 34.495 364.389 351.702 652.26 734.793 652.26h.001c383.091 0 700.298-287.872 734.793-652.26 1.096.015 2.159.161 3.257.161 128.261 0 233.203-102.113 233.203-226.917 0-124.806-104.942-226.918-233.203-226.918-1.099 0-2.161.146-3.257.161"></path><path fill="#2c2584" d="M3959.498 4080.302c-190.238 0-372.67-69.404-513.688-195.427-134.951-120.601-220.396-282.308-242.098-457.263-61.51-4.11-118.932-29.554-163.258-72.686-48.733-47.421-75.573-110.282-75.573-177.005s26.84-129.585 75.573-177.005c44.326-43.132 101.748-68.575 163.258-72.686 21.701-174.955 107.146-336.662 242.098-457.263 141.019-126.023 323.449-195.427 513.688-195.427 12.903 0 23.363 10.46 23.363 23.363s-10.459 23.363-23.362 23.363c-365.49 0-678.034 277.212-711.535 631.1-1.137 12.011-11.227 21.161-23.253 21.161l-.339-.003c-1.181-.017-2.191-.089-2.86-.136l-.328-.022c-115.59.134-209.575 91.396-209.575 203.555s93.985 203.421 209.575 203.555l.328-.022c.669-.047 1.68-.119 2.86-.136.112-.002.226-.003.339-.003 12.027 0 22.116 9.15 23.253 21.161 33.501 353.888 346.044 631.099 711.534 631.099s678.034-277.211 711.535-631.099c1.137-12.011 11.227-21.161 23.254-21.161.113 0 .225.001.338.003 1.181.017 2.192.089 2.862.136l.323.022c115.59-.134 209.578-91.396 209.578-203.555S4813.4 2974.5 4697.81 2974.366l-.323.022c-.67.047-1.682.119-2.862.136a19.27 19.27 0 0 1-.34.003c-12.748 0-23.172-10.242-23.354-23.03-.184-12.843 10.031-23.412 22.851-23.69l.387-.026c.784-.056 1.969-.141 3.38-.141 68.153 0 132.432 26.023 180.992 73.276 48.734 47.42 75.574 110.282 75.574 177.005s-26.84 129.584-75.573 177.005c-44.326 43.132-101.747 68.575-163.258 72.686-21.701 174.955-107.146 336.662-242.098 457.263-141.019 126.022-323.45 195.427-513.688 195.427z"></path><path fill="#ff9494" d="M4399.609 2664.654v437.612c0 86.279 77.061 155.609 166.428 143.899 73.831-9.674 126.98-75.641 126.98-149.35v-624.093c0-95.997-78.63-173.817-175.624-173.817h-557.844l-.101.004c-671.214 47.674-733.262 650.217-733.469 652.244l-.001.068v151.045c0 86.279 77.062 155.609 166.428 143.899 73.831-9.674 126.98-75.641 126.98-149.35V2866.4s451.984 144.798 880.223-131.615"></path><path fill="#2c2584" d="M4546.646 3270.794c-41.37.002-81.55-14.897-112.859-42.372-36.568-32.09-57.541-78.071-57.541-126.156v-325.588c-89.949 53.15-187.06 92.774-289.242 117.968-92.673 22.85-189.668 33.932-288.327 32.965-119.167-1.18-210.908-19.495-255.927-30.604v199.81c0 87.346-63.329 161.512-147.309 172.515a172.707 172.707 0 0 1-22.426 1.464c-41.37.002-81.55-14.897-112.858-42.372-36.568-32.09-57.542-78.072-57.542-126.156v-151.045c0-.138.002-.275.004-.413.01-.673.049-1.35.117-2.018.167-1.646 4.29-40.992 21.07-100.084 15.301-53.88 44.645-135.623 97.548-219.067 59.576-93.972 136.248-170.934 227.884-228.749 114.09-71.982 251.548-114.134 408.555-125.286.301-.021.603-.037.904-.047l.165-.005c.229-.007.458-.01.687-.01h557.845c109.722 0 198.987 88.454 198.987 197.18v624.094c0 87.346-63.329 161.511-147.309 172.515a173.043 173.043 0 0 1-22.426 1.461zm-123.673-535.667v367.139c0 34.635 15.175 67.816 41.635 91.035 26.837 23.551 62.705 34.37 98.395 29.699 60.802-7.967 106.652-62.214 106.652-126.185v-624.094c0-82.96-68.304-150.454-152.261-150.454H3960.33c-269.791 19.352-471.294 130.851-598.887 331.405-50.017 78.617-77.842 155.803-92.378 206.709-14.365 50.312-18.962 85.645-19.724 92.088v149.796c0 34.635 15.175 67.816 41.635 91.035 26.839 23.551 62.704 34.37 98.395 29.699 60.802-7.967 106.652-62.214 106.652-126.185V2866.4a23.362 23.362 0 0 1 30.491-22.249c1.094.349 112.818 35.386 274.306 36.75 145.854 1.25 363.058-25.586 575.426-158.938v-57.311c0-12.903 10.46-23.363 23.363-23.363s23.363 10.46 23.363 23.363v69.746c.005.244.005.487.001.729z"></path><path fill="#ff9494" d="M3751.098 3650.405v11.696c0 105.243 90.99 193.772 208.399 193.772h-2.516c117.386 0 210.915-88.529 210.915-193.772v-11.696h-416.798z"></path><path fill="#2c2584" d="M3959.497 3879.236h-2.516c-.369 0-.735-.009-1.101-.025-60.94-.858-117.861-23.423-160.64-63.76-43.532-41.048-67.507-95.509-67.507-153.351v-11.696c0-12.903 10.46-23.363 23.363-23.363h416.799c12.903 0 23.363 10.46 23.363 23.363v11.696c0 29.161-6.251 57.564-18.578 84.422-11.87 25.86-28.806 49.096-50.338 69.062-43.409 40.253-100.729 62.771-161.749 63.627-.363.017-.728.025-1.096.025zm-184.607-205.468c6.507 88.163 86.155 158.143 183.358 158.738 98.524-.596 179.256-70.575 185.851-158.738H3774.89z"></path><path fill="#fff" d="M4339.997 3348.639c0-54.56-44.229-98.79-98.79-98.79s-98.791 44.23-98.791 98.79"></path><path fill="#2c2584" d="M4339.997 3372.002c-12.903 0-23.363-10.46-23.363-23.363 0-41.591-33.836-75.427-75.427-75.427s-75.427 33.836-75.427 75.427c0 12.903-10.46 23.363-23.363 23.363s-23.363-10.46-23.363-23.363c0-67.355 54.798-122.153 122.153-122.153s122.153 54.798 122.153 122.153c0 12.903-10.46 23.363-23.363 23.363z"></path><path fill="#fff" d="M3798.98 3348.639c0-54.56-44.23-98.79-98.79-98.79s-98.79 44.23-98.79 98.79"></path><path fill="#2c2584" d="M3798.98 3372.002c-12.903 0-23.363-10.46-23.363-23.363 0-41.591-33.836-75.427-75.427-75.427s-75.427 33.836-75.427 75.427c0 12.903-10.46 23.363-23.363 23.363s-23.363-10.46-23.363-23.363c0-67.355 54.798-122.153 122.153-122.153s122.153 54.798 122.153 122.153c.001 12.903-10.459 23.363-23.363 23.363z"></path></svg>