<svg xmlns="http://www.w3.org/2000/svg" data-name="Layer 1" viewBox="0 0 32 32" id="mosque"><path d="M31.5,8h-.19092l.27686-.55371a1.508,1.508,0,0,0-.40479-1.8418L29.5,4.25944V3.5a.5.5,0,1,0-1,0v.7594L26.81885,5.60453a1.50857,1.50857,0,0,0-.40479,1.84229L26.6908,8H26.5a.5.5,0,0,0,0,1h1v8.969a3.46624,3.46624,0,0,0-1.00977-.73217L24.25,16.18253V15.5a.5.5,0,1,0-1,0v.68249l-2.24023,1.05433A3.46643,3.46643,0,0,0,20,17.96909v-1.4085l.57715-2.30909a2.49579,2.49579,0,0,0-1.40967-2.89111L16.5,10.175V9.5a.5.5,0,1,0-1,0V10.175l-2.66748,1.18542a2.49579,2.49579,0,0,0-1.40967,2.89111L12,16.56059V17.969a3.46624,3.46624,0,0,0-1.00977-.73217L8.75,16.18253V15.5a.5.5,0,1,0-1,0v.68249L5.50977,17.23686A3.46643,3.46643,0,0,0,4.5,17.96909V9h1a.5.5,0,0,0,0-1H5.30908l.27686-.55371a1.508,1.508,0,0,0-.40479-1.8418L3.5,4.25944V3.5a.5.5,0,0,0-1,0v.7594L.81885,5.60453A1.50857,1.50857,0,0,0,.41406,7.44682L.6908,8H.5a.5.5,0,0,0,0,1h1V31.5A.49971.49971,0,0,0,2,32H30a.49971.49971,0,0,0,.5-.5V9h1a.5.5,0,0,0,0-1ZM3.5,31h-1V9h1ZM1.80908,8,1.30859,7a.50283.50283,0,0,1,.13526-.61426L3,5.14018l1.55615,1.2456a.50229.50229,0,0,1,.13526.61377L4.19092,8ZM10,31H6.5v-4.2002a1.50076,1.50076,0,0,1,.89063-1.3706L8.25,25.0474l.85938.38184A1.50077,1.50077,0,0,1,10,26.79984Zm2,0H11v-4.2002a2.50182,2.50182,0,0,0-1.48437-2.28466L8.45313,24.043a.499.499,0,0,0-.40625,0l-1.0625.47217A2.50181,2.50181,0,0,0,5.5,26.79984V31h-1V23H12Zm0-9H4.5V20.40385a2.50932,2.50932,0,0,1,1.43555-2.26172L8.25,17.05277l2.31445,1.08936A2.50932,2.50932,0,0,1,12,20.40385Zm7,9H13V23.14018a4.3448,4.3448,0,0,1,3-4.11768,4.3448,4.3448,0,0,1,3,4.11768Zm0-10.94049a5.314,5.314,0,0,0-2.86279-2.04047.50385.50385,0,0,0-.27442,0A5.314,5.314,0,0,0,13,20.05955V17h6Zm.60742-6.05023L19.10938,16H12.89063l-.498-1.99072a1.49733,1.49733,0,0,1,.84619-1.73487L16,11.0474l2.76123,1.22705A1.49733,1.49733,0,0,1,19.60742,14.00932ZM25.5,31H22v-4.2002a1.50076,1.50076,0,0,1,.89063-1.3706L23.75,25.0474l.85938.38184A1.50077,1.50077,0,0,1,25.5,26.79984Zm2,0h-1v-4.2002a2.50182,2.50182,0,0,0-1.48437-2.28466l-1.0625-.47217a.499.499,0,0,0-.40625,0l-1.0625.47217A2.50181,2.50181,0,0,0,21,26.79984V31H20V23h7.5Zm0-9H20V20.40385a2.50932,2.50932,0,0,1,1.43555-2.26172L23.75,17.05277l2.31445,1.08936A2.50932,2.50932,0,0,1,27.5,20.40385Zm2,9h-1V9h1ZM30.69141,6.99955,30.19092,8H27.80908l-.50049-1a.50283.50283,0,0,1,.13526-.61426L29,5.14018l1.55615,1.2456A.50229.50229,0,0,1,30.69141,6.99955Zm-11.86084.84229a4.02594,4.02594,0,0,0,1.042.13818,3.956,3.956,0,0,0,3.27978-1.74023.5.5,0,0,0-.45117-.78174A2.98133,2.98133,0,0,1,20.002.78324.5.5,0,0,0,19.55078.0015a3.98988,3.98988,0,0,0-3.14892,5.97657A3.97248,3.97248,0,0,0,18.83057,7.84184ZM16.96826,3.2017a2.98034,2.98034,0,0,1,1.39795-1.82129,2.82082,2.82082,0,0,1,.30518-.15234,3.98108,3.98108,0,0,0,2.979,5.16015,2.75045,2.75045,0,0,1-.28418.188A3.00014,3.00014,0,0,1,16.96826,3.2017Z"></path></svg>