<svg xmlns="http://www.w3.org/2000/svg" viewBox="0 0 64 64" id="a-man-praying"><circle cx="32" cy="32" r="32" fill="#ee4dff" transform="rotate(-76.556 32 32)"></circle><path fill="#fff" d="M48.7 13.41c2.89 0 5.35-1.81 6.33-4.35a6.009 6.009 0 0 1-10.46-4.04c0-2.1 1.09-3.94 2.72-5.02a6.77 6.77 0 0 0-5.37 6.63c.01 3.75 3.04 6.78 6.78 6.78zm-17.96 6.61c-.16-.01-2.77-.26-5.27-2.88l-1.03 2.32c.77.75 4 3.63 7.22 2.65.15-.77.22-1.58.26-2.06-.05 0-.11.01-.15.01-.35 0-.69-.01-1.03-.04zM22.38 9.91l.11-.11c3.24-3.33 6.64-5.89 10.1-7.59l.14-.07-.12-.1C32 1.56 30.37.45 28.28.45c-1.28 0-2.53.42-3.71 1.26-3.62 2.55-2.77 6.48-2.24 8.05l.05.15z"></path><path fill="#fff" d="m22.65 10.48-.04.04.02.05c.42 1.4.95 2.67 1.59 3.77l.1.17.07-.18.17-.44c.61-1.71 1.19-3.32 2.15-3.42.04 0 .07-.01.11-.01.68 0 1.22.74 1.56 1.29.03.05.05.1.05.15v1.66h1.09l-.08-2.74c.09-1.97.97-3.79 2.15-4.43.3-.16.61-.24.91-.24.32 0 .64.09.93.27.34.21.68.31 1 .31.21 0 .4-.04.58-.13.48-.23.8-.75.93-1.5.28-1.5-2.12-2.41-2.68-2.57-3.66 1.73-7.22 4.4-10.61 7.95z"></path><path fill="#fff" d="M35.24 10.57a.32.32 0 0 1-.03-.14c.06-1.06-.04-2.18-.26-3.08l-.02-.09-.09.02c-.14.03-.28.05-.43.05-.42 0-.86-.13-1.29-.38-.2-.13-.41-.19-.64-.19-.21 0-.42.06-.63.17-.85.47-1.76 1.96-1.84 3.92l.09 3.02c.01.07-.02.15-.08.2-.05.04-.12.1-.21.1h-1.67a.29.29 0 0 1-.29-.29l-.02-1.89c-.49-.76-.82-.92-1.05-.92-.55.06-1.03 1.26-1.68 3.03-.11.33-.24.67-.35 1.08.27.38.52.72.79 1.03l.07-.06-.01.14c2.49 2.86 5.17 3.06 5.19 3.06.34.02.67.04.98.04.2 0 .39-.01.61-.02 1.55-.08 2.64-.45 2.71-.92.11-.78-.05-3.04-.12-3.77-.01-.16.1-.29.25-.32.53-.09 1.34-.33 1.49-.63-.21-.6-1.04-2.3-1.36-2.94-.06-.13-.1-.2-.11-.22zm18.03 17.05-.13.12.17.05c.21.06.9.3.9.97 0 .72-.76 1.64-2.94 1.89a.29.29 0 0 1-.28-.25c-.01-.16.1-.31.25-.33 1.64-.18 2.39-.8 2.39-1.31 0-.31-.46-.41-.53-.43l-.47-.01c-.08 0-.17 0-.24.01-2.1.06-3.43.87-4.78 2.07l-.05.05 1.67 3.51.07-.01c5.15-.91 7.46-5.88 7.7-8.8.12-1.35-.24-1.58-.3-1.61a.414.414 0 0 0-.2-.06c-.26 0-.39.3-.53.59l-.06.13c-.97 1.78-1.97 2.81-2.64 3.42zM35.7 34.89a.37.37 0 0 1-.46-.11l-6.1-7.66a3.699 3.699 0 0 0-2.89-1.38c-.79 0-1.6.25-2.26.77-.8.63-1.31 1.53-1.41 2.54-.1 1.01.2 1.99.86 2.77l8.09 9.55a3.35 3.35 0 0 0 4.12.78l13.36-7.11-2.4-5.03c-3.74 1.58-10.83 4.84-10.91 4.88zM11.57 61.5c.5-.02.99-.07 1.44-.15 2.49-.45 4.41-2.56 4.69-5.14l.05-.46c.17-1.5.37-3.19-.25-3.91-.22-.26-.55-.39-1-.41h-.15c-.56 0-.98.14-1.28.41-.73.69-.78 2.25-.83 4.06l-.03.69c-.1 2.53-2.04 3.52-2.88 3.82-.2.09-.33.3-.33.53 0 .15.06.29.16.4.12.11.26.16.41.16z"></path><path fill="#fff" d="M18.62 52.62c.1.56.09 1.19.04 1.85 4.66 1.49 11.33 1.04 14.74.36a8.82 8.82 0 0 1 3.79.09c2.16.52 4.02.76 5.78.75h.01c.2 0 .38.16.39.38 0 .21-.17.39-.39.4h-.18c-1.75 0-3.65-.26-5.78-.77a7.885 7.885 0 0 0-3.45-.08c-3.45.69-10.17 1.14-14.97-.34-.03.19-.05.4-.07.59l-.06.46a6.584 6.584 0 0 1-1.66 3.72c.65.64 1.88 1.4 3.06 1.47H39.1c4.4.15 7.29-.5 8.84-2.01 1.52-1.48 1.63-3.64 1.61-5.91-.03-2.53-7.88-5.3-14.61-6.9-.59-.14-1-.66-.99-1.26.01-.56.02-1.36.02-2.12a4.119 4.119 0 0 1-3.05-1.44l-8.09-9.54a4.497 4.497 0 0 1-1.04-3.36c.13-1.22.73-2.31 1.7-3.07a4.42 4.42 0 0 1 2.73-.93c1.32 0 2.62.57 3.5 1.66l3.94 4.93-.01-.2c-.04-.96-.09-1.95-.14-2.8-.17-3.1-.66-4.77-1.64-5.73-.54.17-1.08.26-1.62.26-3.06 0-5.7-2.43-6.39-3.12-1.97.65-6.46 3.79-5.84 9.51.7 6.34.68 12.62.6 23.15zm42.87 9.83H2.51a.77.77 0 0 0 0 1.54h58.98c.43 0 .77-.35.77-.77a.764.764 0 0 0-.77-.77z"></path></svg>