<svg xmlns="http://www.w3.org/2000/svg" enable-background="new 0 0 330.293 299.224" viewBox="0 0 330.293 299.224" id="raining"><path d="M74.848 132.702l10.065 25.646c1.091 2.781 2.804 4.686 3.806 4.23 1.002-.455.696-2.997-.679-5.65l-12.677-24.46C73.988 129.815 73.757 129.92 74.848 132.702zM256.287 244.205c4.494 15.191 13.186 32.867 29.206 50.823 2.471 2.778 5.902 4.195 9.349 4.195 2.953.001 5.917-1.04 8.299-3.156 5.159-4.587 5.624-12.487 1.039-17.647-12.225-13.813-19.056-26.729-22.822-37.793-3.026.476-6.232.96-9.639 1.455C266.503 242.839 261.3 243.55 256.287 244.205zM222.324 105.289c-4.639-7.436-9.428-14.594-12.614-19.269-2.424 4.612-3.271 10.081-1.997 15.554 1.254 5.383 4.346 9.856 8.454 12.921.082-.534.163-1.069.252-1.616C216.978 109.395 219.265 106.601 222.324 105.289zM215.691 286.402c-.069 6.903 5.471 12.555 12.374 12.625.043.001.085.001.128.001 6.846 0 12.43-5.514 12.498-12.375.187-17.275 2.552-30.746 5.765-41.201-11.999 1.478-21.906 2.543-26.638 3.036C217.386 259.305 215.826 271.878 215.691 286.402z"></path><path d="M297.622,157.473c-1.554-22.141-20-40.5-28.5-48.5s0.89-32.139-8.5-39c-30.333-22.166-53,9.5-53,9.5
		s8.604,12.21,16.674,25.201c0.641-0.128,1.301-0.2,1.977-0.2c0.536,0,1.078,0.044,1.609,0.13c2.635,0.423,4.947,1.848,6.513,4.016
		c1.563,2.164,2.189,4.811,1.766,7.445c-0.453,2.808-0.794,5.425-1.024,7.836c0.053,0.111,0.102,0.22,0.153,0.33
		c0.419,0.287,0.799,0.6,1.127,0.941c0.966,1.008,1.451,2.208,1.399,3.475c-0.025,0.676-0.039,1.327-0.039,1.951
		c0,0.039,0.001,0.073,0.001,0.111c0.067,0.264,0.129,0.52,0.178,0.764c0,0,0.244,0.634,0.622,1.737
		c1.267-0.724,2.669-1.632,4.062-2.648c4.09-2.967,7.412-6.236,7.443-6.267c2.47-2.471,5.732-3.819,9.205-3.819
		c3.472,0,6.736,1.349,9.189,3.803c5.07,5.066,5.072,13.314,0.003,18.387c-0.822,0.811-2.972,2.887-6.049,5.426
		c-3.188,2.613-8.1,6.418-14.005,9.318c-1.525,0.726-3.205,1.45-5.045,2.063c-0.073,7.725-1.968,15.203-7.759,19.667
		c-19.074,14.703-19,67.667-19,67.667s120.85-11.942,113.333-23.333C313.456,198.473,299.622,185.973,297.622,157.473z"></path><path d="M233.202,123.132c0.227-2.233,0.549-4.688,0.985-7.384c0.7-4.361-2.262-8.471-6.624-9.171
		c-4.361-0.707-8.471,2.259-9.171,6.62c-0.536,3.309-0.929,6.361-1.194,9.195c1.823-0.546,4.054-0.844,6.627-0.844
		C226.838,121.549,230.419,121.995,233.202,123.132z"></path><path d="M247.546 155.615c5.493-2.697 10.115-6.196 13.614-9.067 3.475-2.867 5.732-5.123 5.906-5.294 4.294-4.297 4.297-11.262 0-15.559-4.296-4.293-11.26-4.296-15.554-.001l-.001-.002c-.186.19-3.594 3.511-7.694 6.486-2.035 1.486-4.246 2.876-6.077 3.739-.529.253-1.023.462-1.458.623-.005-.023-.01-.046-.015-.069-.27-1.263-.494-3.229-.491-5.873 0-.648.014-1.326.042-2.032.242-6.069-21.738-6.949-21.98-.877-.042 1.001-.061 1.972-.061 2.909.058 7.71 1.062 13.994 4.594 19.608 1.765 2.758 4.338 5.192 7.305 6.698 2.94 1.517 6.065 2.088 8.83 2.088.021 0 .04 0 .061 0C239.733 158.937 243.856 157.369 247.546 155.615zM90.267 56.034c1.002-.455.696-2.997-.679-5.65l-12.677-24.46c-1.375-2.653-1.606-2.548-.516.233l10.065 25.646C87.553 54.584 89.265 56.489 90.267 56.034zM6.912 97.923c-1.375-2.653-1.606-2.548-.516.233l10.065 25.646c1.091 2.781 2.804 4.686 3.806 4.23 1.002-.455.696-2.997-.679-5.65L6.912 97.923zM157.267 104.034c1.002-.455.696-2.997-.679-5.65l-12.677-24.46c-1.375-2.653-1.606-2.548-.516.233l10.065 25.646C154.553 102.584 156.265 104.489 157.267 104.034zM314.912 73.923c-1.375-2.653-1.606-2.548-.516.233l10.065 25.646c1.091 2.781 2.804 4.686 3.806 4.23 1.002-.455.696-2.997-.679-5.65L314.912 73.923zM183.267 32.034c1.002-.455.696-2.997-.679-5.65l-12.677-24.46c-1.375-2.653-1.606-2.548-.516.233l10.065 25.646C180.553 30.584 182.265 32.489 183.267 32.034zM38.015 189.851c-12.648 5.339-12.487 5.585.251.591 19.654-6.878 40.913-12.862 61.65-9.775 20.095 3.965 38.97 17.81 61.987 14.062 14.854-2.88 21.943-13.308 20.977-13.672-1.057-1.148-8.912 7.188-21.804 9.89-20.505 4.128-39.741-8.678-60.752-12.496C78.588 175.821 57.586 182.481 38.015 189.851zM168.504 225.932c18.778-3.841 27.74-17.744 26.519-18.23-1.335-1.529-11.267 9.585-27.564 13.187-25.924 5.504-50.243-11.57-76.806-16.661-27.481-3.506-54.032 5.375-78.774 15.202-15.99 7.118-15.787 7.446.316.787 24.849-9.171 51.724-17.149 77.941-13.033C115.541 212.469 139.404 230.929 168.504 225.932z"></path></svg>