<svg xmlns="http://www.w3.org/2000/svg" enable-background="new 0 0 188.977 260.421" viewBox="0 0 188.977 260.421" id="pain"><path d="M188.977 173.345c0-3.006-2.44-5.443-5.443-5.443h-23.396c-3.007 0-5.443 2.437-5.443 5.443 0 0 0 22.588 0 26.002 0 4.422-5.744 5.783-5.744 5.783H87.717c0 0 0 3.78 0 7.257 0 14.364 19.05 17.69 19.05 17.69l6.047 29.029h76.162V173.345zM48.925 248.058c0 6.83 5.537 12.363 12.363 12.363 6.828 0 12.365-5.533 12.365-12.363v-98-6.404c-3.204 1.428-6.557 2.671-9.808 3.776-11.112 3.78-22.103 6.158-22.564 6.257-.716.154-1.447.232-2.175.232h-.001c-4.813 0-9.043-3.419-10.059-8.131-1.196-5.551 2.346-11.042 7.896-12.239 15.321-3.306 29.035-8.329 33.602-11.403-1.343-11.195-3.124-18.457-4.724-23.102l2.139-.83c1.752 5.056 3.647 12.9 5.021 24.961-3.985 3.553-19.852 9.235-35.552 12.623-4.318.932-7.064 5.187-6.134 9.506.809 3.751 4.124 6.316 7.812 6.316.558 0 1.124-.059 1.691-.181.459-.099 11.356-2.461 22.308-6.186 12.727-4.329 27.179-10.758 25.964-22.15-1.345-12.61-3.422-22.869-6.195-30.675-1.31-3.687-2.774-6.833-4.393-9.409-3.311-5.269-6.802-7.493-9.427-8.416-.957-.425-2.014-.665-3.129-.665h-1.73c-4.377 7.057-12.191 11.768-21.088 11.768-8.401 0-15.835-4.203-20.323-10.612-1.659.752-3.552 1.992-5.474 4.028-4.069 4.309-7.183 11.141-9.341 20.442-3.553 15.312-4.51 37.326-2.841 65.855.249 4.252 3.774 7.533 7.979 7.533.157 0 .316-.004.475-.014 4.411-.258 7.777-4.043 7.52-8.454-2.056-35.156.35-54.024 3.104-64.022l2.363.131c-2.676 9.394-5.265 27.954-3.171 63.757.161 2.747-.758 5.391-2.586 7.447-.385.433-.807.82-1.249 1.177v75.086c0 6.83 5.537 12.363 12.363 12.363 6.828 0 12.365-5.533 12.365-12.363v-90.271h4.635V248.058z"></path><path d="M43.108 83.405c12.428 0 22.5-10.073 22.5-22.5 0-12.427-10.072-22.5-22.5-22.5-12.426 0-22.5 10.073-22.5 22.5C20.608 73.332 30.682 83.405 43.108 83.405zM56.454 69.036l-.179 2.995c-15.783-.952-22.334 4.801-22.398 4.859l-2.032-2.208C32.141 74.411 39.264 68.012 56.454 69.036zM8.109 38.69c-.59-.047-1.03.009-1.321.166-.445.241-.722.722-.83 1.444s-.055 1.281.157 1.675c.565 1.045 1.318 1.313 2.261.804.317-.171.633-.538.948-1.102.316-.563.359-1.149.131-1.756l-.302-.866C9.046 38.858 8.698 38.737 8.109 38.69zM.617 26.45c.514.951 1.077 2.496 1.689 4.633.576 1.969 1.384 3.751 2.424 5.348.661.097 1.42-.086 2.277-.549.024-.611-.12-1.224-.431-1.842-.418-.815-.81-1.992-1.177-3.531-.356-1.479-.776-3.081-1.26-4.806-.484-1.725-.79-2.708-.92-2.948-.162-.3-.467-.492-.917-.576-.449-.083-.845-.033-1.188.152-.317.171-.615.542-.893 1.113-.278.571-.294 1.191-.049 1.861C.418 25.974.567 26.356.617 26.45zM12.921 15.421c-.488.286-.978.567-1.47.844-.702.401-1.268.973-1.697 1.714l.013-.007c-.541.823-.903 1.664-1.087 2.521-.184.858-.154 1.514.092 1.968.407.754 1.005.918 1.793.492 1.208-.653 1.662-1.39 1.361-2.213-.078-.246-.014-.574.191-.983.205-.41.77-.864 1.695-1.364.317-.171.662-.291 1.035-.359.372-.068.648-.07.827-.007.178.064.468.309.869.734.401.425.681.783.838 1.075.222.411.344.882.365 1.413.021.531-.084.942-.314 1.232l-1.367 1.618c-.865 1.021-1.437 1.739-1.716 2.156-.279.416-.547.949-.806 1.597.051 1.345.108 2.224.172 2.638.063.414.204.823.421 1.225.204.377.468.702.792.975.324.273.607.345.846.215.737-.398 1.202-.788 1.394-1.168.193-.381.211-.817.057-1.309-.283-.932-.47-1.761-.563-2.486 1.748-1.907 2.878-3.206 3.39-3.898.512-.691.806-1.581.883-2.668.077-1.087-.23-2.269-.919-3.546l-.007-.013c-.642-1.147-1.237-1.922-1.786-2.323-.549-.401-1.459-.662-2.73-.783C14.715 14.624 13.858 14.86 12.921 15.421zM17.951 34.751c-.577-.064-1.003-.023-1.277.125-.394.213-.654.47-.78.77-.04.11-.101.243-.183.398-.431.842-.54 1.46-.327 1.854.259.48.659.779 1.198.897.539.118 1.079.031 1.619-.26.514-.278.965-.768 1.355-1.471.39-.703.441-1.32.154-1.851C19.345 34.535 18.758 34.382 17.951 34.751zM54.682 11.087c-1.447 4.601.603 7.373 4.237 8.986.068 2.619 2.807 5.659 4.636 6.793.382.237.779.449 1.182.651.426 1.371 1.314 2.438 2.555 3.247-.231.45-.276.991-.022 1.652.123.321.304.618.51.904-1.841.949-3.121 2.342-.593 3.911 3.622 2.248 8.942 2.772 13.09 3.039 2.69.173 6.645.213 9.711-.834.049.36.073.732.049 1.126-.235 3.923-3.977 4.922-7.866 4.431-.427-2.749-5.566-3.618-8.583-3.478-.25.012-1.985.431-1.594.842 1.482 1.556 4.52 2.809 7.806 3.37.003.387-.055.811-.211 1.29-.309.945-1.238 2.337-2.199 2.731-.992.407-4.467-.58-1.619-.946.586-.075 2.502-1.097 1.008-.905-2.124.273-2.485-.025-4.358.843-.057.027-.612.292-.493.45 2.28 3.029 6.731 1.742 8.893-.843.736-.88 1.144-1.657 1.301-2.344 5.363.345 10.587-1.35 10.234-6.744-.021-.318-.071-.62-.138-.914.215-.15.42-.31.611-.482 1.261-1.138 1.003-2.266.133-3.266.085-.078.161-.158.239-.237 3.179-.823 6.241-2.047 8.92-3.773 1.198-.772 2.391-1.849 3.294-3.076 1.458-.291 2.872-.709 4.119-1.368 7.019-3.714-2.474-14.297-5.916-17.545C97.497 2.823 88.682-1.828 80.111.71c-2.15.637-4.134 1.801-5.799 3.307-2.686-.274-5.385-.295-8.031.024C61.801 4.581 56.193 6.282 54.682 11.087zM79.449 44.421c-1.588-.469-3.06-1.142-4.17-1.915C76.991 42.702 78.72 43.224 79.449 44.421zM90.568 10.689c2.116 1.286 4.627 3.088 5.801 5.448-2.528-.424-5.072-.583-7.133-.693-2.071-.11-5.181-.265-7.985.205-3.101-.007-6.293.404-9.053 1.316-1.276-4.48.116-8.875 2.973-11.919C80.76 5.967 86.316 8.105 90.568 10.689zM104.158 26.476c-.088.214-.191.419-.299.621-2.379.358-4.955.339-7.095.386-.303.007-.607.01-.911.014.509-.141 1.019-.28 1.523-.435 2.372-.727 4.966-1.613 7.216-2.948C104.628 24.858 104.497 25.649 104.158 26.476zM67.655 21.932c1.017.073 2.045.116 3.075.132-1.653 1.373-2.736 3.109-2.702 5.184-.337-.135-.669-.28-.993-.437C66.455 25.202 66.779 23.46 67.655 21.932zM89.767 25.14c-2.009-1.535-4.361-2.905-6.43-3.951.666-.102 1.255-.203 1.73-.296 2.485-.487 4.995-1.096 7.293-2.185.107-.051.702-.353.427-.53-.07-.045-.151-.086-.224-.13 1.458.056 2.956.16 4.448.35C97.387 22.8 93.644 24.603 89.767 25.14zM79.464 28.922c-1.957-.313-3.935-.433-5.893-.322-1.049-.132-2.092-.313-3.106-.567-.05-.216-.1-.433-.136-.662-.353-2.264.407-3.988 1.83-5.301.091-.001.182 0 .273-.001 2.028 2.083 4.982 3.266 8.1 3.826 2.201 1.079 4.479 1.795 5.61 1.983.959.16 1.927.275 2.898.364-3.02.454-6.078.673-9.095.68C79.786 28.923 79.624 28.922 79.464 28.922zM88.807 17.99c.58.166 1.173.39 1.437.734-.048.032-.096.064-.16.118-.342.29-1.047.357-1.472.484-2.095.627-4.284 1.002-6.456 1.284-1.128-.532-2.117-.943-2.835-1.196-.249-.088-.529-.189-.829-.297C81.98 18.267 85.899 18.027 88.807 17.99zM74.62 21.2c-.162-.166-.322-.334-.473-.513.288-.153.589-.295.898-.432-.008.318.035.63.13.937C74.991 21.198 74.805 21.196 74.62 21.2zM75.525 21.973c.017.03.032.06.05.089-.035-.028-.068-.058-.103-.087C75.489 21.975 75.507 21.974 75.525 21.973zM77.477 20.316c.574.202 1.142.411 1.703.63-.481.044-.964.083-1.448.117C77.617 20.818 77.53 20.569 77.477 20.316zM75.133 19.62c-.372.147-.752.28-1.116.443-.09.04-.177.085-.266.127-.322-.436-.606-.913-.859-1.423.798.266 1.559.529 2.263.763C75.146 19.561 75.141 19.59 75.133 19.62zM86.053 26.598c-.262-.065-.581-.163-.938-.288.983.009 1.94-.029 2.851-.106.327.306.64.618.934.935C87.941 27.005 86.99 26.831 86.053 26.598zM85.084 25.25c-1.126-.102-2.262-.267-3.373-.508-1.4-.804-2.747-1.814-3.55-2.948.874-.073 1.705-.157 2.484-.246 1.79.779 3.512 1.694 5.149 2.874.405.291.798.597 1.18.912C86.309 25.333 85.671 25.303 85.084 25.25zM92.542 17.075c-.692-.014-1.392-.016-2.095-.01-.723-.261-1.516-.488-2.359-.681.107.008.219.017.315.023 1.887.13 3.862.345 5.811.707C93.636 17.098 93.074 17.086 92.542 17.075zM85.922 17.265c-2.835.233-5.66.707-8.355 1.512.043-.124.094-.248.155-.373.409-.839 1.245-1.369 2.281-1.705C82.023 16.677 84.043 16.872 85.922 17.265zM75.896 18.192c-.002.002-.003.005-.005.007-.638-.218-1.311-.439-2.016-.657 1.194-.34 2.444-.583 3.727-.716C76.937 17.193 76.351 17.637 75.896 18.192zM71.295 20.681c.113.173.246.328.369.491-1.112-.045-2.219-.138-3.318-.271.574-.725 1.274-1.363 2.047-1.879C70.644 19.583 70.94 20.138 71.295 20.681zM71.055 29.733c.367-.082.783-.134 1.241-.157 1.374.156 2.757.231 4.109.26 3.339.466 6.844 1.393 7.898 1.793.09.034.183.071.275.106-.225.013-.45.038-.675.05-.346.018-.707.036-1.074.054-.046-.01-.095-.023-.141-.033-2.929-.636-5.847-.754-8.721-.328-.771-.154-1.516-.362-2.229-.623C71.483 30.506 71.251 30.136 71.055 29.733zM89.26 34.384c-1.069-.732-2.306-1.301-3.548-1.736.287-.03.571-.063.855-.096 1.08.489 2.133 1.065 3.038 1.775C89.492 34.347 89.376 34.365 89.26 34.384zM81.932 32.957c1.534.401 3.138.979 4.514 1.793-4.418.424-9.359.163-12.62-1.951C76.34 33.106 79.135 33.117 81.932 32.957zM83.532 35.725c1.279-.047 2.586-.159 3.897-.312.262.198.508.408.739.628-.932.289-2.073.497-3.453.604-3.647.283-11.595-.019-14.419-3.663.154-.069.321-.118.481-.177C74.056 35.627 79.428 35.875 83.532 35.725zM90.099 35.022c.07-.012.139-.022.209-.034-.041.033-.091.062-.134.094C90.15 35.061 90.123 35.042 90.099 35.022zM91.475 33.326c-.642-.438-1.338-.829-1.976-1.152.717-.103 1.407-.209 2.074-.318C91.643 32.37 91.612 32.863 91.475 33.326zM87.988 31.464c-1.615-.714-3.311-1.314-5.047-1.79 2.44-.167 4.877-.462 7.289-.895.532.768.932 1.538 1.161 2.281C90.259 31.217 89.125 31.35 87.988 31.464zM100.888 19.204c1.72.846 3.038 2.171 3.515 3.797-1.833 1.593-4.528 2.499-6.758 3.229-1.484.486-3 .897-4.534 1.246-.254-.008-.507-.018-.761-.029-.507-.549-1.084-1.089-1.712-1.614 3.862-.795 8.484-2.983 8.725-7.052.4.082.797.174 1.19.275C100.662 19.107 100.778 19.15 100.888 19.204zM69.95 17.873c-1.461.715-2.716 1.615-3.658 2.718-.333-.06-.668-.11-.999-.18-1.274-.27-2.682-.654-3.988-1.229.071-.951.644-1.7 2.044-1.969 1.956-.375 4.306.024 6.597.648C69.947 17.866 69.949 17.87 69.95 17.873zM61.646 21.014c1.203.313 2.498.545 3.844.711-.561.953-.926 2.024-1.022 3.234-.004.054.002.101-.001.154C63.423 24.116 62.228 22.524 61.646 21.014zM69.947 31.984c.109.125.23.237.345.354-.116.037-.232.078-.348.117-.095-.161-.199-.316-.275-.488-.013-.029-.017-.054-.029-.083C69.741 31.919 69.845 31.951 69.947 31.984zM84.756 39.388c-4.629.28-10.444-.526-14.651-2.567-1.587-.77-2.654-1.54-1.588-2.663 2.414 2.196 7.169 3.168 9.673 3.41 3.174.307 7.258.308 10.672-.758.372.48.667 1.006.869 1.583C88.29 39.024 86.171 39.302 84.756 39.388zM90.996 35.939c.026-.014.052-.027.079-.041.054.101.096.198.13.294C91.139 36.104 91.065 36.023 90.996 35.939zM93.98 33.331c.352-.642.487-1.301.437-1.968 1.428-.265 2.614-.508 3.443-.683.895-.188 2.057-1.167.437-.826-1.327.279-2.663.527-4.003.755-.194-.722-.588-1.447-1.117-2.164 2.189.019 4.381-.084 6.544-.253 1.175-.092 2.428-.189 3.687-.35C101.382 30.773 97.308 32.378 93.98 33.331zM86.479 1.163c6.433 1.087 12.393 5.289 16.742 10.005 2.646 2.869 10.17 12.163 4.283 14.918-.472.221-.984.395-1.51.548.759-1.309 1.134-2.738.829-4.141.517-.454 1.009-.933 1.436-1.473.039-.076.023-.136-.049-.182-1.413-1.308-3.279-2.15-5.315-2.697-1.14-.6-2.422-1.058-3.764-1.414-1.408-5.192-8.275-8.165-12.765-9.835-3.296-1.226-6.804-2.16-10.362-2.667C78.733 1.795 82.494.489 86.479 1.163zM73.496 4.804c-2.993 3.122-4.679 7.421-3.911 11.622-4.065-.829-8.128-.875-10.042 1.615-.032.042-.051.088-.081.131-1.4-.958-2.476-2.258-2.794-4.048-.777-4.367 2.509-7.705 6.436-8.775C66.3 4.48 69.879 4.371 73.496 4.804z"></path></svg>