<svg xmlns="http://www.w3.org/2000/svg" data-name="Step 10" viewBox="0 0 1080 1080" id="muslim-prayer"><path fill="#e7e8ea" d="M237.32 223.75h610.94a55.06 55.06 0 0 1 55.06 55.06v314.34H181.95v-314a55.37 55.37 0 0 1 55.37-55.4Z"></path><path fill="#e7e8ea" d="M358.78 124.69h383.45a107.54 107.54 0 0 1 107.53 107.54v148H235.51V248a123.27 123.27 0 0 1 123.27-123.31Z"></path><path fill="#204649" d="M819.24 230.47a100.43 100.43 0 0 0-99.91-90.29h-344A115.15 115.15 0 0 0 263 230.42a51.7 51.7 0 0 0-51.49 51.69v284.78h657.03V281.83a51.4 51.4 0 0 0-49.3-51.36Z"></path><path fill="#f6bc51" d="m555.11 288.34 4.76-11.4a.93.93 0 0 1 1.72 0l4.76 11.4a.88.88 0 0 0 .5.5l11.4 4.76a.93.93 0 0 1 0 1.72l-11.4 4.76a.88.88 0 0 0-.5.5L561.59 312a.93.93 0 0 1-1.72 0l-4.76-11.4a.91.91 0 0 0-.5-.5l-11.4-4.76a.93.93 0 0 1 0-1.72l11.4-4.76a.91.91 0 0 0 .5-.52zm161.73 77.17 4.76-11.4a.93.93 0 0 1 1.72 0l4.76 11.4a1 1 0 0 0 .5.5l11.4 4.76a.93.93 0 0 1 0 1.72l-11.4 4.76a.94.94 0 0 0-.5.5l-4.76 11.4a.93.93 0 0 1-1.72 0l-4.76-11.4a.88.88 0 0 0-.5-.5l-11.4-4.76a.93.93 0 0 1 0-1.72l11.4-4.76a.94.94 0 0 0 .5-.5zM300.14 356l4.77-11.4a.93.93 0 0 1 1.71 0l4.76 11.4a1 1 0 0 0 .51.5l11.39 4.76a.93.93 0 0 1 0 1.72l-11.39 4.76a.93.93 0 0 0-.51.5l-4.76 11.4a.93.93 0 0 1-1.71 0l-4.77-11.4a.88.88 0 0 0-.5-.5L288.25 363a.93.93 0 0 1 0-1.72l11.39-4.76a.94.94 0 0 0 .5-.52zm174.67 105.86 3.18-7.62a.62.62 0 0 1 1.15 0c3.45 8.27 3.18 7.81 3.52 7.95l7.62 3.19a.62.62 0 0 1 0 1.15c-8.27 3.45-7.82 3.18-8 3.51l-3.18 7.63a.62.62 0 0 1-1.15 0c-3.46-8.27-3.18-7.82-3.52-8l-7.62-3.18a.62.62 0 0 1 0-1.15c8.31-3.42 7.86-3.14 8-3.48zM302 505.84l3.18-7.62a.62.62 0 0 1 1.15 0c3.45 8.27 3.18 7.82 3.52 8l7.62 3.18a.62.62 0 0 1 0 1.15c-8.27 3.45-7.82 3.18-8 3.52l-3.18 7.62a.62.62 0 0 1-1.15 0c-3.45-8.27-3.18-7.82-3.52-8l-7.62-3.18a.62.62 0 0 1 0-1.15c8.32-3.45 7.87-3.18 8-3.52zm471.61 12.1 3.18-7.62a.62.62 0 0 1 1.15 0c3.45 8.27 3.18 7.81 3.52 7.95l7.62 3.19a.62.62 0 0 1 0 1.15c-8.27 3.45-7.82 3.18-8 3.51l-3.18 7.63a.62.62 0 0 1-1.15 0c-3.45-8.27-3.18-7.82-3.52-8l-7.62-3.18a.62.62 0 0 1 0-1.15c8.31-3.42 7.86-3.15 8-3.48zm-81.7-317.54 3.19-7.62a.62.62 0 0 1 1.15 0c3.45 8.27 3.18 7.82 3.51 8l7.63 3.18a.62.62 0 0 1 0 1.15c-8.27 3.45-7.82 3.18-8 3.52l-3.18 7.62a.62.62 0 0 1-1.15 0c-3.46-8.27-3.19-7.82-3.52-8l-7.54-3.18a.62.62 0 0 1 0-1.15c8.23-3.46 7.77-3.18 7.91-3.52zm93.79 120.16 3.19-7.63a.62.62 0 0 1 1.15 0c3.45 8.27 3.18 7.82 3.51 8l7.63 3.18a.62.62 0 0 1 0 1.15c-8.27 3.46-7.82 3.18-8 3.52l-3.18 7.58a.62.62 0 0 1-1.15 0c-3.46-8.27-3.19-7.81-3.52-7.95l-7.62-3.19a.62.62 0 0 1 0-1.15c8.29-3.45 7.85-3.18 7.99-3.51zm-412.49-95.97 3.18-7.62a.62.62 0 0 1 1.15 0c3.46 8.27 3.19 7.82 3.52 8l7.62 3.18a.62.62 0 0 1 0 1.15c-8.27 3.45-7.81 3.18-7.95 3.52l-3.19 7.62a.62.62 0 0 1-1.15 0c-3.45-8.27-3.18-7.82-3.51-8l-7.63-3.18a.62.62 0 0 1 0-1.15c8.27-3.45 7.82-3.18 7.96-3.52z"></path><path fill="#e7e8ea" d="M224.22 961 89.91 748.44l612.51-65.52 287.67 165.74L224.22 961z"></path><path fill="#c1c1c1" d="M444.61 908.43 287.05 741.16l402.26-43.15 235.51 140.95-480.21 69.47z"></path><path fill="#c1c1c1" d="M411.4 873.16c-99.31 10.74-195.82-8.67-218-40.37-20.4-29.19 29.18-60.23 112.39-71.74 86.75-12 187.12.24 223.48 30 39.73 32.59-13.62 70.85-117.87 82.11Z"></path><path fill="#c1c1c1" d="M291.62 771.79c-27.75-1.12-45.88-7.07-41.14-13.25s30.23-10.36 57.68-9.53c28.12.85 47.92 6.7 43.55 13.11s-31.63 10.88-60.09 9.67zm81.48 94.83c-22.81 8.83-27.94 20.62-11.08 26.45 17.25 5.95 50.78 3.41 74.52-5.81s27.84-21.26 9.66-26.83c-17.77-5.43-50.32-2.63-73.1 6.19z"></path><path fill="#f99478" d="M476.26 457.86c-14.06-10-18.42-17.06-19.56-21.84-2.83-11.94-5-12-7.37-18.2-3.05-8-1.06-12-4.69-14.55a6.4 6.4 0 0 0-5.5-1.1c-3.86 1.38-5.81 8.95-3.82 18.86a55.08 55.08 0 0 1-15.47-14.88c-7.65-11.28-6.92-16.06-11.91-19-1-.6-2.36-1.37-3.57-.91-3.64 1.39-2.21 12.4-2.06 13.49-3.53-5.1-8.61-7-10.91-5.7-2.46 1.43-3.36 7.54.55 13.62-2.68-1.47-5.29-1.67-6.68-.44-.5.44-1.19 1.28-1.14 3.55.13 5.74 4.31 11.43 4.31 11.43s-8.53-3-7 5.66 12.25 26.15 21.7 32.65 25.1 9.8 39.4 24.15Z"></path><path fill="#a59d71" d="M575.36 372.61c-19.82 9.44-8.52 43.94-42.32 122.32A655.81 655.81 0 0 1 460 439l-34.85 36S488.46 572.39 538 577.47s83.45-129.8 83.45-129.8c9.86-25.77 5.73-52-10.22-66-8.43-7.3-24.06-14.67-35.87-9.06Z"></path><path fill="#1c3c3d" d="M503.23 631.8c-68 42.53-98.2 100.81-82.77 136.25C431.31 793 462.62 801.8 471 804.16c68 19.19 142.18-47 144.86-48.28L653 661.3Z"></path><path fill="#e5806e" fill-rule="evenodd" d="M633 724.37q37.4-23.26 75.73-49a123.44 123.44 0 0 1 36.5 16.94c21.36 14.64 49.27 44 41.59 59.37-7.42 14.86-44.72 10.15-50.54 9.37l-87.76 42.13Z"></path><path fill="#f99478" fill-rule="evenodd" d="M675 746.92q37.41-23.25 75.74-49a123.34 123.34 0 0 1 36.49 17c21.37 14.64 49.28 44 41.59 59.36-7.42 14.87-44.72 10.16-50.53 9.37l-87.77 42.13Z"></path><path fill="#f99478" d="M563.7 511.29c-14.68-9.08-19.5-15.83-20.94-20.52-3.61-11.72-5.78-11.62-8.54-17.69-3.57-7.81-1.84-11.87-5.63-14.21a6.47 6.47 0 0 0-5.56-.74c-3.76 1.63-5.22 9.31-2.58 19.08A55.21 55.21 0 0 1 504 463.37c-8.37-10.76-8-15.58-13.12-18.14-1.07-.54-2.45-1.22-3.62-.68-3.55 1.62-1.4 12.52-1.18 13.59-3.73-4.62-8.42-6.12-10.6-4.64-2.59 1.77-1.4 7.57-1.33 7.9a12.44 12.44 0 0 0 3.28 6c-3.31-1.85-6.42-2.11-7.86-.69-.36.36-1.13 1.2-.91 3.62.5 5.72 5.05 11.13 5.05 11.13s-8.72-2.43-6.66 6.1 14 25.26 23.81 31.13 25.69 8.15 40.9 21.53Z"></path><path fill="#bc5c46" d="M487.08 499.64c-4.6-3.43-13.24-17.42-13.6-18a.32.32 0 0 1 .54-.34c.09.15 8.94 14.48 13.44 17.84a.32.32 0 0 1-.38.5zm10.08-8.81c-8-3.63-19.48-22.46-20-23.26a.32.32 0 1 1 .54-.33c.12.19 11.83 19.46 19.68 23a.32.32 0 0 1-.22.59zm7-9.77c-7.25-4.72-17.86-22-18.31-22.75a.32.32 0 1 1 .54-.33c.11.18 11 17.91 18.12 22.55a.32.32 0 0 1-.35.53z"></path><circle cx="626.66" cy="224.03" r="95.8" fill="#f99478"></circle><rect width="60.96" height="132.71" x="600.71" y="280.32" fill="#e5806e" rx="13.26" transform="rotate(6.14 631.169 346.671)"></rect><path fill="#f99478" d="M537.59 171.15c-4.74 19.67-18.36 84.44 8.12 132.13 9.28 16.71 19.18 23.55 23.07 26 25.68 16.09 56.45 7.12 67 4.07 60.77-17.7 83.53-90.2 86.18-99.06Z"></path><ellipse cx="646.54" cy="276.32" fill="#e57b6a" rx="8.29" ry="12.09" transform="rotate(-83.89 646.52 276.325)"></ellipse><ellipse cx="550.05" cy="267.07" fill="#e57b6a" rx="8.29" ry="12.09" transform="rotate(-83.89 550.04 267.072)"></ellipse><path fill="#bc5c46" d="M587 261.18c-.43-.93-.58-2.28 2.28-8.55 1-2.24 2.14-4.46 3.31-6.6a.85.85 0 0 1 1.5.82c-.94 1.71-6.31 12-5.55 13.61 1 2 5.5 2.16 7.78 2a.84.84 0 0 1 .92.77.85.85 0 0 1-.77.92c-3.18.25-8.14-.07-9.47-2.97Z"></path><path fill="#020202" d="M541.59 223a22 22 0 0 1 12.67-3.92c3.07 0 7.23-.05 8.46 2.37a3.35 3.35 0 0 1-.14 3.39c-1.47 1.9-5.05.1-10.89-.05-7.7-.2-12.75 2.64-13.23 1.52-.36-.83 2.14-2.63 3.13-3.31zm110.34 9a21.93 21.93 0 0 0-12.29-5c-3.06-.29-7.19-.69-8.64 1.62a3.35 3.35 0 0 0-.15 3.38c1.3 2 5 .55 10.86.91 7.68.47 12.46 3.73 13 2.67.47-.8-1.86-2.82-2.78-3.58z"></path><path fill="#bc5c46" d="M594.74 301.06c-3.13 0-7-.6-9.77-3.11a.42.42 0 0 1 .57-.63c4.87 4.45 14.08 2.41 14.17 2.39a.43.43 0 1 1 .19.83 25.51 25.51 0 0 1-5.16.52Z"></path><path fill="#020202" d="M668.86 316.79c2.24 2.57 16.06-3.84 25.92-13.52A73.21 73.21 0 0 0 709.07 283c7.68-15.19 11.08-32.39 11.08-32.39a151.5 151.5 0 0 0-17.89 10.14c-10 6.65-14.55 8.69-18.66 13.76a41.25 41.25 0 0 0-5 7.82c-4.62 9.42-2.12 13.68-6.37 25.17-2.39 6.39-4.33 8.19-3.37 9.29Z"></path><path fill="#f99478" d="M687.4 246.93c1.3-.8 8.39-5 16.63-2.5 1.2.36 6 1.81 8.6 5.63 9.12 13.38-10.22 53-38 31.71Z"></path><path fill="#bc5c46" d="M690.11 277c4.19-2.56 6.52-5.62 6.93-9.1.69-6-4.67-11.4-4.73-11.45a.43.43 0 0 1 .41-.72l14.07 3.84a.43.43 0 0 1-.23.82l-12.67-3.46c1.61 1.94 4.55 6.23 4 11.07-.43 3.75-2.9 7-7.33 9.72a.42.42 0 0 1-.45-.72Z"></path><path fill="#020202" d="M531 215.7c2.55.7 3.92-20.54 18.21-34.49 28.69-28 95.5-12.94 108.14 9.09 1.76 3.07 4.37 9.57 11 18.42 6.3 8.47 9.42 9.93 11.93 16.56 1.11 2.93 3.87 10.24 1.93 18.5-1.14 4.85-3.81 9.69-3.18 17.42.14 1.8.39 2.78 1 3 2.83.91 7-18.22 17.89-20.54 6.42-1.37 11.91 3.78 12.34 4.2 5 4.8 6.27 12.93 3 20.44a120.39 120.39 0 0 0 9.19-78.42l-56.22-22.51-70.72-8.92-56.78 10.62c-7.28 20.5-10.42 45.87-7.73 46.63Z"></path><path fill="#c3bc86" d="M725.46 211.25a875.16 875.16 0 0 0-192.62-20.73l7.72-71.8a5.73 5.73 0 0 1 5.07-5.09 426.61 426.61 0 0 1 183.15 19.58 6.44 6.44 0 0 1 4.34 6.8Z"></path><path fill="#a59d71" d="M733.12 140a6.44 6.44 0 0 0-4.34-6.8 426.23 426.23 0 0 0-111.27-21.49c17.19 3.07 46.72 10.23 56 24.29 12.25 18.52 4.13 52.59 12.83 67.64a911.78 911.78 0 0 1 39.11 7.6Z"></path><path fill="#22484b" d="M729.59 174.55c-2.51 0-60.57-17-143.43-20.38-25.22-1-49.08-.34-49.2-.34a1.7 1.7 0 0 1 0-3.4A728 728 0 0 1 730 171.2a1.71 1.71 0 0 1 1.25 2.06 1.7 1.7 0 0 1-1.66 1.29zM610.64 674.1c-9.54 4.25-155.89 70.82-147.85 135.43a49.34 49.34 0 0 0 7.54 20.25c26.76 39.78 109 24.51 150.83 17.61 61.69-10.18 109-33.67 138.85-51.7q-20.07-52.16-40.15-104.29z"></path><path fill="#c3bc86" d="M598.85 343.84a18.31 18.31 0 0 1 9.79 24.16s4.35-12.49 9.65-14.46c9.61-3.58 19-2.79 45.5-6.31l-.36 13.94c30.53 19.52 46.69 40.81 55.46 55.29 17.11 28.23 19.36 80.34 23.31 183.39a543.46 543.46 0 0 1-2.43 74.25c-2.82 28.07-3.61 42.42-10 54.46-20.23 38-64.67 51.14-86.54 56-49.51-14.59-74.63-37-88.46-55.34-7.84-10.4-13-20.7-26.5-35a184.26 184.26 0 0 0-55.68-40c37.69-29 54.17-58.07 62.28-78.42 26.8-67.2 22.37-189.09 41.26-204.32A82.52 82.52 0 0 0 591.22 356a81.51 81.51 0 0 0 7.63-12.16Z"></path><path fill="#a59d71" d="M729.74 728.56c6.42-12 7.21-26.39 10-54.46a543.46 543.46 0 0 0 2.43-74.25c-4-103-6.17-155.16-23.31-183.43-8.77-14.48-24.93-35.77-55.46-55.29-1.68 10.35 26.06 18.7 24.11 36.87s-22.21.74-24 18.9 15.49 59.07 19.81 85.58S655 596.7 655 596.7s-42.16-10.92-45.64-11.55-54.75-35.51-54.75-35.51a158.66 158.66 0 0 1-6.1 16.82c6.88 8.26 36 42.28 61.87 59.14 29.6 19.27 65.77-3.65 77.14-23.87 1-1.74 2.32-3.65 4.06-3.63 9.84.1 31 65.16 10 119.52-14 36.32-42.63 57-58.8 66.69l.39.2c21.9-4.81 66.34-17.99 86.57-55.95Z"></path><path fill="#22484b" d="m599.657 450.038 55.045 7.834-1.502 10.553-55.045-7.834z"></path><path fill="#c3bc86" d="M649.23 412.13c-18.14 11.95-2.38 44.21-24.83 125.59a649 649 0 0 1-79.16-44.83l-29.24 40s75.26 86.74 124.46 85 64.1-138.52 64.1-138.52c6.15-26.59-1.46-51.75-19-63.23-9.21-6.02-25.56-11.14-36.33-4.01zm-40.13-45.39c-.3.76-.46 1.22-.46 1.22.09-.21.26-.63.46-1.22z"></path><path fill="#22484b" d="M604.76 417.94a1.27 1.27 0 0 1-1.27-1.39l4.34-49.92a1.27 1.27 0 0 1 2.54.22L606 416.78a1.27 1.27 0 0 1-1.24 1.16Z"></path><path fill="#7c754c" d="M636.48 553.81a.83.83 0 0 1-.69-.35 95.79 95.79 0 0 0-11.13-13 104.07 104.07 0 0 0-23.29-16.69c-14.91-8.31-31-16.56-47.86-24.53a.85.85 0 0 1 .73-1.53c16.88 8 33 16.25 48 24.58a105.21 105.21 0 0 1 23.64 16.95 96.47 96.47 0 0 1 11.33 13.2.85.85 0 0 1-.73 1.37Z"></path><path fill="#7c754c" d="M624.4 538.57a.85.85 0 0 1-.83-1c.12-.57 11.94-56.88 13.57-81 1.69-24.88-.56-59.3 38.08-46.36a.87.87 0 0 1 .54 1.08.85.85 0 0 1-1.08.53c-11-3.68-19.06-3.63-24.62.17-11 7.53-10.19 29.36-11.22 44.69-1.64 24.22-13.48 80.65-13.6 81.22a.86.86 0 0 1-.84.67Z"></path><path fill="#020202" d="M640 251.55c-9.36 0-15.35-7.59-15.43-7.7a.85.85 0 0 1 .15-1.19.86.86 0 0 1 1.2.16c.39.51 9.91 12.51 23.83 4.05a.85.85 0 0 1 1.17.28.86.86 0 0 1-.28 1.17 20.32 20.32 0 0 1-10.64 3.23zM540.28 238a.85.85 0 0 1 1.4-1c5.9 8.44 17 8.2 23.47.68a.85.85 0 0 1 1.29 1.11c-7.25 8.43-19.67 8.44-26.16-.79z"></path><path fill="#fff" fill-rule="evenodd" d="M600.08 280.8s-21.71-2.88-21.06 3.5 10.18 12.2 18.31 11.36 23.83-11.47 2.75-14.86Z"></path><path fill="#bc5c46" d="M431.76 441.78c0-.12-1.22-12.21 3.28-20.9a.32.32 0 0 1 .57.3c-4.42 8.52-3.23 20.41-3.22 20.53a.32.32 0 0 1-.63.07zm-17.09-22.71c-3.72-3.33-12.28-18.5-12.64-19.14a.32.32 0 0 1 .56-.31c.09.15 8.86 15.71 12.5 19a.32.32 0 0 1-.42.45zm-11.22 5.54c-4-4.36-11.69-16.63-11.77-16.75a.32.32 0 0 1 .54-.34c.08.12 7.77 12.34 11.7 16.66.29.31-.19.73-.47.43zm-5.32 12.07c-3.72-3.83-9.71-13.86-10-14.29a.32.32 0 0 1 .55-.32c.06.1 6.2 10.39 9.87 14.17.34.3-.13.76-.42.44zm6.15 9.85c.06-.16 5.89-16.41 16.23-23.88a.32.32 0 1 1 .37.51c-10.17 7.36-15.94 23.42-16 23.58a.32.32 0 0 1-.6-.21z"></path></svg>