<?xml version="1.0" encoding="utf-8"?>
<!-- Generator: Adobe Illustrator 24.0.0, SVG Export Plug-In . SVG Version: 6.00 Build 0)  -->
<svg version="1.1" xmlns="http://www.w3.org/2000/svg" xmlns:xlink="http://www.w3.org/1999/xlink" x="0px" y="0px"
	 viewBox="0 0 256 256" enable-background="new 0 0 256 256" xml:space="preserve">
<g id="Layer_2">
</g>
<g id="Layer_1">
	<g>
	</g>
	<g>
		<path fill="#FC5D3D" d="M223.41,34.45c-22.1-22.09-57.93-22.09-80.02,0L128,49.84l-15.39-15.39c-22.1-22.1-57.93-22.09-80.02,0
			c-9.72,9.72-15.16,22.1-16.33,34.8c-0.62,6.79-0.03,13.66,1.79,20.27c2.51,9.14,7.36,17.77,14.54,24.95l15.52,15.52l6,6.01v-9.07
			h30.78v13.73c0,7.18-5.82,13-13,13h6.78c4.47,0,8.62,1.34,12.08,3.67c2.11,1.42,3.97,3.2,5.48,5.27
			c3.94-4.18,9.54-6.78,15.75-6.78h32.04c6.21,0,11.81,2.6,15.75,6.78c1.5-2.06,3.36-3.85,5.47-5.27c3.46-2.31,7.62-3.67,12.09-3.67
			h6.54c-7.18,0-13-5.82-13-13v-13.73h30.78v9.3l6-6l15.76-15.76c6.463-6.463,11.034-14.097,13.716-22.218
			C243.648,72.5,238.962,50.002,223.41,34.45z"/>
		<path fill="#B34F33" d="M207.65,130.23l-6,6v-9.3h-30.78v13.73c0,7.18,5.82,13,13,13h-6.54c-4.47,0-8.63,1.36-12.09,3.67
			c-2.11,1.42-3.97,3.21-5.47,5.27c-3.94-4.18-9.54-6.78-15.75-6.78h-32.04c-6.21,0-11.81,2.6-15.75,6.78
			c-1.51-2.07-3.37-3.85-5.48-5.27c-3.46-2.33-7.61-3.67-12.08-3.67h-6.78c7.18,0,13-5.82,13-13v-13.73H54.11V136l-6-6.01v-12.4
			c0-6.07,4.93-11,11-11l16.33,0.01c0.94,0,1.89-0.24,2.75-0.68l6.63-3.47c3.01-1.56,6.66-0.34,8.15,2.64
			c3.97,7.96,3.11,17.13-2.08,24.02v10.38c0,3.57-0.95,6.95-2.6,9.88c3.15,1.18,5.91,2.82,8.47,5.01c3.19-2.1,6.81-3.51,10.59-4.15
			c-2.16-3.6-3.41-7.8-3.41-12.3V116.1c0-7.72,6.28-14,14-14h16.78c1.27,0,2.53-0.31,3.65-0.89l7.71-4.03
			c3.01-1.56,6.7-0.35,8.17,2.69c4.637,9.531,3.134,19.736-2.54,27.09v10.97c0,4.47-1.24,8.66-3.38,12.24
			c3.89,0.62,7.62,2.05,10.91,4.21c2.49-2.17,5.33-3.81,8.26-4.92c-1.67-2.95-2.63-6.35-2.63-9.97v-21.91c0-6.07,4.93-11,11-11
			l16.32,0.01c0.95,0,1.9-0.24,2.76-0.68l6.63-3.47c2.99-1.55,6.65-0.36,8.15,2.64C216.53,118.72,207.65,128.02,207.65,130.23z"/>
		<path fill="#FFCBC3" d="M214.571,109.166c-0.977-0.976-0.977-2.559,0-3.535c8.312-8.312,12.89-19.382,12.89-31.171
			c0-11.789-4.577-22.858-12.888-31.169c-8.335-8.331-19.407-12.919-31.177-12.919c-7.483,0-14.877,1.911-21.382,5.525
			c-1.209,0.669-2.729,0.235-3.4-0.971c-0.67-1.207-0.235-2.729,0.971-3.4c7.246-4.026,15.479-6.154,23.811-6.154
			c13.105,0,25.432,5.108,34.712,14.384c9.255,9.256,14.353,21.581,14.353,34.705c0,13.125-5.098,25.45-14.354,34.706
			C217.131,110.143,215.547,110.143,214.571,109.166z M148.693,43.289c-0.977-0.976-0.977-2.559,0-3.535
			c0.739-0.74,1.513-1.466,2.301-2.161c1.036-0.913,2.616-0.814,3.528,0.223c0.913,1.036,0.813,2.615-0.223,3.528
			c-0.709,0.625-1.406,1.28-2.072,1.945C151.253,44.266,149.669,44.266,148.693,43.289z"/>
		<path fill="#72C2E9" d="M216.97,175.38v24.44c-5.45,5.45-2.2,2.2-14.93,14.93c-3.35,3.34-9.06,3.59-12.46,0.3
			c-3.52-3.4-3.55-9.01-0.11-12.46l11.05-11.05c3.07-3.07,3.25-8.07,0.24-11.2c-3.09-3.26-8.23-3.28-11.36-0.14
			c-0.07,0.07-23.59,23.58-23.66,23.65c-5.13,5.25-7.71,10.83-8.71,16.98H98.97c-1-6.15-3.58-11.73-8.71-16.98
			c-0.08-0.08-23.58-23.57-23.66-23.65c-3.13-3.14-8.27-3.12-11.36,0.14c-3.01,3.13-2.83,8.13,0.24,11.2l11.05,11.05
			c3.44,3.45,3.41,9.06-0.11,12.46c-3.4,3.29-9.11,3.04-12.46-0.3l-14.93-14.93v-24.44c0-11.99,9.73-21.72,21.72-21.72h17.92
			c4.47,0,8.62,1.34,12.08,3.67c2.11,1.42,3.97,3.2,5.48,5.27c3.94-4.18,9.54-6.78,15.75-6.78h32.04c6.21,0,11.81,2.6,15.75,6.78
			c1.5-2.06,3.36-3.85,5.47-5.27c3.46-2.31,7.62-3.67,12.09-3.67h17.92C207.24,153.66,216.97,163.39,216.97,175.38z"/>
		<path fill="#FFB69F" d="M127.823,155.819L127.823,155.819c-9.877,0-17.885-8.007-17.885-17.884v-13.174h35.769v13.174
			C145.707,147.812,137.7,155.819,127.823,155.819z"/>
		<path fill="#7C7B7A" d="M145.71,124.761h-35.77V116.1c0-4.418,3.582-8,8-8h16.78c2.23,0,4.44-0.54,6.42-1.57l7.72-4.03
			C152.847,110.697,150.916,119.21,145.71,124.761z"/>
		<path fill="#FFB69F" d="M56.75,253.67v-7.07L9.91,199.75c-1.8-1.79-2.81-4.22-2.81-6.77L6.78,153.9c0-4.82,3.91-8.72,8.73-8.73
			c4.81,0,8.72,3.91,8.72,8.73l0.32,28.33c0,2.02,0.82,3.92,2.19,5.29l12.29,12.3l14.93,14.93c3.35,3.34,9.06,3.59,12.46,0.3
			c3.52-3.4,3.55-9.01,0.11-12.46l-11.05-11.05c-3.07-3.07-3.25-8.07-0.24-11.2c3.09-3.26,8.23-3.28,11.36-0.14
			c0.08,0.08,23.58,23.57,23.66,23.65c5.13,5.25,7.71,10.83,8.71,16.98c0.34,2.05,0.5,4.16,0.52,6.34l0.01,26.5H56.75z"/>
		<path fill="#4BA5C8" d="M90.26,195.37v-17.83c0-5.8,2.27-11.07,5.97-14.94c-1.51-2.07-3.37-3.85-5.48-5.27l-0.01,0.01
			c-5.22,5.46-8.09,12.63-8.09,20.2v10.22l-11.8-11.8c-5.63-5.65-14.68-5.33-19.93,0.22c-5.22,5.42-5.07,14.21,0.32,19.6
			l11.04,11.05c1.08,1.08,1.08,2.83-0.03,3.91c-1.02,0.98-3,0.82-4.05-0.23c-13.66-13.66-13.62-13.62-19.17-19.18v8.49l14.93,14.93
			c3.35,3.34,9.06,3.59,12.46,0.3c3.52-3.4,3.55-9.01,0.11-12.46l-11.05-11.05c-3.07-3.07-3.25-8.07-0.24-11.2
			c3.09-3.26,8.23-3.28,11.36-0.14c0.128,0.128,23.536,23.518,23.66,23.65c5.13,5.25,7.71,10.83,8.71,16.98h6.06
			c-1.137-8.2-4.526-15.074-10.48-21.17L90.26,195.37z"/>
		<path fill="#4BA5C8" d="M197.8,210.5c-1.06,1.06-3.03,1.22-4.05,0.23c-1.11-1.07-1.1-2.83-0.04-3.9l11.05-11.05
			c5.39-5.39,5.54-14.18,0.35-19.57c-5.33-5.62-14.36-5.86-19.95-0.25l-11.81,11.805V177.54c0-7.57-2.87-14.74-8.05-20.16
			c-0.02-0.02-0.04-0.03-0.06-0.05c-2.11,1.42-3.97,3.21-5.47,5.27c3.7,3.87,5.97,9.14,5.97,14.94v17.832l-4.29,4.288
			c-6.17,6.3-9.38,13.25-10.49,21.17h6.07c1-6.15,3.58-11.73,8.71-16.98c0.074-0.082,23.582-23.572,23.66-23.65
			c3.13-3.14,8.27-3.12,11.36,0.14c3.01,3.13,2.83,8.13-0.24,11.2l-11.05,11.05c-3.44,3.45-3.41,9.06,0.11,12.46
			c3.4,3.29,9.11,3.04,12.46-0.3c12.73-12.73,9.48-9.48,14.93-14.93v-8.49C211.42,196.89,211.46,196.85,197.8,210.5z"/>
		<path fill="#FFB69F" d="M249.22,153.9l-0.32,39.08c0,2.55-1.01,4.98-2.81,6.77l-46.84,46.85v7.07H156.5l0.01-26.5
			c0.02-2.18,0.18-4.29,0.52-6.34c1-6.15,3.58-11.73,8.71-16.98c0.077-0.084,23.579-23.57,23.66-23.65
			c3.13-3.14,8.27-3.12,11.36,0.14c3.01,3.13,2.83,8.13-0.24,11.2l-11.05,11.05c-3.44,3.45-3.41,9.06,0.11,12.46
			c3.4,3.29,9.11,3.04,12.46-0.3c12.73-12.73,9.48-9.48,14.93-14.93l12.29-12.3c1.37-1.37,2.19-3.26,2.19-5.29l0.32-28.33
			c0-4.82,3.91-8.73,8.72-8.73C245.31,145.18,249.22,149.08,249.22,153.9z"/>
		<path fill="#FBE0E2" d="M92.345,249.012c-1.381,0-2.5-1.119-2.5-2.5v-2.966c0-1.381,1.119-2.5,2.5-2.5s2.5,1.119,2.5,2.5v2.966
			C94.845,247.893,93.726,249.012,92.345,249.012z M92.345,236.045c-1.381,0-2.5-1.119-2.5-2.5v-5.837
			c0-7.54-1.947-12.565-6.722-17.346l-23.359-23.34c-0.977-0.976-0.978-2.559-0.001-3.536c0.977-0.977,2.559-0.977,3.536-0.001
			l23.361,23.342c5.662,5.669,8.186,12.109,8.186,20.881v5.837C94.845,234.926,93.726,236.045,92.345,236.045z"/>
		<path fill="#FBE0E2" d="M192.094,246.132c-0.64,0-1.28-0.244-1.768-0.732c-0.977-0.976-0.977-2.559,0-3.535l48.953-48.953
			l0.185-27.033c0.011-1.38,1.115-2.51,2.52-2.48c1.381,0.011,2.491,1.139,2.48,2.52l-0.216,27.025c0,1.332-0.51,2.584-1.437,3.507
			l-48.95,48.949C193.374,245.888,192.734,246.132,192.094,246.132z M242.045,158.398c-0.007,0-0.014,0-0.021,0
			c-1.381-0.011-2.491-1.14-2.48-2.52l0.016-2c0.011-1.381,1.117-2.518,2.52-2.48c1.381,0.011,2.491,1.14,2.48,2.52l-0.016,2
			C244.533,157.292,243.416,158.398,242.045,158.398z"/>
		<path fill="#7C7B7A" d="M87.6,107.769l-6.64,3.47c-1.71,0.89-3.61,1.36-5.53,1.36l-16.316-0.012c-2.763-0.002-5.004,2.237-5.004,5
			v9.342h30.78C89.54,121.979,90.95,114.479,87.6,107.769z"/>
		<path fill="#7C7B7A" d="M204.36,107.76l-6.64,3.47c-1.71,0.89-3.61,1.36-5.53,1.36l-16.316-0.012
			c-2.763-0.002-5.004,2.237-5.004,5v9.351h30.78C206.3,121.979,207.71,114.47,204.36,107.76z"/>
		<path fill="#FFB69F" d="M84.89,126.93v13.73c0,7.18-5.82,13-13,13h-4.78c-7.18,0-13-5.82-13-13v-13.73H84.89z"/>
		<path fill="#FFB69F" d="M201.65,126.93v13.73c0,7.18-5.82,13-13,13h-4.78c-7.18,0-13-5.82-13-13v-13.73H201.65z"/>
		<g>
			<path fill="#FBE0E2" d="M92.345,249.012c-1.381,0-2.5-1.119-2.5-2.5v-2.966c0-1.381,1.119-2.5,2.5-2.5s2.5,1.119,2.5,2.5v2.966
				C94.845,247.893,93.726,249.012,92.345,249.012z M92.345,236.045c-1.381,0-2.5-1.119-2.5-2.5v-5.837
				c0-7.54-1.947-12.565-6.722-17.346l-23.359-23.34c-0.977-0.976-0.978-2.559-0.001-3.536c0.977-0.977,2.559-0.977,3.536-0.001
				l23.361,23.342c5.662,5.669,8.186,12.109,8.186,20.881v5.837C94.845,234.926,93.726,236.045,92.345,236.045z"/>
		</g>
		<g>
			<path fill="#FBE0E2" d="M190.327,245.399c-0.977-0.976-0.977-2.559,0-3.535l48.953-48.953l0.185-27.033
				c0.011-1.38,1.115-2.51,2.52-2.48c1.381,0.011,2.491,1.139,2.48,2.52l-0.216,27.025c0,1.332-0.51,2.584-1.437,3.507
				l-48.95,48.949C192.886,246.376,191.302,246.376,190.327,245.399z M242.045,158.398c-0.007,0-0.014,0-0.021,0
				c-1.381-0.011-2.491-1.14-2.48-2.52l0.016-2c0.011-1.381,1.117-2.518,2.52-2.48c1.381,0.011,2.491,1.14,2.48,2.52l-0.016,2
				C244.533,157.292,243.416,158.398,242.045,158.398z"/>
		</g>
		<path d="M253.327,78.504c0-1.381-1.119-2.5-2.5-2.5H139.729c-0.762,0-1.482,0.347-1.956,0.943l-7.272,9.139V63.765
			c0-2.364-2.99-3.4-4.456-1.557l-10.978,13.796H5.173c-1.381,0-2.5,1.119-2.5,2.5s1.119,2.5,2.5,2.5h111.098
			c0.762,0,1.482-0.347,1.956-0.943l7.272-9.139v22.322c0,2.369,2.993,3.396,4.456,1.557l10.978-13.796h109.893
			C252.208,81.004,253.327,79.885,253.327,78.504z"/>
		<path d="M127.828,147.67c5.543,0,10.052-4.509,10.052-10.052c0-1.381-1.119-2.5-2.5-2.5s-2.5,1.119-2.5,2.5
			c0,2.786-2.267,5.052-5.052,5.052s-5.052-2.267-5.052-5.052c0-1.381-1.119-2.5-2.5-2.5s-2.5,1.119-2.5,2.5
			C117.775,143.161,122.285,147.67,127.828,147.67z"/>
		<path d="M76.002,135.492c-1.381,0-2.5,1.119-2.5,2.5c0,2.206-1.794,4-4,4c-2.206,0-4-1.794-4-4c0-1.381-1.119-2.5-2.5-2.5
			s-2.5,1.119-2.5,2.5c0,4.962,4.038,9,9,9c4.962,0,9-4.038,9-9C78.502,136.611,77.383,135.492,76.002,135.492z"/>
		<path d="M192.763,135.492c-1.381,0-2.5,1.119-2.5,2.5c0,2.206-1.794,4-4,4s-4-1.794-4-4c0-1.381-1.119-2.5-2.5-2.5
			s-2.5,1.119-2.5,2.5c0,4.962,4.038,9,9,9s9-4.038,9-9C195.263,136.611,194.144,135.492,192.763,135.492z"/>
		<path d="M39.1,172.3c1.457,0.345,2.72-0.535,3.05-1.79c0.358-1.349-0.468-2.704-1.79-3.05c-1.31-0.34-2.7,0.48-3.05,1.79
			C36.975,170.611,37.77,171.947,39.1,172.3z"/>
		<path d="M201.75,253.67v-6.03l19.06-19.07c0.98-0.98,0.98-2.56,0-3.54c-0.94-0.94-2.59-0.94-3.53,0l-19.8,19.8
			c-0.46,0.47-0.73,1.11-0.73,1.77v7.07c0,1.38,1.12,2.5,2.5,2.5C200.63,256.17,201.75,255.05,201.75,253.67z"/>
		<path d="M251.72,153.92c0-6.19-5.04-11.24-11.22-11.25c-6.18,0-11.21,5.03-11.23,11.2l-0.32,28.33v0.03
			c0,1.33-0.52,2.58-1.46,3.52l-8.02,8.025V175.38c0-11.848-8.564-21.735-19.822-23.812c2.78-2.803,4.502-6.657,4.502-10.907v-3.395
			l21.028-21.028c6.599-6.598,11.417-14.404,14.322-23.202c0.433-1.311-0.279-2.725-1.59-3.158c-1.309-0.434-2.725,0.278-3.158,1.59
			c-2.658,8.048-7.068,15.193-13.109,21.234l-17.493,17.493v-2.334c5.002-5.915,5.987-14.126,2.447-21.217
			c-0.623-1.248-2.153-1.748-3.395-1.099l-6.636,3.468c-1.354,0.705-2.868,1.078-4.374,1.078c-0.001,0-16.323-0.012-16.322-0.012
			c-4.143,0-7.5,3.352-7.5,7.5c0,3.326,0,19.728,0,23.083c0,4.258,1.727,8.12,4.516,10.924c-5.153,0.957-9.789,3.503-13.347,7.366
			c-4.33-3.63-9.84-5.63-15.52-5.63h-2.866c4.311-3.74,7.053-9.243,7.053-15.385v-12.253c5.48-6.418,7.122-15.58,2.901-24.276
			c-0.616-1.264-2.153-1.773-3.405-1.122l-7.716,4.029c-1.62,0.842-3.441,1.288-5.267,1.288h-16.78c-5.79,0-10.5,4.71-10.5,10.5
			c0,2.13-0.002,9.82-0.002,21.834c0,6.142,2.742,11.645,7.053,15.385h-2.521c-5.67,0-11.18,2-15.51,5.63
			c-3.632-3.913-8.312-6.48-13.551-7.405c2.767-2.801,4.481-6.645,4.481-10.885v-12.799c5-5.913,5.985-14.12,2.447-21.208
			c-0.625-1.251-2.156-1.747-3.395-1.099l-6.637,3.468c-1.354,0.705-2.867,1.078-4.374,1.078l-16.316-0.012
			c-0.002,0-0.004,0-0.006,0c-4.142,0-7.5,3.352-7.5,7.5c0,21.335,0-1.615,0,12.37L40.33,118.67c-0.95-0.94-2.6-0.94-3.54,0
			c-0.97,0.98-0.97,2.56,0,3.54l14.82,14.83v3.621c0,4.27,1.736,8.142,4.539,10.948c-5.266,1.018-10.091,3.757-13.669,7.871
			c-0.9,1.04-0.79,2.62,0.25,3.53c1,0.87,2.65,0.76,3.52-0.24c3.66-4.2,8.95-6.61,14.5-6.61c2.462,0,16.397,0,17.92,0
			c5.337,0,10.483,2.161,14.294,6.393c-3.368,4.242-5.204,9.485-5.204,14.988v20.273c-6.813-6.813-19.231-19.22-19.389-19.377
			c-4.066-4.079-10.837-4.15-14.932,0.171c-3.9,4.055-3.777,10.65,0.274,14.701l11.047,11.047c2.441,2.448,2.458,6.449-0.078,8.898
			c-2.346,2.272-6.531,2.143-8.954-0.271L41.53,198.779V179.82c0-1.38-1.12-2.5-2.5-2.5s-2.5,1.12-2.5,2.5v13.958l-8.022-8.025
			c-0.927-0.927-1.458-2.211-1.458-3.551L26.73,153.9c0-6.192-5.033-11.23-11.226-11.23c-6.189,0.013-11.224,5.051-11.224,11.25
			l0.32,39.06c0,3.234,1.26,6.269,3.542,8.538l46.108,46.118v6.035c0,1.381,1.119,2.5,2.5,2.5s2.5-1.119,2.5-2.5v-7.07
			c0-0.663-0.263-1.299-0.732-1.768l-46.845-46.855c-1.336-1.329-2.073-3.104-2.073-5.018L9.28,153.9
			c0-3.428,2.797-6.223,6.229-6.23c3.43,0,6.22,2.795,6.22,6.258l0.32,28.302c0,2.628,1.065,5.2,2.922,7.057
			c14.287,14.292,4.495,4.497,27.223,27.233c4.352,4.338,11.662,4.488,15.962,0.328c4.533-4.379,4.571-11.584,0.141-16.026
			l-11.05-11.05c-2.139-2.139-2.231-5.593-0.193-7.713c2.143-2.26,5.661-2.217,7.781-0.088c0.204,0.203,23.189,23.172,23.567,23.552
			c0.022,0.025,0.045,0.049,0.069,0.073c5.523,5.652,8.432,12.157,8.519,21.574l0.01,26.5c0,1.38,1.12,2.499,2.5,2.499
			c0,0,0,0,0.001,0c1.381,0,2.5-1.12,2.499-2.501l-0.01-26.522c-0.087-9.312-2.649-17.163-9.23-24.264V177.54
			c0-10.406,8.409-19.22,19.22-19.22h32.04c10.788,0,19.22,8.791,19.22,19.22v25.343c-6.48,6.954-9.152,14.76-9.23,24.267
			L154,253.67c0,1.368,1.097,2.5,2.5,2.5c1.38,0,2.5-1.12,2.5-2.5l0.01-26.5c0.091-9.5,3.01-15.914,8.52-21.57
			c0.046-0.055,23.579-23.579,23.63-23.63c2.12-2.119,5.622-2.183,7.79,0.09l0.01,0.01c2.118,2.23,1.833,5.657-0.21,7.7
			l-11.05,11.05c-4.495,4.516-4.321,11.712,0.14,16.03c4.276,4.13,11.518,4.091,15.96-0.33c6.78-6.78,9.475-9.475,27.23-27.23
			c1.85-1.85,2.91-4.41,2.92-7.03l0.32-28.33v-0.03c0.01-3.43,2.8-6.22,6.22-6.23c3.44,0.01,6.23,2.8,6.23,6.23l-0.32,39.06
			c0,1.91-0.74,3.69-2.07,5.02l-12.91,12.91c-1.003,0.983-0.965,2.565,0,3.53c0.94,0.95,2.59,0.95,3.53,0l12.91-12.9
			c2.25-2.24,3.54-5.35,3.54-8.54L251.72,153.92z M112.44,116.1c0-3.033,2.467-5.5,5.5-5.5h16.78c2.625,0,5.245-0.64,7.578-1.854
			l5.317-2.776c1.815,5.371,0.863,11.594-3.032,16.291H112.44V116.1z M112.438,137.935v-10.674h30.769v10.674
			c0,8.483-6.901,15.385-15.384,15.385C119.339,153.319,112.438,146.418,112.438,137.935z M67.1,151.16
			c-5.785-0.005-10.49-4.713-10.49-10.5v-11.23h25.78v11.23c0,5.786-4.705,10.494-10.49,10.5H67.1z M56.61,117.587
			c0-1.381,1.118-2.5,2.5-2.5c0.001,0,0.001,0,0.002,0l16.318,0.012c2.309,0,4.62-0.568,6.688-1.644l4.193-2.191
			c1.384,4.569,0.463,9.453-2.553,13.165H56.61V117.587z M183.86,151.16c-5.785-0.005-10.49-4.713-10.49-10.5v-11.23h25.78v11.23
			c0,5.786-4.705,10.494-10.49,10.5H183.86z M173.37,117.578c0-1.381,1.117-2.5,2.5-2.5c0,0,0.001,0,0.002,0l16.318,0.012
			c2.309,0,4.62-0.568,6.688-1.644l4.193-2.191c1.385,4.572,0.464,9.46-2.554,13.174H173.37V117.578z M200.27,212.98
			c-2.413,2.413-6.596,2.58-8.95,0.27c-2.503-2.401-2.558-6.4-0.08-8.9l11.05-11.04c4.039-4.059,4.218-10.591,0.29-14.69
			c0,0,0,0-0.01,0c-3.927-4.168-10.709-4.433-14.94-0.18c-0.89,0.876-18.664,18.644-19.39,19.37v-20.27
			c0-5.505-1.838-10.749-5.208-14.992c3.641-4.062,8.806-6.388,14.297-6.388c1.323,0,16.102,0,17.92,0
			c10.58,0.02,19.2,8.64,19.22,19.22v23.399C207.833,205.419,213.585,199.68,200.27,212.98z"/>
		<path d="M227.88,221.5c0.98-0.98,0.98-2.57,0-3.54c-0.94-0.94-2.59-0.94-3.53,0c-0.98,0.98-0.98,2.56,0,3.54
			C225.321,222.47,226.901,222.478,227.88,221.5z"/>
		<path d="M110.896,220.83v-37.605c0-1.381-1.119-2.5-2.5-2.5s-2.5,1.119-2.5,2.5v37.605c0,1.381,1.119,2.5,2.5,2.5
			S110.896,222.211,110.896,220.83z"/>
		<path d="M150.104,220.83v-37.605c0-1.381-1.119-2.5-2.5-2.5s-2.5,1.119-2.5,2.5v37.605c0,1.381,1.119,2.5,2.5,2.5
			S150.104,222.211,150.104,220.83z"/>
		<path d="M33.22,115.17c1-0.95,1.04-2.54,0.1-3.54c-0.92-0.97-2.57-1.01-3.54-0.09c-0.96,0.899-1.088,2.467-0.09,3.53
			C30.63,116.07,32.212,116.114,33.22,115.17z"/>
		<path d="M26.67,107.62c1.13-0.746,1.481-2.277,0.72-3.46c0,0,0-0.01-0.01-0.01c-3.1-4.71-5.42-9.86-6.92-15.3
			c-0.36-1.3-1.76-2.11-3.07-1.75c-1.352,0.375-2.114,1.784-1.75,3.08c1.64,5.95,4.18,11.57,7.57,16.72
			C23.929,108.009,25.435,108.404,26.67,107.62z"/>
		<path d="M128,46.304l-13.623-13.622c-23.036-23.037-60.519-23.036-83.555,0c-9.734,9.733-15.79,22.639-17.052,36.338
			c-0.127,1.375,0.885,2.592,2.26,2.719c1.381,0.126,2.592-0.885,2.719-2.26c1.156-12.54,6.699-24.352,15.608-33.262
			c21.087-21.087,55.398-21.086,76.485,0l15.39,15.39c0.976,0.977,2.56,0.977,3.535,0l15.39-15.39
			c21.082-21.082,55.393-21.082,76.485,0c8.91,8.91,14.453,20.722,15.608,33.262c0.127,1.385,1.356,2.387,2.719,2.26
			c1.375-0.126,2.387-1.344,2.26-2.719c-1.262-13.699-7.318-26.604-17.052-36.338c-23.042-23.031-60.525-23.031-83.555,0L128,46.304
			z"/>
	</g>
</g>
</svg>
