<svg xmlns="http://www.w3.org/2000/svg" width="120.359" height="120.359" fill-rule="evenodd" clip-rule="evenodd" image-rendering="optimizeQuality" shape-rendering="geometricPrecision" text-rendering="geometricPrecision" viewBox="0 0 6.827 6.827" id="free"><path fill="#1a1a1a" fill-rule="nonzero" d="M4.47 1.442a.473.473 0 0 0 .449.63.473.473 0 0 0 .362-.78 4.769 4.769 0 0 0-.11-.121c-.01.03-.037.048-.04.043l-.096.034a.807.807 0 0 1 .145.129.34.34 0 0 1-.02.461.34.34 0 0 1-.583-.241c0-.043.008-.084.022-.12.008-.022.018-.056.03-.085l-.128.045a.067.067 0 0 1-.006.002h-.003v.001h-.003l-.002.001h-.005l-.001.001H4.47zm.536.816-.149.366a1.062 1.062 0 0 0-.153-.07.704.704 0 0 0-.133-.03c-.012-.001-.025-.005-.039-.008-.078-.02-.15-.04-.217.077l-.043.075a.205.205 0 0 0 .079.288c.112.065.197.094.282.123l.006.002v-.005c.079.027.157.054.257.111a.202.202 0 0 0 .229-.017c.116-.097.243-.586.286-.747.024-.091.022-.17-.056-.242a.234.234 0 0 0-.178-.06.21.21 0 0 0-.171.137zm-.053.487.177-.438c.016-.038.04-.056.066-.06a.086.086 0 0 1 .038.005.102.102 0 0 1 .036.022.085.085 0 0 1 .025.087l-.007.025c-.041.156-.169.635-.235.679a.068.068 0 0 0-.009.006.073.073 0 0 1-.081.006c-.115-.066-.2-.095-.287-.124a1.357 1.357 0 0 1-.264-.115.072.072 0 0 1-.026-.098l.045-.08c.016-.028.041-.022.068-.015.017.005.035.01.055.012a.538.538 0 0 1 .141.036 1.383 1.383 0 0 1 .17.089.067.067 0 0 0 .088-.037z"></path><path fill="#1a1a1a" fill-rule="nonzero" d="M5.267 1.92a.622.622 0 0 1 .192.219c.218.393.203 2.285.216 2.595H4.528c.006-.135-.017-.37 0-.651.018-.309.077-.67.111-1.007l-.003-.001-.002-.001h-.002l-.002-.001h-.002v-.001h-.002l-.002-.001h-.002l-.002-.002h-.003l-.001-.001h-.001l-.002-.001H4.61l-.002-.001h-.001v-.001h-.003v-.001h-.002l-.002-.001h-.002l-.001-.001h-.002V3.06h-.002l-.002-.001-.002-.001h-.002l-.002-.001-.002-.001h-.002l-.002-.002h-.004l-.002-.002h-.002L4.57 3.05h-.002l-.002-.001h-.002l-.002-.002h-.002l-.002-.001h-.002l-.002-.001h-.001l-.001-.001h-.002l-.001-.001-.003-.001h-.001v-.001H4.54L4.54 3.04l-.003-.001-.001-.001-.003-.001h-.002l-.002-.002h-.002l-.002-.001h-.002l-.002-.002H4.52l-.002-.001-.002-.001-.002-.001H4.51c-.036.348-.096.725-.115 1.045-.02.327.002.6-.002.718a.066.066 0 0 0 .066.074h1.283c.038 0 .069-.03.067-.07 0 0-.005-2.386-.236-2.722a.758.758 0 0 0-.232-.264.475.475 0 0 1-.075.108zm-.573.094a1.3 1.3 0 0 0-.059.19 4.042 4.042 0 0 0-.061.322h.007v.001h.005l.002.001h.004l.003.001H4.6l.002.001h.004l.003.001h.004l.002.001h.002l.002.001h.004l.003.001h.004l.002.001h.002l.002.001h.002l.002.001h.004l.001.001h.003l.002.001h.002l.002.001h.002l.002.001h.004v.001h.002l.002.001h.002l.001.001h.003l.001.001h.002l.002.001h.002l.002.001h.002l.002.001h.002v.001h.003l.002.001.002.001h.002l.002.001h.002l.005.003c.018-.122.038-.23.06-.32.017-.072.035-.131.054-.175a.471.471 0 0 1-.124-.046z"></path><path fill="#1a1a1a" fill-rule="nonzero" d="M5.243 4.027a.066.066 0 0 1 .133 0v.774a.066.066 0 0 1-.133 0v-.774zM5.01.86l-.63.223a.066.066 0 0 0-.04.088l.073.225a.066.066 0 0 0 .089.041l.63-.223c.005.006.058-.033.04-.084l-.001-.003L5.098.9a.066.066 0 0 0-.09-.04zm-.526.326.51-.18.033.105-.509.18-.034-.105zm-.014.41a.066.066 0 1 1 .088.098l-.093.084a.066.066 0 1 1-.089-.099l.094-.084z"></path><path fill="#1a1a1a" fill-rule="nonzero" d="M5.08 4.794v.63a.078.078 0 0 1-.074.078.793.793 0 0 0-.266.064c-.036.019-.063.045-.073.082a42.879 42.879 0 0 0 .318-.001c.02-.02.04-.04.08-.04s.062.019.084.037l.019.002h.015v-.852h.155v.929a.078.078 0 0 1-.077.078h-.124a.107.107 0 0 1-.066-.022.092.092 0 0 1-.061.022 102.139 102.139 0 0 1-.418.002.078.078 0 0 1-.077-.062c-.032-.157.04-.252.153-.312a.808.808 0 0 1 .257-.073v-.562h.155z"></path><path fill="#1a1a1a" fill-rule="nonzero" d="M1.017 5.52h3.539a.243.243 0 0 0-.049.155H1.094v.142h4.639v-.142h-.395V5.52h.472c.043 0 .077.035.077.077v.297a.077.077 0 0 1-.077.078H1.017a.077.077 0 0 1-.078-.078v-.297c0-.042.035-.077.078-.077z"></path><path fill="#70cc6f" d="M4.507 5.675H1.094v.142h4.639v-.142h-.395v.048a.078.078 0 0 1-.077.078h-.124a.107.107 0 0 1-.066-.022.092.092 0 0 1-.061.022 102.139 102.139 0 0 1-.418.002.078.078 0 0 1-.077-.062.362.362 0 0 1-.008-.066z"></path><path fill="#b0bec5" d="M4.74 5.566c-.036.019-.063.045-.073.082a42.879 42.879 0 0 0 .318-.001c.02-.02.04-.04.08-.04s.062.019.084.037l.019.002h.015v-.779H5.08v.557a.078.078 0 0 1-.074.078.793.793 0 0 0-.266.064z"></path><path fill="#90caf9" d="M4.528 4.734h.715v-.707a.066.066 0 0 1 .133 0v.707h.299c-.013-.31.002-2.202-.216-2.595a.622.622 0 0 0-.192-.22.473.473 0 0 1-.449.141 1.135 1.135 0 0 0-.054.175c-.022.09-.042.198-.06.32.015.004.029.01.043.015.035.015.07.032.11.054l.147-.362c.037-.09.103-.133.173-.141a.234.234 0 0 1 .178.06c.078.072.08.151.056.242-.043.161-.17.65-.286.747a.206.206 0 0 1-.23.017 1.315 1.315 0 0 0-.256-.111c-.034.337-.093.698-.11 1.007-.018.281.005.516 0 .651z"></path><path fill="#f6e28a" d="M4.919 1.938a.34.34 0 0 0 .341-.341.34.34 0 0 0-.08-.22.807.807 0 0 0-.145-.129l-.406.144c-.012.029-.022.063-.03.084a.341.341 0 0 0 .32.462z"></path><path fill="#29b326" d="m4.517 1.291.509-.18-.033-.105-.51.18z"></path><path fill="#80deea" d="M4.853 2.775a1.383 1.383 0 0 0-.158-.082.538.538 0 0 0-.141-.036c-.02-.003-.038-.007-.055-.012-.027-.007-.052-.013-.068.015l-.046.08a.072.072 0 0 0 .026.098 1.357 1.357 0 0 0 .265.115c.086.029.172.058.287.124.013.008.027.01.042.01a.073.073 0 0 0 .04-.016.068.068 0 0 1 .008-.006c.066-.044.194-.523.235-.68l.007-.024v-.003a.085.085 0 0 0-.025-.084.102.102 0 0 0-.036-.022.086.086 0 0 0-.038-.004c-.025.003-.05.02-.066.06l-.177.437a.067.067 0 0 1-.1.03z"></path><path fill="none" d="M0 0h6.827v6.827H0z"></path></svg>