<svg xmlns="http://www.w3.org/2000/svg" enable-background="new 0 0 256 256" viewBox="0 0 256 256" id="sneezing"><path fill="#6bdddd" d="M203.973,248H55.477v-20.878c0-19.136,15.513-34.649,34.649-34.649h79.198
			c19.136,0,34.649,15.513,34.649,34.649V248z"></path><path fill="#f9cfcf" d="M194.505,101.656c-0.137,0-0.27,0.018-0.407,0.02v-6.019c0-35.184-28.821-63.705-64.373-63.705l0,0
			c-35.552,0-64.373,28.522-64.373,63.705v6.019c-0.137-0.003-0.27-0.02-0.407-0.02c-10.846,0-19.639,8.702-19.639,19.436
			c0,10.734,8.793,19.436,19.639,19.436c0.712,0,1.414-0.042,2.107-0.115c6.643,28.183,32.171,49.184,62.673,49.184l0,0
			c30.502,0,56.03-21.001,62.673-49.184c0.693,0.073,1.395,0.115,2.107,0.115c10.846,0,19.639-8.702,19.639-19.436
			C214.144,110.358,205.351,101.656,194.505,101.656z"></path><path fill="#3762cc" d="M129.725,191.596c-30.434,0-56.595-20.094-64.208-49.077c-12.179,0.345-22.211-9.419-22.211-21.428
			c0-11.289,8.855-20.567,20.046-21.378v-4.056c0-36.23,29.774-65.706,66.373-65.706s66.373,29.476,66.373,65.706v4.056
			c11.19,0.811,20.046,10.089,20.046,21.378c0,11.82-9.707,21.436-21.639,21.436c-0.188,0-0.379-0.003-0.571-0.008
			C186.32,171.502,160.159,191.596,129.725,191.596z M67.055,138.412c0.917,0,1.73,0.63,1.944,1.541
			c6.612,28.052,31.583,47.643,60.726,47.643c29.144,0,54.114-19.591,60.727-47.643c0.229-0.981,1.17-1.644,2.156-1.53
			c0.663,0.07,1.283,0.104,1.897,0.104c9.726,0,17.639-7.822,17.639-17.436c0-9.612-7.91-17.433-17.634-17.436
			c-0.18,0.012-0.274,0.018-0.369,0.02c-0.557,0.013-1.057-0.194-1.442-0.57c-0.384-0.376-0.601-0.891-0.601-1.429v-6.019
			c0-34.024-27.98-61.706-62.373-61.706S67.352,61.633,67.352,95.658v6.019c0,0.538-0.217,1.053-0.602,1.429
			c-0.385,0.376-0.927,0.583-1.441,0.57c-0.095-0.002-0.188-0.008-0.283-0.015c-0.003,0-0.007,0-0.01,0
			c-9.803,0-17.71,7.819-17.71,17.43c0,9.614,7.913,17.436,17.64,17.436c0.613,0,1.233-0.034,1.897-0.104
			C66.914,138.416,66.984,138.412,67.055,138.412z"></path><path fill="#3762cc" d="M141.964,161.425c-1.104,0-2-0.896-2-2c0-1.587-0.688-3.118-1.987-4.427c-1.143-1.15-2.699-2.048-4.503-2.596
			c-1.086-0.33-2.314-0.49-3.757-0.49s-2.671,0.16-3.756,0.49c-1.804,0.548-3.361,1.445-4.504,2.596
			c-1.3,1.309-1.987,2.839-1.987,4.427c0,1.104-0.896,2-2,2s-2-0.896-2-2c0-2.628,1.118-5.201,3.149-7.246
			c1.607-1.618,3.744-2.864,6.18-3.604c1.467-0.446,3.076-0.663,4.918-0.663s3.451,0.217,4.919,0.663
			c2.435,0.74,4.571,1.986,6.179,3.604c2.031,2.045,3.149,4.618,3.149,7.246C143.964,160.53,143.068,161.425,141.964,161.425z"></path><path fill="#4671c6" d="M44.203,79.105c-2.913-7.8-3.12-16.353-0.588-24.285l0.218-0.682c4.142-12.976,15.056-22.642,28.437-25.187
			c6.316-1.201,12.835-0.742,18.921,1.332l0.711,0.242c0.041,0.369,0.103,0.739,0.193,1.107
			c2.922,11.944,8.286,22.952,15.574,32.411c-6.325,17.623-14.064,27.669-19.964,33.232l0,0.001l-7.743,7.86l-15.015-3.481
			c-4.103,0-7.909,1.249-11.059,3.377L44.203,79.105z"></path><path fill="#4671c6" d="M206.012,52.394c-5.051-15.671-16.587-28.124-31.336-34.263l0.001-0.008
			c-51.85-25.523-80.208,5.27-80.208,5.27l0,0c-2.134,2.054-3.124,5.177-2.375,8.242c5.952,24.331,21.99,44.817,43.937,56.122
			l0.031,0.016c4.738,2.441,9.685,4.433,14.779,5.954c1.267,0.378,2.288-1.089,1.521-2.184l-10.661-15.213
			c-0.929-1.326,0.703-2.945,1.971-1.952c11.789,9.231,34.693,24.524,57.863,25.292l3.773-10.332
			C209.644,77.46,209.892,64.433,206.012,52.394z"></path><path fill="#3762cc" d="M79.96,107.138c-0.15,0-0.302-0.017-0.452-0.052l-14.785-3.428c-3.485,0.043-6.841,1.089-9.717,3.033
			c-0.508,0.343-1.144,0.435-1.729,0.248c-0.584-0.187-1.05-0.631-1.265-1.205l-9.683-25.929
			c-3.056-8.183-3.275-17.271-0.619-25.592l0.218-0.682c4.369-13.688,15.853-23.859,29.968-26.543
			c6.643-1.265,13.537-0.779,19.94,1.404l0.711,0.243c0.733,0.25,1.256,0.901,1.341,1.671c0.034,0.299,0.084,0.587,0.149,0.854
			c2.834,11.585,7.953,22.24,15.215,31.665c0.416,0.54,0.528,1.255,0.299,1.896c-6.595,18.373-14.774,28.636-20.475,34.011
			l-7.691,7.81C81.005,106.927,80.489,107.138,79.96,107.138z M64.945,99.656c0.152,0,0.304,0.018,0.452,0.052l13.924,3.229
			l6.958-7.063c5.33-5.028,12.88-14.502,19.136-31.487c-7.251-9.651-12.384-20.505-15.264-32.278
			c-0.006-0.023-0.012-0.046-0.017-0.069c-5.63-1.841-11.671-2.23-17.491-1.123c-12.674,2.41-22.982,11.542-26.905,23.83
			l-0.218,0.683c-2.385,7.47-2.188,15.63,0.557,22.976l0,0l8.846,23.688C58.004,100.493,61.424,99.656,64.945,99.656z"></path><path fill="#3762cc" d="M201.534,101.668c-0.021,0-0.044,0-0.066-0.001c-21.863-0.725-43.399-14.008-55.93-23.348L154,90.394
			c0.852,1.217,0.84,2.78-0.028,3.983c-0.854,1.185-2.309,1.682-3.703,1.265c-5.2-1.552-10.288-3.602-15.123-6.092
			c-22.511-11.596-38.899-32.527-44.994-57.441c-0.892-3.646,0.216-7.518,2.89-10.119c0.688-0.73,7.957-8.218,21.458-12.702
			c12.736-4.231,33.671-6.443,61.062,7.04c0.017,0.008,0.033,0.017,0.05,0.026c15.354,6.448,27.124,19.351,32.306,35.426
			c0,0,0,0,0,0c4.001,12.414,3.741,25.995-0.73,38.241l-3.772,10.333C203.124,101.145,202.372,101.668,201.534,101.668z
			 M142.818,72.065c0.727,0,1.456,0.244,2.086,0.737c11.206,8.774,33.086,23.477,55.255,24.8l3.269-8.953
			c4.168-11.414,4.41-24.072,0.682-35.643c-4.842-15.017-15.85-27.056-30.202-33.03c-0.095-0.04-0.185-0.085-0.271-0.138
			c-20.574-10.09-40.511-12.452-57.666-6.825c-12.998,4.263-19.964,11.661-20.033,11.735c-0.025,0.028-0.055,0.058-0.082,0.084
			c-1.681,1.617-2.378,4.041-1.819,6.326c5.82,23.789,21.46,43.77,42.911,54.82c4.124,2.124,8.414,3.904,12.798,5.313l-9.683-13.816
			c-0.986-1.409-0.798-3.288,0.448-4.469C141.171,72.381,141.992,72.065,142.818,72.065z"></path><path fill="#f9cfcf" d="M134.483,189.404c-0.26,0.02-0.519,0.042-0.78,0.059c-0.404,0.025-0.808,0.046-1.214,0.063
			c-0.917,0.041-1.837,0.07-2.764,0.07c-0.927,0-1.848-0.029-2.765-0.07c-0.406-0.017-0.811-0.039-1.215-0.063
			c-0.26-0.017-0.518-0.039-0.777-0.059c-9.48-0.687-18.392-3.389-26.285-7.704v7.397c0,17.197,13.451,31.139,30.043,31.139h1.997
			c16.592,0,30.043-13.942,30.043-31.139V181.7C152.873,186.015,143.962,188.717,134.483,189.404z"></path><path fill="#3762cc" d="M203.973 250H55.478c-1.104 0-2-.896-2-2v-20.878c0-20.208 16.44-36.649 36.648-36.649h6.586c-.019-.463-.028-.922-.028-1.375v-7.397c0-.706.372-1.36.979-1.72.607-.361 1.36-.374 1.979-.035 7.863 4.297 16.433 6.809 25.471 7.464l.763.058c.382.023.774.044 1.168.061 1.785.079 3.582.079 5.355 0 .398-.017.791-.038 1.184-.062l.742-.057c9.049-.656 17.618-3.167 25.482-7.465.619-.338 1.372-.326 1.979.035s.979 1.014.979 1.72v7.397c0 .454-.01.913-.028 1.375h6.585c20.209 0 36.649 16.44 36.649 36.649V248C205.973 249.104 205.077 250 203.973 250zM57.478 246h144.495v-18.878c0-18.003-14.646-32.649-32.649-32.649h-8.735c-.566 0-1.106-.24-1.485-.661-.379-.421-.563-.982-.504-1.546.111-1.073.168-2.14.168-3.169v-4.119c-7.545 3.648-15.649 5.805-24.14 6.42l-.793.061c-.427.026-.843.048-1.261.065-1.883.085-3.809.085-5.703 0-.413-.018-.829-.04-1.245-.064l-.811-.062c-8.483-.615-16.587-2.772-24.131-6.419v4.119c0 1.029.057 2.096.168 3.169.059.563-.125 1.125-.504 1.546-.379.42-.919.661-1.485.661h-8.736c-18.002 0-32.648 14.646-32.648 32.649V246zM90.501 135.108c-1.033 0-2.038-.534-2.596-1.491-.833-1.432-.349-3.268 1.083-4.102l13.926-8.112-13.926-8.111c-1.432-.834-1.916-2.67-1.083-4.102.835-1.432 2.672-1.917 4.103-1.083l15.2 8.854c1.599.932 2.553 2.592 2.553 4.442 0 1.851-.954 3.511-2.552 4.442L92.008 134.7C91.533 134.977 91.014 135.108 90.501 135.108zM104.188 122.146h.011H104.188zM168.933 135.108c-.513 0-1.032-.131-1.507-.408l-15.199-8.854c-1.599-.931-2.554-2.592-2.554-4.442 0-1.85.955-3.511 2.554-4.442l15.199-8.854c1.431-.835 3.269-.349 4.102 1.082.834 1.432.35 3.269-1.082 4.103l-13.925 8.111 13.925 8.112c1.432.834 1.916 2.671 1.082 4.103C170.971 134.574 169.966 135.108 168.933 135.108z"></path><path fill="#f9a7a7" d="M109.22,154.712c-4.921,7.218-0.239,16.941,8.593,18.18c3.738,0.524,7.744,0.808,11.912,0.808
			s8.174-0.284,11.912-0.808c8.832-1.238,13.514-10.962,8.593-18.18c-4.796-7.035-12.198-11.545-20.505-11.545
			C121.418,143.167,114.016,147.677,109.22,154.712z"></path><path fill="#3762cc" d="M129.725,175.7c-4.169,0-8.27-0.279-12.189-0.828c-4.981-0.698-9.146-3.807-11.143-8.317
			c-1.89-4.271-1.45-9.12,1.175-12.97l0,0c5.381-7.893,13.456-12.419,22.157-12.419c8.7,0,16.776,4.526,22.158,12.418
			c2.625,3.851,3.063,8.699,1.174,12.97c-1.995,4.509-6.16,7.619-11.142,8.317C137.995,175.421,133.894,175.7,129.725,175.7z
			 M129.725,145.167c-7.357,0-14.229,3.89-18.853,10.672l0,0c-1.868,2.74-2.167,6.056-0.821,9.099
			c1.432,3.236,4.438,5.469,8.039,5.974c7.476,1.047,15.797,1.047,23.271,0c3.602-0.505,6.607-2.739,8.039-5.975
			c1.346-3.042,1.046-6.358-0.821-9.098C143.953,149.056,137.081,145.167,129.725,145.167z M109.22,154.712h0.01H109.22z"></path><path fill="#e0ebfc" d="M96.351,175.213c-4.667-4.667-11.232-6.252-17.208-4.796c0.868-5.554-0.818-11.429-5.097-15.709
			c-7.115-7.115-18.651-7.115-25.766,0c-5.604,5.604-6.774,13.944-3.55,20.713c-5.43,8.408-4.472,19.742,2.892,27.106
			c7.698,7.698,19.726,8.38,28.223,2.097c6.732,3.103,14.959,1.902,20.506-3.646C103.466,193.863,103.466,182.328,96.351,175.213z"></path><path fill="#a4c9ff" d="M100.281 160.456L100.281 160.456c.781.781.781 2.047 0 2.828L82.78 180.785c-.781.781-2.047.781-2.828 0l0 0c-.781-.781-.781-2.047 0-2.828l17.501-17.501C98.234 159.675 99.5 159.675 100.281 160.456zM104.379 145.11L104.379 145.11c.781.781.781 2.047 0 2.828l-17.501 17.501c-.781.781-2.047.781-2.828 0l0 0c-.781-.781-.781-2.047 0-2.828l17.501-17.501C102.332 144.329 103.598 144.329 104.379 145.11zM89.343 149.518L89.343 149.518c.781.781.781 2.047 0 2.828l-17.501 17.501c-.781.781-2.047.781-2.828 0h0c-.781-.781-.781-2.047 0-2.828l17.501-17.501C87.295 148.736 88.562 148.736 89.343 149.518zM130.359 137.122c0 1.749 1.418 3.167 3.167 3.167s3.167-1.418 3.167-3.167v-7.419c-1.767 1.768-4.024 2.744-6.333 2.938V137.122z"></path><path fill="#3762cc" d="M129.5,134.676c-3.117,0-6.234-1.187-8.607-3.56l-0.201-0.201c-0.782-0.78-0.784-2.046-0.004-2.829
			c0.778-0.782,2.046-0.784,2.828-0.003l0.203,0.203c3.189,3.188,8.374,3.188,11.56,0.002c0.781-0.781,2.047-0.781,2.828,0
			c0.781,0.781,0.781,2.047,0,2.828C135.733,133.49,132.616,134.676,129.5,134.676z"></path><path fill="#f9cfcf" d="M168.616,159.256l-2.908-1.952c-3.008-2.02-6.903-2.154-10.043-0.345l-8.735,5.031
			c-3.443,1.983-6.257,4.897-8.119,8.407l-4.723,8.906c-1.698,3.201-1.428,7.089,0.696,10.025l2.053,2.838
			c7.621,10.536,18.596,18.168,31.126,21.643l30.802,29.745l23.37-24.2l-30.802-29.745
			C187.421,177.206,179.411,166.504,168.616,159.256z"></path><path fill="#f9cfcf" d="M221.946,242.555L221.946,242.555c-6.453,6.683-17.102,6.869-23.785,0.415l-16.235-15.678l23.37-24.2
			l16.235,15.678C228.213,225.223,228.399,235.872,221.946,242.555z"></path><path fill="#3762cc" d="M209.862,249.688c-4.273,0-8.561-1.453-12.07-4.39c-0.149-0.081-0.29-0.184-0.418-0.307l-30.439-29.395
			c-12.713-3.646-23.962-11.536-31.719-22.258l-2.053-2.838c-2.59-3.582-2.913-8.231-0.842-12.135l4.723-8.905
			c2.041-3.848,5.114-7.031,8.888-9.204l8.735-5.03c3.83-2.207,8.488-2.044,12.156,0.417l2.907,1.952
			c10.986,7.377,19.264,18.344,23.353,30.923l30.439,29.395c0.132,0.127,0.243,0.27,0.333,0.42
			c6.572,7.331,6.397,18.498-0.472,25.611C219.703,247.756,214.791,249.687,209.862,249.688z M199.862,241.833
			c0.086,0.054,0.169,0.115,0.247,0.184c5.952,5.204,14.909,4.831,20.397-0.851c5.486-5.682,5.548-14.649,0.139-20.415
			c-0.072-0.077-0.138-0.159-0.196-0.245l-30.507-29.46c-0.239-0.231-0.418-0.519-0.518-0.837
			c-3.761-11.921-11.546-22.325-21.924-29.292l-2.907-1.952c-2.396-1.608-5.434-1.71-7.931-0.273l-8.735,5.031
			c-3.12,1.797-5.662,4.429-7.351,7.612l-4.723,8.905c-1.351,2.546-1.14,5.58,0.55,7.916l2.052,2.837
			c7.327,10.129,17.996,17.547,30.04,20.888c0.321,0.089,0.615,0.257,0.855,0.489L199.862,241.833z"></path><path fill="#e0ebfc" d="M145.059,142.189l8.201-0.123c4.871-0.073,9.274,2.684,11.052,6.921l26.969,64.256
			c1.169,2.786-0.419,5.922-3.468,6.846l-38.111,11.557c-3.652,1.107-7.369-1.495-7.258-5.08L145.059,142.189z"></path><path fill="#3762cc" d="M147.982,233.902c-1.698,0-3.367-0.546-4.729-1.59c-1.854-1.42-2.878-3.538-2.808-5.808l2.614-84.377
			c0.033-1.068,0.9-1.922,1.969-1.938l8.201-0.123c5.654-0.078,10.845,3.189,12.926,8.147l26.969,64.256
			c0.767,1.824,0.724,3.817-0.12,5.611c-0.879,1.871-2.561,3.301-4.611,3.923l-38.11,11.557
			C149.528,233.79,148.752,233.902,147.982,233.902z M146.999,144.161l-2.555,82.468c-0.041,1.324,0.761,2.14,1.241,2.509
			c0.961,0.736,2.245,0.958,3.438,0.596l38.11-11.557c0.969-0.293,1.753-0.948,2.151-1.796c0.355-0.756,0.374-1.595,0.053-2.361
			l-26.969-64.256c-1.455-3.466-5.162-5.748-9.178-5.695L146.999,144.161z"></path><path fill="#e0ebfc" d="M151.213,142.097l-9.679,0.145c-4.871,0.073-9.189,2.961-10.84,7.249l-27.73,72.049
			c-1.085,2.82,0.596,5.906,3.671,6.739l43.123,11.678c3.683,0.997,7.321-1.715,7.102-5.296L151.213,142.097z"></path><path fill="#3762cc" d="M151.31,242.164c-0.691,0-1.389-0.09-2.072-0.275l-43.123-11.678c-2.068-0.561-3.791-1.939-4.727-3.783
			c-0.897-1.768-1-3.759-0.289-5.605l27.73-72.049c1.931-5.018,7.024-8.446,12.676-8.531l9.679-0.145
			c1.05-0.012,1.961,0.811,2.026,1.878l5.648,92.564c0.138,2.268-0.821,4.415-2.633,5.89
			C154.834,241.563,153.09,242.164,151.31,242.164z M149.334,144.125l-7.769,0.117c-4.035,0.061-7.653,2.459-9.004,5.968
			l-27.73,72.049c-0.298,0.776-0.255,1.614,0.124,2.359c0.424,0.835,1.228,1.466,2.204,1.731l43.123,11.678
			c1.203,0.326,2.481,0.064,3.417-0.698c0.471-0.383,1.247-1.223,1.167-2.545L149.334,144.125z"></path><path fill="#a4c9ff" d="M164.313,148.988c-1.778-4.237-6.181-6.994-11.052-6.921l-2.047,0.031l-6.154,0.092l-3.524,0.053
			c-4.871,0.073-9.189,2.961-10.84,7.249l-3.629,9.429l6.711-0.101c1.169-0.018,2.129,0.854,2.146,1.947l0.117,7.818
			c0.061,4.062,3.462,7.555,7.807,7.612c4.496,0.059,8.131-3.365,8.069-7.538l-0.129-8.623c-0.012-0.819,0.688-1.494,1.565-1.508
			c0.877-0.013,1.597,0.641,1.609,1.46l0.036,2.377c0.061,4.062,3.462,7.555,7.807,7.612c3.859,0.05,7.077-2.468,7.873-5.821
			L164.313,148.988z"></path><path fill="#3762cc" d="M143.957,178.196c-0.045,0-0.09,0-0.136,0c-5.315-0.07-9.702-4.369-9.78-9.582l-0.116-7.784
			c-0.011,0.008-0.05-0.011-0.112-0.011c-0.002,0-0.004,0-0.005,0l-6.711,0.101c-0.011,0-0.021,0-0.03,0
			c-0.653,0-1.266-0.319-1.641-0.855c-0.38-0.545-0.465-1.243-0.226-1.863l3.629-9.429c1.931-5.018,7.024-8.446,12.676-8.531
			l11.726-0.176c5.649-0.058,10.846,3.19,12.926,8.147l6.366,15.167c0.164,0.391,0.2,0.824,0.102,1.236
			c-1.018,4.283-5.089,7.359-9.71,7.359c-0.045,0-0.09,0-0.136,0c-3.927-0.052-7.347-2.412-8.897-5.743l0.036,2.395
			c0.037,2.472-0.93,4.822-2.722,6.618C149.318,177.125,146.687,178.196,143.957,178.196z M133.813,156.819
			c2.24,0,4.078,1.744,4.111,3.917l0.117,7.818c0.046,3.069,2.662,5.6,5.833,5.642c1.713,0.009,3.341-0.625,4.49-1.777
			c1.022-1.024,1.573-2.35,1.553-3.732l-0.13-8.623c-0.027-1.922,1.559-3.508,3.535-3.538c1.987-0.003,3.61,1.509,3.64,3.429
			l0.035,2.378c0.046,3.069,2.663,5.6,5.834,5.642c2.577,0.03,4.912-1.493,5.728-3.705l-6.09-14.508l0,0
			c-1.455-3.467-5.159-5.765-9.178-5.695l-11.726,0.176c-4.035,0.061-7.653,2.459-9.004,5.968l-2.565,6.667l3.751-0.057
			C133.769,156.82,133.791,156.819,133.813,156.819z"></path></svg>