<svg xmlns="http://www.w3.org/2000/svg" enable-background="new 0 0 90 90" viewBox="0 0 90 90" id="greeting"><g><circle cx="45" cy="45" r="44.5" fill="#F1B565"></circle><g><path fill="#EB665F" stroke="#010101" stroke-linejoin="round" stroke-miterlimit="10" stroke-width="1.978" d="M75.4 66.8L73.2 51c-.4-1.3-1.7-2.1-3-1.7-1.3.4-2.1 1.7-1.7 3l2.1 15.3c.2 1.2 1.3 2 2.4 2 .2 0 .3 0 .5 0C74.8 69.4 75.6 68.1 75.4 66.8zM64.4 49.9c-1.4-.1-2.6.9-2.7 2.2l-3.4 14.7c-.3 1.3.6 2.6 2 2.9.2 0 .3 0 .5 0 1.2 0 2.2-.8 2.4-2l3.4-15.1C66.7 51.2 65.7 50 64.4 49.9z"></path></g><path fill="#8CC749" stroke="#010101" stroke-linejoin="round" stroke-miterlimit="10" stroke-width="1.978" d="M77.1,54.8   l-4.6-19.3c-0.5-2.2-2.6-3.6-4.8-3.4l-6.3,0.6c-0.8,0.1-1.5,0.7-1.5,1.6l0,0L53.4,41l-7.9-1.2c-1.3-0.2-2.6,0.7-2.8,2.1   c-0.2,1.3,0.7,2.6,2.1,2.8l9.2,1.9c0.1,0,0.3,0,0.4,0c0.6-0.1,1.2-0.3,1.6-0.8l3.4-3.8l-0.8,14.5L77.1,54.8z"></path><circle cx="64.4" cy="24.4" r="4.1" fill="#F2DFD5" stroke="#010101" stroke-linejoin="round" stroke-miterlimit="10" stroke-width="1.978"></circle><g><path fill="#9F96C9" stroke="#010101" stroke-linejoin="round" stroke-miterlimit="10" stroke-width="1.978" d="M14.6 66.8L16.8 51c.4-1.3 1.7-2.1 3-1.7 1.3.4 2.1 1.7 1.7 3l-2.1 15.3c-.2 1.2-1.3 2-2.4 2-.2 0-.3 0-.5 0C15.2 69.4 14.4 68.1 14.6 66.8zM25.6 49.9c1.4-.1 2.6.9 2.7 2.2l3.4 14.7c.3 1.3-.6 2.6-2 2.9-.2 0-.3 0-.5 0-1.2 0-2.2-.8-2.4-2l-3.4-15.1C23.3 51.2 24.3 50 25.6 49.9z"></path></g><path fill="#FFF" stroke="#010101" stroke-linejoin="round" stroke-miterlimit="10" stroke-width="1.978" d="M12.9,54.8   l4.6-19.3c0.5-2.2,2.6-3.6,4.8-3.4l6.3,0.6c0.8,0.1,1.5,0.7,1.5,1.6l0,0l6.3,6.9l7.9-1.2c1.3-0.2,2.6,0.7,2.8,2.1   c0.2,1.3-0.7,2.6-2.1,2.8L36,46.6c-0.1,0-0.3,0-0.4,0c-0.6-0.1-1.2-0.3-1.6-0.8L30.7,42l0.8,14.5L12.9,54.8z"></path><circle cx="25.6" cy="24.4" r="4.1" fill="#E45543" stroke="#010101" stroke-linejoin="round" stroke-miterlimit="10" stroke-width="1.978"></circle></g></svg>