<svg xmlns="http://www.w3.org/2000/svg" viewBox="0 0 100 100" id="toilet"><path fill="#f7c737" d="m51.525 14.562-4.58 36.6H15.744l-4.59-36.6z"></path><path fill="#ffe268" d="M20.064 51.162h-4.32l-4.59-36.6h4.321z"></path><path fill="#e5ac20" d="m51.525 14.562-4.58 36.6h-8.152l4.58-36.6z"></path><path fill="#f7c737" d="m42.142 70.871 2.908 21.734a2.16 2.16 0 0 1-2.145 2.424H19.782a2.16 2.16 0 0 1-2.144-2.424l2.908-21.734h21.596z"></path><path fill="#ffe268" d="M23.996 71.367 21.092 93.1c-.09.768.22 1.476.759 1.925h-2.066a2.157 2.157 0 0 1-2.145-2.424l2.903-21.732h21.603l.07.498h-18.22z"></path><path fill="#e5ac20" d="M42.904 95.025h-5.238a2.157 2.157 0 0 0 2.145-2.424l-2.904-21.732h5.239L45.05 92.6a2.157 2.157 0 0 1-2.146 2.424z"></path><path fill="#72dbd4" d="M56.03 12.038a2.52 2.52 0 0 1-2.521 2.521H9.179a2.52 2.52 0 0 1 0-5.042h44.33a2.52 2.52 0 0 1 2.52 2.521z"></path><path fill="#fb9648" d="M36.643 9.514H26.045a4.537 4.537 0 0 1 4.537-4.537h1.523a4.537 4.537 0 0 1 4.538 4.537z"></path><path fill="#fff" d="M55.611 59.258v6.539c0 8.723-7.072 15.795-15.796 15.795H22.872c-8.724 0-15.796-7.072-15.796-15.795v-6.54h48.535z"></path><path fill="#fff" d="M55.611 59.258v6.539c0 8.723-7.072 15.795-15.796 15.795H22.872c-8.724 0-15.796-7.072-15.796-15.795v-6.54h48.535z"></path><path fill="#d8eaf8" d="M55.606 59.254V65.8c0 8.72-7.064 15.795-15.795 15.795H22.868c-6.016 0-11.255-3.373-13.92-8.322a15.762 15.762 0 0 0 7.484 1.876h16.943c8.721 0 15.796-7.074 15.796-15.795v-.1h6.435z"></path><path fill="#d8eaf8" d="M59.69 56.598a2.66 2.66 0 0 1-2.66 2.66H5.658a2.66 2.66 0 0 1 0-5.319H57.03a2.66 2.66 0 0 1 2.66 2.66z"></path><path fill="none" d="M55.611 59.258v6.539c0 8.723-7.072 15.795-15.796 15.795H22.872c-8.724 0-15.796-7.072-15.796-15.795v-6.54h48.535z"></path><path fill="#fff" d="M86.504 51.96V28.472H66.882V51.96c1.638 0 1.638-1.996 3.275-1.996s1.638 1.996 3.275 1.996c1.635 0 1.635-1.996 3.27-1.996 1.634 0 1.634 1.996 3.269 1.996 1.634 0 1.634-1.996 3.268-1.996 1.633 0 1.633 1.996 3.265 1.996z"></path><path fill="#d8eaf8" d="M86.509 28.472V51.96c-1.637 0-1.637-1.996-3.273-1.996-1.627 0-1.627 1.996-3.263 1.996s-1.636-1.996-3.273-1.996c-1.636 0-1.636 1.996-3.273 1.996-1.636 0-1.636-1.996-3.273-1.996s-1.636 1.996-3.272 1.996v-5.448c1.616-.02 1.626-1.996 3.253-1.996 1.636 0 1.636 1.996 3.262 1.996 1.637 0 1.637-1.996 3.273-1.996.593 0 .97.262 1.289.596.716.75 1.974.28 1.974-.758V28.472h6.576z"></path><path fill="#72dbd4" d="M63.28 28.472c0 1.894-1.54 3.445-3.445 3.445s-3.445-1.55-3.445-3.445c0-1.905 1.54-3.456 3.445-3.456s3.446 1.55 3.446 3.456z"></path><path fill="#c7f1ed" d="M61.077 31.68c-.38.153-.805.234-1.238.234a3.45 3.45 0 0 1-3.453-3.443 3.452 3.452 0 0 1 3.453-3.452c.433 0 .858.081 1.238.235-1.293.497-2.206 1.753-2.206 3.217s.913 2.711 2.206 3.208z"></path><path fill="#72dbd4" d="M96.998 28.472c0 1.894-1.54 3.445-3.445 3.445s-3.446-1.55-3.446-3.445c0-1.905 1.54-3.456 3.446-3.456s3.445 1.55 3.445 3.456z"></path><path fill="#c7f1ed" d="M96.996 28.471a3.442 3.442 0 0 1-3.443 3.443 3.317 3.317 0 0 1-1.464-.334 3.444 3.444 0 0 0 1.98-3.109 3.447 3.447 0 0 0-1.98-3.118c.443-.217.94-.334 1.464-.334a3.444 3.444 0 0 1 3.443 3.452z"></path><path fill="#fff" d="M55.611 53.935H7.076a5.557 5.557 0 0 1 5.557-5.557h37.421a5.557 5.557 0 0 1 5.557 5.557z"></path><path fill="#fff" d="M55.611 53.935H7.076a5.557 5.557 0 0 1 5.557-5.557h37.421a5.557 5.557 0 0 1 5.557 5.557z"></path><path fill="#fff" d="M55.611 53.935H7.076a5.557 5.557 0 0 1 5.557-5.557h37.421a5.557 5.557 0 0 1 5.557 5.557z"></path><path fill="#72dbd4" d="M55.611 53.935H7.076a5.557 5.557 0 0 1 5.557-5.557h37.421a5.557 5.557 0 0 1 5.557 5.557z"></path><path fill="#c7f1ed" d="M18.408 48.378a5.552 5.552 0 0 0-5.558 5.558H7.073c0-1.537.629-2.924 1.626-3.932a5.535 5.535 0 0 1 3.932-1.626h5.777z"></path><path fill="#6cc6c6" d="M55.606 53.936h-6.395a5.56 5.56 0 0 0-5.558-5.558h6.406a5.55 5.55 0 0 1 5.547 5.558z"></path><path fill="none" d="M55.611 53.935H7.076a5.557 5.557 0 0 1 5.557-5.557h37.421a5.557 5.557 0 0 1 5.557 5.557z"></path><path fill="none" d="M55.611 53.935H7.076a5.557 5.557 0 0 1 5.557-5.557h37.421a5.557 5.557 0 0 1 5.557 5.557z"></path><path fill="#215" d="M16.413 24.418a.5.5 0 0 0-.434.559l.649 5.173a.5.5 0 1 0 .992-.125l-.65-5.173a.498.498 0 0 0-.557-.434zm6.395-6.364h-7.131a.5.5 0 0 0-.496.562l.444 3.543a.5.5 0 1 0 .992-.125l-.374-2.98h6.565a.5.5 0 1 0 0-1zm-10.362 52.1a.5.5 0 0 0-.922.389c.304.718.678 1.412 1.113 2.063a.498.498 0 1 0 .83-.555c-.399-.599-.742-1.237-1.02-1.898zm-1.188-1.745a.5.5 0 0 0 .492-.59 11.281 11.281 0 0 1-.183-2.022v-2.048h4.922a.5.5 0 1 0 0-1h-5.421a.5.5 0 0 0-.5.5v2.548c0 .74.066 1.48.199 2.202a.5.5 0 0 0 .49.41z"></path><path fill="#215" d="M57.03 52.935h-.5c-.49-3.14-3.2-5.56-6.48-5.56h-1.62l3.98-31.82h1.1c1.94 0 3.52-1.58 3.52-3.52s-1.58-3.52-3.52-3.52H37.55a5.54 5.54 0 0 0-5.44-4.54h-1.53a5.54 5.54 0 0 0-5.44 4.54H9.18c-1.94 0-3.52 1.58-3.52 3.52s1.58 3.52 3.52 3.52h1.09l3.99 31.82h-1.63c-3.27 0-5.99 2.42-6.47 5.56h-.5c-2.02 0-3.66 1.65-3.66 3.66 0 2.02 1.64 3.66 3.66 3.66h.42v5.54c0 7.59 5.06 14.01 11.98 16.09l-1.41 10.6c-.12.9.17 1.8.76 2.48.6.67 1.47 1.06 2.37 1.06h23.13c.9 0 1.76-.39 2.36-1.06.6-.68.88-1.58.77-2.49l-1.42-10.59c6.93-2.08 11.99-8.5 11.99-16.09v-5.54h.42c2.02 0 3.66-1.64 3.66-3.66 0-2.01-1.64-3.66-3.66-3.66zM30.58 5.975h1.53c1.6 0 2.96 1.07 3.39 2.54h-8.31a3.537 3.537 0 0 1 3.39-2.54zm-21.4 7.58a1.52 1.52 0 1 1 0-3.04h44.33a1.52 1.52 0 1 1 0 3.04H9.18zm3.11 2.01h38.1l-3.98 31.81H16.28l-3.99-31.81zm.34 33.81h37.42c2.17 0 3.99 1.53 4.45 3.56H8.19a4.557 4.557 0 0 1 4.44-3.56zm31.14 44.26c-.22.25-.53.39-.86.39H19.78c-.34 0-.64-.14-.87-.39a1.14 1.14 0 0 1-.28-.9l1.39-10.4c.93.16 1.88.26 2.85.26h16.95c.97 0 1.92-.1 2.85-.26l1.39 10.39c.04.34-.06.66-.29.91zm10.84-27.84c0 8.16-6.64 14.8-14.79 14.8H22.87c-8.16 0-14.79-6.64-14.79-14.8v-5.54h46.53v5.54zm2.42-7.54H5.66c-2.2 0-2.2-3.32 0-3.32h51.37c.91 0 1.66.75 1.66 1.66 0 .92-.75 1.66-1.66 1.66z"></path><path fill="#215" d="M93.55 24.015c-2.1 0-3.86 1.48-4.32 3.45H64.16c-.46-1.97-2.22-3.45-4.32-3.45-2.46 0-4.45 2-4.45 4.46 0 2.45 1.99 4.44 4.45 4.44 2.1 0 3.86-1.48 4.32-3.45h1.72v22.49c0 .56.45 1 1 1 1.29 0 1.97-.82 2.41-1.36.42-.5.56-.63.87-.63.3 0 .45.13.86.63.45.54 1.12 1.36 2.41 1.36s1.97-.82 2.41-1.36c.41-.5.56-.63.86-.63s.45.13.86.63c.45.54 1.12 1.36 2.41 1.36s1.96-.82 2.41-1.36c.41-.5.56-.63.86-.63.3 0 .45.13.86.63.44.54 1.11 1.36 2.4 1.36.56 0 1-.44 1-1v-22.49h1.73a4.439 4.439 0 0 0 4.32 3.45c2.45 0 4.45-1.99 4.45-4.44 0-2.46-2-4.46-4.45-4.46zm-33.71 6.9c-1.35 0-2.45-1.09-2.45-2.44 0-1.36 1.1-2.46 2.45-2.46 3.13 0 3.16 4.9 0 4.9zm25.66 19.24c-.44-.53-1.1-1.19-2.26-1.19-1.29 0-1.96.82-2.41 1.36-.41.51-.56.63-.86.63s-.45-.12-.86-.63c-.44-.54-1.12-1.36-2.41-1.36s-1.96.82-2.41 1.36c-.41.51-.55.63-.86.63-.3 0-.45-.12-.86-.63-.45-.54-1.12-1.36-2.41-1.36-1.17 0-1.83.67-2.28 1.2v-20.69H85.5v20.68zm8.05-19.24c-3.15 0-3.14-4.9 0-4.9 1.35 0 2.45 1.1 2.45 2.46 0 1.35-1.1 2.44-2.45 2.44zM76.175 15.86h.003a.75.75 0 0 0 .75-.747l.025-6.586a.75.75 0 0 0-.747-.753h-.003a.75.75 0 0 0-.75.748l-.025 6.585a.75.75 0 0 0 .747.753zm-.03 4.004h.006a.75.75 0 0 0 .75-.745l.009-1.277a.75.75 0 0 0-.745-.755h-.005a.75.75 0 0 0-.75.745L75.4 19.11a.75.75 0 0 0 .745.755zm-4.854-.261a.75.75 0 1 0 1.104-1.016l-4.077-4.43a.75.75 0 1 0-1.103 1.015l4.076 4.43zm9.714.045 4.136-4.393a.749.749 0 1 0-1.092-1.027l-4.136 4.393a.749.749 0 1 0 1.092 1.027z"></path></svg>