<svg xmlns="http://www.w3.org/2000/svg" enable-background="new 0 0 64 64" viewBox="0 0 64 64" id="traveling"><path d="M44,55H8c-0.553,0-1,0.448-1,1s0.447,1,1,1h36c0.553,0,1-0.448,1-1S44.553,55,44,55z"></path><path d="M56,16h-3V9h2c0.553,0,1-0.448,1-1c0-2.757-2.243-5-5-5H41c-2.757,0-5,2.243-5,5c0,0.552,0.447,1,1,1h2v7h-3
		c-2.414,0-4.434,1.721-4.899,4H19c-1.654,0-3,1.346-3,3v4H8c-2.757,0-5,2.243-5,5v24c0,2.757,2.243,5,5,5h36
		c2.045,0,3.802-1.237,4.576-3H51c0,1.654,1.346,3,3,3s3-1.346,3-3v-0.101c2.279-0.465,4-2.484,4-4.899V21
		C61,18.243,58.757,16,56,16z M41,5h10c1.304,0,2.416,0.836,2.829,2H38.171C38.584,5.836,39.696,5,41,5z M41,9h10v7H41V9z M19,22h14
		c0.552,0,1,0.449,1,1H18C18,22.449,18.448,22,19,22z M34,25v2h-1v-2H34z M18,25h13v2H18V25z M14,35.414l2,2V43h-4v-5.586L14,35.414
		z M44,59H8c-1.654,0-3-1.346-3-3V32c0-1.654,1.346-3,3-3h5v4.586l-2.707,2.707C10.105,36.48,10,36.735,10,37v7c0,0.552,0.447,1,1,1
		h6c0.553,0,1-0.448,1-1v-7c0-0.265-0.105-0.52-0.293-0.707L15,33.586V29h2h18h9c1.654,0,3,1.346,3,3v24C47,57.654,45.654,59,44,59z
		 M54,59c-0.552,0-1-0.449-1-1h2C55,58.551,54.552,59,54,59z M59,53c0,1.654-1.346,3-3,3h-7V32c0-1.629-0.795-3.065-2.004-3.978
		C46.996,28.014,47,28.008,47,28v-6c0-0.552-0.447-1-1-1s-1,0.448-1,1v5.101C44.677,27.035,44.342,27,44,27h-4v-5
		c0-0.552-0.447-1-1-1s-1,0.448-1,1v5h-2v-4c0-1.593-1.252-2.887-2.821-2.982C33.588,18.847,34.691,18,36,18h20c1.654,0,3,1.346,3,3
		V53z"></path><path d="M53,21c-0.553,0-1,0.448-1,1v30c0,0.552,0.447,1,1,1s1-0.448,1-1V22C54,21.448,53.553,21,53,21z"></path></svg>