<svg xmlns="http://www.w3.org/2000/svg" viewBox="0 0 64 64" id="wedding">
    <g data-name="Layer 963">
        <rect width="57" height="51" x="4" y="7" fill="#70bdfb"></rect>
        <polygon fill="#5b3b63" points="61 7 4 58 61 58 61 7" opacity=".1"></polygon>
        <rect width="8" height="16" x="19" y="43" fill="#999" stroke="#adadad" stroke-linecap="round"
            stroke-linejoin="round" stroke-width="2"></rect>
        <path fill="#4f4f4f" stroke="#4f4f4f" stroke-linecap="round" stroke-linejoin="round" stroke-width="2"
            d="M23,22h0a7,7,0,0,1,7,7V43a0,0,0,0,1,0,0H16a0,0,0,0,1,0,0V29A7,7,0,0,1,23,22Z"></path>
        <circle cx="23" cy="17" r="5" fill="#ffe082"></circle>
        <polygon fill="#999" stroke="#4f4f4f" stroke-linecap="round" stroke-linejoin="round" stroke-width="2"
            points="47 59 41 59 40 43 48 43 47 59"></polygon>
        <line x1="44" x2="44" y1="54" y2="59" fill="#999" stroke="#4f4f4f" stroke-linecap="round"
            stroke-linejoin="round" stroke-width="2"></line>
        <line x1="23" x2="23" y1="51" y2="59" fill="none" stroke="#adadad" stroke-linecap="round"
            stroke-linejoin="round" stroke-width="2"></line>
        <path fill="#fff" stroke="#cfd8dc" stroke-linecap="round" stroke-linejoin="round" stroke-width="2"
            d="M45.65,22h-3.3c-.9,0-1.69.91-1.93,2.23L35,54H53L47.58,24.23C47.34,22.91,46.55,22,45.65,22Z"></path>
        <line x1="5" x2="60" y1="59" y2="59" fill="none" stroke="#3eb51d" stroke-linecap="square"
            stroke-linejoin="round" stroke-width="2"></line>
        <path fill="#f2ec25" d="M4,21A14,14,0,0,0,18,7H4Z"></path>
        <path fill="#ff4931" stroke="#ff4931" stroke-linecap="round" stroke-linejoin="round" stroke-width="2"
            d="M39.82,26.93a4,4,0,0,0-5.7,0L33,28l-1.12-1.12a4,4,0,1,0-5.7,5.7l1.12,1.12h0l5.7,5.7,5.7-5.7h0l1.12-1.12A4,4,0,0,0,39.82,26.93Z"></path>
        <circle cx="44" cy="17" r="5" fill="#ffe082"></circle>
    </g>
</svg>