<svg xmlns="http://www.w3.org/2000/svg" width="90.839" height="90.839" fill-rule="evenodd" clip-rule="evenodd" image-rendering="optimizeQuality" shape-rendering="geometricPrecision" text-rendering="geometricPrecision" viewBox="0 0 1706.66 1706.66" id="sadness"><path fill="#ffaf8a" d="M1255.39 1706.58H541.06c-12.41 0-21.85-11.25-19.69-23.49 14.87-84.52 21.03-219.29-6.3-344.04-32.33-147.61-98.63-180.69-145.14-273.92-9.48-19 11.96-34.28 26.78-27.15l646.65-737.89c-11.33-12.11-2.74-37.3 18.25-33.57 273.27 48.36 543.59 274 495.09 655.63 12.58 21.54 57.67 97.63 90.3 138.85 49.59 62.65 18.87 110.57-54.66 110.57l-45.55 11.76c14.56 152.64 53.86 326.89-175.85 326.89h-95.52v176.36c-.02 11.04-8.98 20-20.02 20z"></path><path fill="#6496af" d="M593.46 1116.92c-149.15 0-289.39-58.09-394.87-163.56-217.72-217.73-217.72-572 0-789.73 218.21-218.21 571.53-218.19 789.73 0 217.73 217.73 217.73 572 0 789.73-105.46 105.48-245.7 163.56-394.87 163.56z"></path><path fill="#fff" d="M751.36 828.06c-24.32 0-58.19-73.34-177.07-73.34-139.24 0-159.63 99.05-191.2 67.48-7.82-7.8-7.82-20.47 0-28.28 105.79-105.69 276.63-105.7 382.41 0 12.67 12.65 3.48 34.14-14.14 34.14zm46.96-415.43c-55.05 0-136.33-43.81-107.41-72.7 7.82-7.82 20.47-7.82 28.28 0 43.63 43.63 114.63 43.63 158.25 0 18.63-18.63 46.93 9.67 28.29 28.28-29.63 29.61-68.51 44.43-107.41 44.43zm-409.68.06c-55.41 0-136.21-44-107.41-72.77 7.82-7.82 20.47-7.82 28.28 0 43.63 43.63 114.63 43.62 158.25 0 7.82-7.82 20.47-7.82 28.28 0 28.8 28.8-51.98 72.77-107.39 72.77z"></path></svg>