<svg xmlns="http://www.w3.org/2000/svg" data-name="Layer 1" viewBox="0 0 32 32" id="praying-woman"><path d="M27.29 27.55a.312.312 0 0 0-.09-.11l-.28-.32a3.77 3.77 0 0 0-1.65-2.35 7.347 7.347 0 0 1-.85-.51 6.88 6.88 0 0 1-.71-.49.453.453 0 0 0-.11-.34l-.13-.17-1.68-2.07c.07-.23.16-.46.26-.71a6.667 6.667 0 0 0 .6-3.44l.07-.04a.512.512 0 0 0 .24-.65 16.841 16.841 0 0 1-.97-2.91 24.947 24.947 0 0 1-.56-2.95 3.19 3.19 0 0 0 .75.08 4.033 4.033 0 0 0 3.54-2.09l1.04-1.9a3.825 3.825 0 0 0 .45-1.45.09.09 0 0 0 .01-.05 3.73 3.73 0 0 0-1.4-3.87c-.04-.035-.086-.064-.13-.095-.039-.031-.075-.065-.12-.095h-.01a.38.38 0 0 0-.13-.09L25.07.7a3.295 3.295 0 0 0-.49-.26 4.35 4.35 0 0 0-.98-.33c-2.84-.59-6.03 1.46-9.5 6.09-4.07 5.44-4.48 11.89-4.1 16.34a.542.542 0 0 0 .25.4.574.574 0 0 0 .25.06.545.545 0 0 0 .22-.05l.53-.26a5.92 5.92 0 0 0 .1 1.19 6.213 6.213 0 0 0 1.36 2.98H9.48l-.007.001H9.47a3.316 3.316 0 0 0-1.79.504 3.46 3.46 0 0 0-1.15 1.373c-.08.142-.162.288-.257.438a6.153 6.153 0 0 1-1.963 1.901.5.5 0 0 0 .267.923H25.16a2.732 2.732 0 0 0 2.52-1.62 2.639 2.639 0 0 0-.39-2.83ZM23.73 25c.01.02.01.02.02.02a11.214 11.214 0 0 0 1.05.63 2.65 2.65 0 0 1 .88.96q.09.165.15.3a4.636 4.636 0 0 1-.51-.11 9.091 9.091 0 0 1-.99-.27 12.302 12.302 0 0 1-1.37-.56l.1-.28.01-.02.14-.42.1-.27.03-.1.03-.07.01-.04a2.635 2.635 0 0 0 .35.23Zm-1.19-1.3.11.14-.03.08a.035.035 0 0 0-.01.02l-.46 1.32-.13.38-.01.01-.01.04-4.62-3.87a1.646 1.646 0 0 1-.59-1.26v-.62l2.77-1.37-.07 1.17a.453.453 0 0 0 .11.34l1.09 1.34.97 1.2Zm-1.42-3.59a1.219 1.219 0 0 1-.07.17l-.55-.68.08-1.54 1.1-.54a5.89 5.89 0 0 1-.56 2.59Zm3.72-12.1a3.02 3.02 0 0 1-3.5 1.43 7.741 7.741 0 0 1 1.54-5.52A1.356 1.356 0 0 1 23 3.8c.08.04.17.08.25.13a6.68 6.68 0 0 1 2.45 2.5Zm.21-5.68c.12-.06.24-.11.37-.17a2.715 2.715 0 0 1 .81 2.73 1.045 1.045 0 0 1-.04.17l-.06.19a7.401 7.401 0 0 0-2.36-2.17 6.428 6.428 0 0 1 1.28-.75ZM10.94 21.72c-.25-4.23.29-10.03 3.96-14.92a20.118 20.118 0 0 1 4.48-4.59.374.374 0 0 1 .12-.07 8.517 8.517 0 0 1 .783-.455c.093-.048.186-.095.278-.137q.272-.127.528-.22c.072-.026.146-.056.216-.079a4.943 4.943 0 0 1 .616-.155c.054-.01.105-.017.157-.025a4.134 4.134 0 0 1 .582-.049 3.446 3.446 0 0 1 .74.07 4.225 4.225 0 0 1 .76.25l.12.06a1.4 1.4 0 0 1 .16.1h.01a3.88 3.88 0 0 0-.45.24 6.726 6.726 0 0 0-1.22.87 5.143 5.143 0 0 0-.66.66c-.03.04-.07.08-.1.12a8.48 8.48 0 0 0-1.7 5.59q.015.6.06 1.17c.03.3.07.6.1.88a.09.09 0 0 1 .01.05c.1.73.24 1.4.37 1.95.05.24.1.46.15.65a19.18 19.18 0 0 0 .85 2.63l-.33.16-.88.44-1.03.51-2.83 1.4-1 .5-3.17 1.57-1.19.59Zm2.77 4.75a5.14 5.14 0 0 1-1.38-2.77 4.679 4.679 0 0 1-.02-1.54l3.48-1.72v.12a2.653 2.653 0 0 0 .95 2.03l5.17 4.33a.49.49 0 0 0 .32.12.674.674 0 0 0 .14-.02.445.445 0 0 0 .21-.12 13.516 13.516 0 0 0 1.44.58c.26.08.52.16.79.22a24.195 24.195 0 0 1-5.81.29c-.58-.04-1.11-.08-1.59-.13a6.347 6.347 0 0 1-3.25-1q-.225-.18-.45-.39ZM8.976 31H6.045a6.506 6.506 0 0 0 1.074-1.292c.104-.165.194-.325.281-.481a2.554 2.554 0 0 1 .825-1.023 2.094 2.094 0 0 1 .75-.294Zm17.794-1.03A1.734 1.734 0 0 1 25.16 31H9.98v-3.14h3.88c1.38.87 3.05.98 5.07 1.13.59.04 1.18.06 1.78.06a26.801 26.801 0 0 0 5.94-.68 1.63 1.63 0 0 1 .12 1.6Z"></path></svg>